<mxfile host="app.diagrams.net" modified="2022-12-22T14:12:13.080Z" agent="5.0 (Windows)" etag="Je_EIgCdMDeewovKRNJi" version="20.7.4" type="github">
  <diagram id="JVeQGV50bSFnjZMCQQE2" name="Page-1">
    <mxGraphModel dx="2637" dy="1201" grid="1" gridSize="10" guides="1" tooltips="1" connect="1" arrows="1" fold="1" page="1" pageScale="1" pageWidth="850" pageHeight="1100" math="0" shadow="0">
      <root>
        <mxCell id="0" />
        <mxCell id="1" parent="0" />
        <mxCell id="02H-DrXSUCuez8r9kEsw-10" value="Trust Boundary: API" style="rounded=0;whiteSpace=wrap;html=1;dashed=1;verticalAlign=bottom;" vertex="1" parent="1">
          <mxGeometry x="455" y="350" width="190" height="200" as="geometry" />
        </mxCell>
        <mxCell id="02H-DrXSUCuez8r9kEsw-9" value="Trust Boundary:" style="rounded=0;whiteSpace=wrap;html=1;dashed=1;verticalAlign=bottom;" vertex="1" parent="1">
          <mxGeometry x="130" y="350" width="280" height="120" as="geometry" />
        </mxCell>
        <mxCell id="02H-DrXSUCuez8r9kEsw-7" value="Trust Boundary:&lt;br&gt;S3" style="rounded=0;whiteSpace=wrap;html=1;dashed=1;verticalAlign=bottom;" vertex="1" parent="1">
          <mxGeometry x="585" y="590" width="110" height="120" as="geometry" />
        </mxCell>
        <mxCell id="02H-DrXSUCuez8r9kEsw-6" value="Trust Boundary:&lt;br&gt;DynamoDB" style="rounded=0;whiteSpace=wrap;html=1;dashed=1;verticalAlign=bottom;" vertex="1" parent="1">
          <mxGeometry x="450" y="590" width="130" height="120" as="geometry" />
        </mxCell>
        <mxCell id="fcquz-dU36HKkGFn_NYE-8" style="edgeStyle=orthogonalEdgeStyle;rounded=0;orthogonalLoop=1;jettySize=auto;html=1;exitX=1;exitY=0.3333333333333333;exitDx=0;exitDy=0;exitPerimeter=0;" parent="1" source="fcquz-dU36HKkGFn_NYE-6" edge="1">
          <mxGeometry relative="1" as="geometry">
            <mxPoint x="270" y="380" as="targetPoint" />
          </mxGeometry>
        </mxCell>
        <mxCell id="fcquz-dU36HKkGFn_NYE-6" value="Actor" style="shape=umlActor;verticalLabelPosition=bottom;verticalAlign=top;html=1;outlineConnect=0;" parent="1" vertex="1">
          <mxGeometry x="150" y="360" width="30" height="60" as="geometry" />
        </mxCell>
        <mxCell id="fcquz-dU36HKkGFn_NYE-9" style="edgeStyle=orthogonalEdgeStyle;rounded=0;orthogonalLoop=1;jettySize=auto;html=1;exitX=1;exitY=0.5;exitDx=0;exitDy=0;" parent="1" source="fcquz-dU36HKkGFn_NYE-7" edge="1" target="02H-DrXSUCuez8r9kEsw-13">
          <mxGeometry relative="1" as="geometry">
            <mxPoint x="450" y="390" as="targetPoint" />
          </mxGeometry>
        </mxCell>
        <mxCell id="fcquz-dU36HKkGFn_NYE-7" value="&lt;div&gt;Browser&lt;/div&gt;&lt;div&gt;&lt;br&gt;&lt;/div&gt;" style="rounded=0;whiteSpace=wrap;html=1;" parent="1" vertex="1">
          <mxGeometry x="280" y="360" width="120" height="60" as="geometry" />
        </mxCell>
        <mxCell id="fcquz-dU36HKkGFn_NYE-13" value="Tabeles" style="shape=cylinder;whiteSpace=wrap;html=1;boundedLbl=1;backgroundOutline=1;" parent="1" vertex="1">
          <mxGeometry x="470" y="600" width="80" height="80" as="geometry" />
        </mxCell>
        <mxCell id="fcquz-dU36HKkGFn_NYE-15" value="S3 Bucket" style="shape=cylinder;whiteSpace=wrap;html=1;boundedLbl=1;backgroundOutline=1;" parent="1" vertex="1">
          <mxGeometry x="600" y="600" width="80" height="80" as="geometry" />
        </mxCell>
        <mxCell id="Hd83eVn2M9fP15iX-xxs-1" value="“As a vehicle fleet manager, I want to register an existing IoT connected vehicle to bring it into service.”" style="text;whiteSpace=wrap;html=1;fontSize=14;" parent="1" vertex="1">
          <mxGeometry x="40" y="10" width="670" height="50" as="geometry" />
        </mxCell>
        <mxCell id="Hd83eVn2M9fP15iX-xxs-2" value="" style="shape=image;verticalLabelPosition=bottom;labelBackgroundColor=default;verticalAlign=top;aspect=fixed;imageAspect=0;image=data:image/png,iVBORw0KGgoAAAANSUhEUgAAAggAAADmCAYAAACwLX24AAAgAElEQVR4XuxdB2AU1RY9pJFGSOi9iIII2BBFARVUwEIRULH3gigdQUSqFEHhIzbsYFeUooL0Ik2QqiLSBKR3Aunt3/NmZncTEklgSdv7vvlkd9+8mTlvsu+8e8+9t0iaNGhTBBQBRUARUAQUAUXAA4EiShD0eVAEFAFFQBFQBBSBjAgoQdBnQhFQBBQBRUARUAROQ0AJgj4UioAioAgoAoqAIqAEQZ8BRUARUAQUAUVAETgzAmpBODNG2kMRUAQUAUVAEfA5BJQg+NyU6w0rAoqAIqAIKAJnRkAJwpkx0h6KgCKgCCgCioDPIaAEweemXG9YEVAEFAFFQBE4MwJKEM6MkfZQBBQBRUARUAR8DgElCD435XrDioAioAgoAorAmRFQgnBmjLSHIqAIKAKKgCLgcwgoQfC5KdcbVgQUAUVAEVAEzoyAEoQzY6Q9zoBAWkoKkM9rfhUJCNB5VAQUAUVAEcgBAkoQcgCWds0cgX9bd0Dyjp0oUsQPKCL/8Yf/k5fmN3nD+uFnfva/8oKfZvjMdbzdj51NHz+OaI9rv5e+r/W51d9jXDmOzW/KFJ0+RUARUAQUgRwgoAQhB2Bp16wIQnskkSAYMmBYgSEHFkmwF3Z7kbcoAz9nB/sz9rF/h+mfnkzwCD8u9B4kIT0RcAiBc273eA65UIKgT68ioAgoAjlDQAlCzvDS3pkgsKuVEIR/dthkwN7nm0U/C0uCtdE3LMIs/Oa1RSYsciFWBrtPOouDp3XAmA/IGTysFuZzmyR49pVx/adO1blTBBQBRUARyAECShByAJZ2zRyBnbe3EwuCEATXIi87/gyWBGsxt/wPbneD9bsnQTA2BWNcOJ0kWO4KEgjnOJ7Hg1h4uBZMXw/LRMD0aTp9ioAioAgoAjlAQAlCDsDSrpkjsOO2tkIQdrm1BfbOPqO7wU0SbIuBxyLuIgn2zt+4E4zb4XR3gzEaOETD1jhYegRP/QFHpN7Bei/wh+k6fYqAIqAIKAI5QEAJQg7A0q5ZEIRbSRBEg5DOTeAs7hmFi27dgcsi4LIqWG4DFzFwSIJlZHAJHE/TJDhEwuWuyEAg5H0lCPr0KgKKgCKQMwSUIOQML+2dCQL/0IKwXVwMXMT9qQHwcAU4wsV00Q0WSUjnbuBLChfN27b1wEUQrPHSkYR00Q0elgNbm+COZLBcFUE//aBzpwgoAoqAIpADBJQg5AAs7Zo5AttbtrGjGJxFnP5/a2G2XAW2WNEJcbRdBBaR8PzckzTYpMC2SjiahHQEwlOPIP3MGV0WCE+tAhA84yedPkVAEVAEFIEcIKAEIQdgadfMEdjWorVFEEgG0qw+fiQIFjPIMrrBrRuwcyPIMf5lSsMvNNRFHCBJmFL3H0CR1FR3lIMhAdYxLitEuhBIT0GkZZFQgqBPryKgCCgCOUNACULO8NLemSCwrXlrJDphjjZJsKIYHf2BHVHguBsMgWAHa/E2mgJaACKLI6JLZwRedBHSTp2yziQui5iPJyJl7Tq3RSKN46UnCSZCwiYJ6a0MliUiZOYMnTtFQBFQBBSBHCCgBCEHYGnXzBHY2ryV0SCkCy20jAe2i8FDU2C967IAWMJGwybgL5aD0LvbI6h2bUQPegVISUJIm1YIuqo+Tr06GoiJTWeRsHQGGSwJtlWB7gaXBUM6hv6sBEGfX0VAEVAEcoKAEoScoKV9M0Vgyy02QfAMNZSdv+NuMHoE5zM7U6JLf2BnXAy5oQlCW9yMmG+/Q2SfXjg+/FWkbPpbrApRiBw1DHGff4XEJUvdBCFDCKQhHY6bgdEM6T4vgrBZM3X2FAFFQBFQBHKAgBKEHIClXTNHYMvNdyCRUQxODgOPCAPLWuAhRrR1CVYiJet9/1IlUWrkUPhFRCB2huz0ExJQtH59nBgyDEhMRGjb1giqfyVOvjYWOHXSsgwY8aOTTMk9vosoOOe0zxE2WwmCPr+KgCKgCOQEASUIOUFL+2aKwOZmQhCcTIq2a8GkTXYiEES46GgSThMuBgag+EMPIOiiCxE3fyHC770bJ0aMRuTQAYiZ8CESli1DkeAQRA0fjLhZc5A0d76tNXDrECwS4uFucBIwedSBCJ/9s86eIqAIKAKKQA4QUIKQA7C0a+YI/N3sdkuk6GEpsAIbbbO/vxXd4BYuuvMkFL20Hkr1ewGHBwxFyr+7EdW7O1Kjo5G8bz9CrmmA46+MAGJjEXLLTQgVPcLxrj3NRVjuBFv8SEsCy017ChcpfGQfO3lSsTmzdPoUAUVAEVAEcoCAEoQcgOXLXdO4AJudup2xyAOMTU1vExfDPx6ZFC2Tv1mbXTt7z2RHzsIu4kHRHkQ99TgOdOmBtBPRKHppXZTo1wdHBw1BZJfncOqbb5G4dAX8oiJRvE9PJC5bgYQZljXAU4ToEAbn/Yz1HiLmzfbl6dN7VwQUAUUgxwgoQcgxZL55wJYtW/DWW2+hd+/eqFChQjqi8JeLIND67y8rd5o7SsFasV3kwaEXfiJiDL2+CfzCwxDe/GbEr1yFU5OnoEhQICI7P420pGSk7t2LkKY34OhLA8WKEIdg+T38gXtxvF9/pB055rZQeGRutHQNp0c3FFeC4JsPrt61IqAInDUCShDOGjrfOjBWzPxPPPEEZs6ciWHDhuGhhx5CeHi4AeGvG1sakaKLCBjDgfzPpF02kgHrHQ+Tf0DZ0qj00XtIPXEcJ774GpEPP4iDvV9Eyt79CKxeFWXGjsKx0WMQIe/HTJmOhPkLJJlBCEqIFiFh/iLEz7BEh079Byu6keLFTKpAyvuR8+f41oTp3SoCioAicI4IKEE4RwB96XC6GTZu3IhHH30Uhw4dwqRJk3Dttddis4liEBeD5U9IJ0i0uIGzq7dJQtGiKPnUYwisUF4sBkGSQ2E7AqtURtK/exD9wceAeDNK9OwCv7AQsSz8hvD27XD05UFIO3oMQZddiuLPd8LR7r2NNsGte7DzHjiVHj0sCbyEqIVzfWmq9F4VAUVAEThnBJQgnDOE7gG4WO7atcuLI+bPoRIkDPHIkSPw9/dHixYtMPhANPwPHLRM+9a+Pr2I0CEO/FysCGENr0GZF3tib5deCKxYASVlwacVIaJ9Wxx9fRySNm9BQJkyKD1yCKI/+RTFJLIhTqIX4n6QEMjgYEQNeBHJf29B7Odfuq0IthvDnCqTUtFKEPLns6RXpQgoAvkXASUIXpwb7ma3bt3qxRHz31CpUhNhyZIlePLJJ1GzZk1MnToViY8/586DYLwKnnkP7EyH9nsBJSJRbuCLiN/wB45P+gJ+suCXe+M1xC1cjIDKlQ3JOCYkgX6J4qI3KFq3LuIWLUZYy+Y4JsmTUoWYBEtmxYjOnXCsV1+kHT/mdm14kgQTYul2N5RYJOGR2hQBRUARUASyjYAShGxDdeaOJAiO2v/MvQtej3379uG+++7Dpk2b8OGHH+KWW25BYGAg/ri+BRK3bbeIAUMazW+WUNDs6Fln0Q5BjOzYHsVubGKsB0hJRXDd2ig7uD8ODR6OtORklO7fB4eGjECK5FUIkARKpf/3OqIlH0J42zuQIO6GmMnfo4hoESJf6IGUnTsRK5YHAd0iA3aEhRPd4CoYJddScrEShIL3xOkVKwKKQF4ioATBi+gXZoKwZs0aNG7cGC+99BI6deqEEiVKuJD7o8ktSNhmhTk67gU7/QDt/bbroQiCqlVBpVdfwaG3JiBOwhXFRyHWhH5IOXYMR8e/gyIB/oh64jEE1bwQh/sPApKTEN7qDoTd0gyxs+ci/M7WONz9BSAuFkH1JBxyYH8c6dELqXv2uSIa3CmWnVwLFkkptVhEjtoUAUVAEVAEso2AEoRsQ3XmjoWZICQlJeHw4cMoX778aUD80fgWxIsFwZW8yEmFbFsSSBL8QoJRQchA6vETOPTG2yaFcliT61Di4QdwQKwHKQf2m2RKAZUqovzrI3FEIhgS1m0w+Q/KjR6BmLnzULROHSTt+henJn0mlgohE/0l6mH3bsR8+oVYI5KNpcKWO6RP7yzWhVK/KEE48xOsPRQBRUARcCOgBMGLT0NhJgj/BdMGIQgJW4UgkBDYoY0musCIFS1XQ7HrG6Fs12fxb4++SNq9BwHFi6Pye+Nx4rupiP5+up27QEaQ44vf2QZhN16Pg337A/HxCL+9JcKa34TYWXMRIRaGwz16G6tBgFgkSgzqjxOiTUh2EjWZC3Wf10mYVHrpIi/OtA6lCCgCikDhR0AJghfn2GcJQiNJdEQLghXo6CIFjlgxoFQJVHv3DRz9/GtEMxJBdvSR7VqjxAMdsef5nkizyzhTM8DmFxaGCuNfx/GPJiJGXAvUF5QdN1pCHlcj6OJaSNq2Dac++1Le90ekpGZOE5fDybffk3OLFsEOb3TlZLCFi2WWKUHw4qOuQykCioAPIKAEwYuT7KsEYX3DmxD/jxAE22pgFnkjVmTiIn+UffYJhNSpjd29+kmlxkT4FY9A9U8/gH9YKJIPHzULu6uJtSH50EHErVptrAiH+g2S2gwnJOtiY0Q9+iCOvvM+Sj73DA69PFgyLUpSpYtqIKpnV0SLhiHp783GemDXiUoX3VB2+WIvzrQOpQgoAopA4UdACYIX59hXCcI6EgRaEEwOAju0kEu1uAtCZMdfaWBf7B0xBvF//mnlSfAPQHCNavALDbV3/E6dBin9HCrZEp99Eien/YhwKdAUK1kTT03/EUWKhaMUIxcOHoJ/6ZJCGk7ixJvvmvGKP/uUaBxCED1WwiMtG4S5FqsWhBVyWW7FL16caR1KEVAEFIHCj4ASBC/Osa8ShLXXNkX8FluDYMINLbGgf3BRVH9zDGL/2IiDdAGksqQj3QCWLsEVlmgSG1mvubBTvFimRxcc//wrRN7TAXs6ixtBIh1C6l+B0oNeMhEPJYQUHHhOKj8KYQgSK0KJl1/E0YFWRUgr2tGu5mh+LYLyvy7x4kzrUIqAIqAIFH4ElCB4cY59lSCsubopEiRdshXkKOSA/ECiDIrfdAMuGPsqDn72FVIOHbFyJKSaTmZ772RdtA+0SIK4GxjxUOLB+3Hsy28QXPtipEpK5cSNm1AkOAgRd7ZFzDyJSAgIQFDFcibSgaKHULE2pEqUxdEBQwCJuLC0EE6IJVB+5VIvzrQOpQgoAopA4UdACYIX59h3CcKNiGcUg20BMDQhMADFrmuIEpLgiCGNNhtITwoMV7DyM5tdvy1FMONIjYZYSYzEBEyRd7czIZCmn4yb8NffkjRpNSLuvcvkUjBjSA6F1P0HcfKLr+R8CcI/nHEtklBBCYIXn3QdShFQBHwBASUIXpxlXyUIq6++QVwMLNZEy4GTSZHZE7mq21kU7egC7upJBKx6CSQG8n9pdu0G2zXAz4ySwdYPWNoGq4851vN9V84FZzwnF0L6dM8VV6kFwYuPug6lCCgCPoCAEgQvTrLPEoSrbkDc1m0eC7e9WJsoBg/hoqtWgp0jwdRLsCbApUEwv2cgB57HWYYBK5TSkA+bOBgDg1vHYPELRjRYY1X6bZkXZ1qHUgQUAUWg8COgBMGLc+yrBOG3+tebKAZrobeVCLaFwDgRMpAE08+JdrB1Ai6SYP2SbnG3vAUeRMDWL7gsCelIgiN4NIzB5faovFpSO2tTBBQBRUARyDYCShCyDdWZO/oqQVglBCFui2VBcIUWckG33Q3Wgu+QAkua6GcnK7ASG9kkwqIYGSwRjjXBIQnmYMuKYD6yhYhmDEf26LYkWHylCKqsUYJw5idYeygCioAi4EZACYIXnwafJQhXWgTBeBRc4kBn4XcWbVtn4JEnwUQycGF3LApWV8ta4OFWIJlwhUQ6ugXPfAtOtILnuc0YDnkAqqz91YszrUMpAoqAIlD4EVCC4MU59lWCsPKKJm4NglnhmYPA0gQYM7/jErA1A9bbNjEQK4PzyrEkWEPYVgDHRWFCIE1Xl7vBiZow73uQBDOyp0ZBPq66TgmCFx91HUoRUAR8AAElCF6cZF8lCL9eLgRhy1YxCFiKQ6tAkyNA9LQGcN228yQY0uBYD6yDHEGhcQu4SIJDCDwSK3loCzwzN7pIgsUibGJiHVdtvRIELz7qOpQioAj4AAJKELw4yb5KEFZc3hhxm4UgOBoAx7Tvem2TAQ/hoinM5LIsyGLub8wAp7sbXJYES8NgEQdb05Ah3NGyMHhoGIx1wnJ7VFu/yoszrUMpAoqAIlD4EVCC4MU59nWCYFkPHMuAE71gaxCM1sAWLnJ3n0Yzg6RdlnoNnu4Gy6Zgj2ObElxaAisswX0OlyXBIgzmM4dAOPoGm6RcsOE3L860DqUIKAKKQOFHQAmCF+fYVwmCFyHUoRQBRUARUATyCQJKELw4EUoQvAimDqUIKAKKgCKQpwgoQfAi/EoQvAimDqUIKAKKgCKQpwgoQfAi/EoQvAimDqUIKAKKgCKQpwgoQfAi/EoQvAimDqUIKAKKgCKQpwgoQfAi/EoQvAimDqUIKAKKgCKQpwgoQfAi/EoQvAimDqUIKAKKgCKQpwgoQfAi/L5EEJKSknD8+HGUKlUKaWlpOHz4MKKiohAYGJgO0ZSUFBw9ehSlS5c2/x45cgQVKlRAWFjYacgfPHgQJUqUQEBAwFnNyty5c3HllVciKCjIXFvFihXx+++/Y86cObj11ltxySWXnNW4epAioAgoAr6IgBIEL866LxGEKVOm4KGHHsLOnTvNYn/ZZZfhgw8+QOPGjfHMM88gOjoaX3zxBVauXIlevXph4MCBpn/58uVN/0WLFqVDfseOHahevTp++ukn3HbbbWc1K23btsXQoUOxd+9eTJ06FW+99RZuuOEGPP/88+a6SEy0KQKKgCKgCGQPASUI2cMpW718hSDQYnDnnXeifv36iIiIQJcuXdCnTx+UKVMGPXr0MDt1WhK4e+/WrZvZ1U/6dBIefOBBPPjgg8bi4O9vciubxtc9e/YELQinTp3C999/j8TERCxbtsy8xwW/Xbt2+PHHH1G5cmW0atXKEAlaL2gdaNmyJRo0aGCuiQSB17F9+3ZzDW3atMGgQYMMOaBF4fLLL8exY8ewZs0a3HTTTdmaV+2kCCgCioAvIqAEwYuz7isEgbv9u+66C99++63Z7a9evRr79u3Dww8/jE+FCHTq9Kwx8dNKcOmll5qFfcOGDYYssA939FzEnUYycNVVV2HWrFlmx8/FOzY2FvXq1cOkSZMwduxY43YgCaF1YsaMGWjUqBEeffRRXNfoOnR+tjOmT5+O/v37G4JAN8bXX3+Np59+Gq1bt8b777+PkydP4vXXX8fixYvxwgsvoEmTJoZ0aFMEFAFFQBHIHAElCF58MnyFILz66qtm8e/UqZOxCKxYsQI1a9ZErVq18Nxzzxk9Ai0E11xzjSEF69evR3BwMHbv3o0PP/wQEyZMAEkGtQJsPL5z585mcR8/fryxBNBd0Lx5c6xbtw7Dhw9HmvzvpX4v4YEHHkDXrl3N4r5gwQJccMEFuO+++3DLLbfghx9+SEcQ3nzzTdStWxfLly9HaGioISszZ850kRBaILQpAoqAIqAIKEE478+ArxAE7vbpVqCWgNaDuLg4jBkzxizq1Bx88803SE1NEbLwvFnkuXP3bHRNkCjQ3J+amooOHTqYhZw6BhIHHk+LQIsWLQxBGDlyJFJkPBIEEhKe2yEI1C3QxUCrxEcffZQlQYiMjDQaiV9/XSHWjRPGwmAqSmpTBBQBRUARyBQBtSB48cHwBYJAawDN/NyVs9G1QAEgF/Kff/4ZjzzyiLEg8KdKlSrGekBXQd8X+2L5suWIj483QsVp06aZ42n65+ckFnQ78PPatWtj3rx5aN++PdauXWsIAolEv379DEGgBYFkhJoCuid4HAnFuHHjjGWDn1OkSGuEY0EgQaAFg+daunSpRjR48bnXoRQBRaBwIqAEwYvz6gsEgYJCNt4rm/M6OzDGxMSAP1zQMzs+q/c8z+n8TvIxf/58lC1bFsWKFTPj8TOGVXoKIJ3r4mdbtmxBx44djUujaNGi2blk7aMIKAKKgM8ioATBi1PvCwTBi3Cd01DUKdBCUKlSpWyNs2TJEnTv3h2jRo1C06ZNs3WMdlIEFAFFwJcRUILgxdlXguBFMHUoRUARUAQUgTxFQAmCF+FXguBFMHUoRUARUAQUgTxFQAmCF+FXguBFMHUoRUARUAQUgTxFQAmCF+FXguBFMHUoRUARUAQUgTxFQAmCF+FXguBFMHUoRUARUAQUgTxFQAmCF+FXguBFMHUoRUARUAQUgTxFQAmCF+FXguBFMHUoRUARUAQUgTxFQAmCF+FXguBFMHUoRUARUAQUgTxFQAmCF+FXguBFMHUoRUARUAQUgTxFQAmCF+FXguBFMHUoRUARUAQUgTxFQAmCF+FXguBFMHUoRUARUAQUgTxFQAmCF+FXguBFMHUoRUARUAQUgTxFQAmCF+FXguBFMHUoRUARUAQUgTxFQAmCF+FXguBFMHUoRUARUAQUgTxFQAmCF+H3VYLw7513I3nHLvD+5T/TivgVgZ95wffkx7wp/5k+1g87W//Iv9Lf9DKv/Ux/633rQDOe9aF1jHnP/szjGDmpxzk8zjd5shdnWodSBBQBRaDwI6AEwYtz7LMEoXV7JO3YaS3a1qptFm8XGXAWe2tlP50g2ATARRI8+jsEwhADQyI8x/UczyIW5twOCTFkwXrtN2WKF2dah1IEFAFFoPAjoATBi3PsqwRhVyubINg7e7IAP1mc01kMMpIEQyIMi/CwCHhYF7IiCRmsEBYpSW+dcKwW1jVYn/tPnerFmdahFAFFQBEo/AgoQfDiHPsqQdh5Rzsk/SMWBGfHblsSMi7c1u6fpMCs2xncDelfGxdEDkiCm4xY47hJikU6AqYpQfDio65DKQKKgA8goATBi5McEBCA5ORkL45YMIbacXs7JP+zw9qtZyAJZpE3nMDSDFg6Az9KBf7b3eDoFDKQBEePkJFguPULbreCY0kgQQj8YVrBAFOvUhFQBBSBfIKAEgQvTsTixYtx/fXXe3HEgjHUjlvbWhoEWyBIomAJFC2LgcuS4GgNDGmwhIinCxcdMuEWLlpkwB7HJgzpNQnWZ+mtDvYx5lwkCNMLBph6lYqAIqAI5BMElCBkMhFrDwE/yoY4PvX8z1KQLGxNKwJNKlhm94LY/iFBEAuCWaSpK6AGwd+OSsiUJNgkwLESWHKFrDUJts7AGtvtnvhv4aLjsrCISNBPPxREaPWaFQFFQBHIMwSUIGSAPllIQZ/lsmCXA0qGWB+mZWN6PNf2nPSPE4/ErH+B4Q2Bov7ZOFE+7LK9JS0IQhAMNZAmCzkFgkWCg1HimScR0uRaUQkGuBZ36xbciJ3GizIwJcfSYM2EbZmwcUiLPomEL79E6uo1HlETp0c3FFWCkA+fHL0kRUARyM8IKEHIMDuJKUBvIQgjrgG2HAe2RmeTIeR0lmUNKx8KXCtEpNtS4FVZQ4MLKEHY1rKNbUHwCEMUghBxd3uE3dQUR8eOB+LiLI0Cf7jMG72CRRQcPuDkUbByJNguBeEETp4Ep68734KIDy+sgeBHH0HsC32A48fTkQTLtWGNHzzjp5zOkPZXBBQBRcCnEVCC8B8E4b0/gaOJQJS1+T1j44KXlk23xEkhIinSd7AQka5LCjhBaNHaEIR0BECsCOVGvYKYhYsRM2uuO5TxtDwJbneDSXLENd3WJ6RPnmSHThrRgqMvSEORokURNnI4EiZ9itQ//sgyT0LITCUIZ3yAtYMioAgoAh4IKEHI8DgkiMn/hRWWBYEEoXYk0Lyq95+ZlfuBmeJaGHS1RRBGigUhpIBaELY2twiCe8duLfTlXh+JmLnzETN7XrroBqNRyJgnISgIZb+YCP/yYlLJZkuY9gPiP/jQEITEzz9HyvrfTwufdPIkhPw8I5ujajdFQBFQBBQBIqAEIRsEoUU17z8sJAgzdhUOgrDlllYWQbBDGY1NQAhA+ddHIGbOAiEIcy3rQlYhkPKZf/HiKPPhBBwbNBRpMTHGSuBHS4IQhyJFg0QxmiAmlxQXAQi44nIENWyImMFDEP7qCCR+RoKwweVS8EzpzOsKnaUEwftPsY6oCCgChRkBJQgZCYKY/l+wNQiOBSE3CEJB1iCQICRut6MYHBeAkIEKY8SCsGCRIQmnRRy4XAWWu8CPBOHdN3DoiU5IO3nKWBiCb2yC0I73wE8IQsqBA4j9RNwI27abGQtq1BDBrVshZtgIhA8bKi6Gz4QgrCfndRMRR/Mg/4bNmlmY/4713hQBRUAR8DoCShAyQJooLobeGVwMuUEQRomLoaBGMWy++Q4kCUFwBIGWJUEsCEIQil5UAylHj5qF25is3CEJ1mv7zSKSZCqgSmUcuPs+MDIh8PJ6KDHgJUSPfwepe/eh6HXXILhJY0QPegWpBw8g6LprUezFF5Ai0RP+Vaog9pURNkGwRI0OIXEKPIXPVoLg9W8PHVARUAQKNQI5IgjMErh//36UL18e/v7pHeYJCQk4cuQIKlSQgH6Ptm7dOmzfvh3t2rU7DUgew/HYSpQogWLFiuU52HlFEAqyBeHvm+hi2G4v9nbSInlV4X+vSvjjLsQxBNEhAh6RBZY80WINfmFhiOr2HA4+8rgQhFMo9e54xIrGIEEEjsbYIAQicmB/JP66Egk/zzIEIfShBxAnloPQJx5D3DsTLBeDTUIykoTwOT/n+bOlF6AIKAKKQEFCIEcEITY2FnXq1MH8+fNRvXp13HjjjWjevDn69euHr7/+Gj/99BMmTZqU7v4nTpyIBQsW4JNPPjkNlz9Edd60aVNce+214O9jx45FmzZt8hQ/JQg5h39Ts9vEgsBMivaSb4cWVhSCcHL2fJyaNSd9eKOtR/C0OPgXj0S5j9/FgcefERfDSZSb/CWODR2B5N8lMsFYBIDivXsiedcuxH/3vRCEhggRF2MpE24AACAASURBVMPJgUNQ/LWRiJvo4WKwz+9JEiLmzMr5jekRioAioAj4MAI5IghpaWl4/PHH0bJlS7Rv3x61atXCJZdcgunTp+OOO+7AoEGDUKpUKXz88ceiJ0vBc889h1mzZuHTTz9FgwYNULJkSTzzzDMIDw83kJMUdO7c2RAO/t6tWzfMmTPHkI0gEaexX7169fDBBx8gMTERDz/8MA6IL5qfXXPNNZgwYYK5jqioKLzzzjuGsEyePBmRkZHo/FxnHDxw0FzLqVOnzNibNm1CUlISNm7ciK5du7pS83rOf2ZRDLnhYsjvFoTU1FScOHHCYJ2xbWp6m2gQ/jFaAndugyIgQTg1Zx5O/SwEIaioq1yzCWd09AGpIvqQsSlSLP/xe9j/2NOGIITfdSdCb7xBSMJI8zqo1oWI6NENJ18bi+S/NokGQSwIbYQgDBgsBOFVxFKDsI4aBMvFkD6nQhEUnzfbh//M9dYVAUVAEcg5AjkiCBx+yZIlGDVqFAYPHoTPRDnO13PnzsUFF1yALVu24LrrrjMLN39funQpmjRpgvHjx2Pa9Gno8nwXXH311ejbt6+LILRu3dos/O+99x7GjBkDvi5dujS6dOmCxx57zBCAHj16GOLB11zwP/roI7z55puoVq0aRo8ejVatWpkF/9ChQ3jttddQtWpVlC1bFg1F5c7P2caNG4fKlSsbMjJixAhzjJO7XwnCmR+cP//8E1dccYXBv0OHDigq+Qec9teNLW2RorUwG5eB/FQcNwonZ81DzJKlqPzOOBOR4GRFMq4FIZzR30/Dqek/GoJQwSEIyUmIeu4ZhLVtg5SDB5EmBM9Pnoki4taKHvcGEucvkgiGawxBiB4wCJGvj0LsxE+RLAQhqyqQxefPOfNNag9FQBFQBBQBFwI5JghchLnIc4Hljn3KlClo1qwZ3nrrLcyYMcNYFLjzp7WBu/zbbrsNCxcuNC6G1atXo0+fPoZQsNFq8PTTT2PatGn47bffjDWBfa688kqjW6C1gITj77//Nv3r169vrBFcoEgEeBytApdffjkeeughLF++HEOHDsXAgQPRsWNH1KhRw1gtqJcoU6aMsWLUrFnTWDayanllQcjveRA4nyR9JHDUjnz33XcGd4YibjQEQSwIJiuilQWRZRMq/W+0uBjmys88BIsFwCr17NYdsG/KkcNIPXIM/lHFUfGT93Hg+Z4oLfkTUvbswfE33pYUzX7wDwkWK0KMyZFQvGdXo0NI2vA7QlrdIQRhMKLGjELMJ5NsgmBFRbB5WhIiF1jPnDZFQBFQBBSB7CGQY4JA1wEXWi7a6yWsjC6EkSNH4sUXX8T999+Pq666yiweFCsGBgZi6tSpmD17ttn182fDhg3GHeAQhGeffda4FegGIAFYtGiR0SWQIMRIPDy1DlyY+GXPHSz1DIMHD8aaNWvEgvGZIQI7d+7ELvFNh4SE4KDsODt16oSnnnrKuDNoMaBFgsfTBXJGgpBHYY7DGiQjJV7i//N5i5OUyT/88IOx6lA7QuJ3rOOjSHSKNVlpDsWC4IfK40cjWtwLJ3+WTIqy0DsLtlm8pa6CyZhIwiDkwy9SCMLE95G0cxdST8Xg6ODhxvVgcQq7hLMc5V+xAqJe6oMTI0cb4WKquJEMQfh4IpLXiotB+vPcGS0JUQuVIOTzR0svTxFQBPIZAjkmCLx+LvADBgzAvn37jBWApnzu9iMiIvD2228bVwFdAg888IB5jy6G+Ph4s+A7AkeOQ7N148aNDQlghATdCiQZl156qSEFbF9KIZ5evXohWAr/PPnkk8YCQVJCK8Bff/1lyMKKFSvMe7RA/P7774aY0LJBi0b//v1Rrlw5Y/EgeaBuggQiq5ZbFoRfmUnRI1FSi7h5aHNbS2N5ye+N10hNAlvdunXxXkAxBB86YkUb2GGMdDFUHv+6IQgxvyxDlXfGokggXQyS7+jYcex/ebC4IF5HSswpHBow1EQzVJ7ylanHtLvNXVbtBtsi4YgfrdTL0oQYFCF5YDIl0TZEjR0tFoSJSFq7zk7W5NY4GDIiHUssmpffYdXrUwQUAUUgXyFwVgThTHfAXSYXkdBQqUZkN5qluXDTJJ3TRnJBy0WYhML9V+M5T56MFhdHMdd5snusM65nsSZNlHQ62iSCJF20DL300kvGRbS9RVskbKNIkd4FJ9+BH6qMf00IgrgY5sxHuCQ2oobArPAJiYiTxTzs2muQJnqDhNXrJMwxFFWnT0b8nxtxsPsLTtYEGVMsDams2GS5DvyKBlqCR54sJdkQhWLduyD+x5+Q8reQStPPJgiGUFjWhxKL5uf0sdP+ioAioAj4NALnhSAUZEQzWhBqRABNK3nckbX+nd48N/7Z6LP2IDB3rxRrKiC1GBj9QevQK6+8YnQI/Jf5MNj+uP4WIQg7XIux0RkIBlXHjzEWhOiZEsVgQiCl2VUaXWmZ7cXcP6IYqnz3FdKSEpHwx0ZroZfuybv34MSHE+EnOoTQm5shtOn1CKhY0ZCNFNHDJKz8DXE/zUDa4SMul4V1rJ1R0SYJJRcrQSjIf5d67YqAIpD7CChByIC5J0H46C8p+Szlnu1NsVdnh56EkhII8HKDglHNkZoQhrhSHEotiKcl6I8mtyBeUiCbMEcPt0CVN8TFIImOomfOthfs9HkSMpKEsCaNJJpBkmUZIaPlr0g7ES26hB0oIVYCP7FInZoyHYnMjSCEJVCEj2Gtbod/pcqIfm0MUrZsdUVRWMEUbktCqcWS7lmbIqAIKAKKQLYRUIKQASrHxTBEFu5A2fWekBpBmTUuQMZoQOs3f/ewILhe27vgrGQF4eKSZwXHnlL7Ib/nQXB0BxkzaBKC3xuLBWGr1EgwgkKT3NgszhUG9TN6gyMfTUIR1rb2EBtargju8u3dvr2gW0YGvimuBclaVUQsB6VffhGpkqTr+Pi3pZBTnPsYWgdEjxDWoR1Cb7oRx17sjzQ5nyN+9HQ3lF6yMNt/FNpREVAEFAFFgF/DBUEVl4szlSIL/eCVQGwSEBxgkQDHY8CFXtYtpFlrm+t3vnT6ef7r+SaP4zE81rN/kqybAX5ppuxz4PkwVeQCdhsa0cVgp1p2og6ELTC0sfqEN5EgIZBpokFxgMyYf8IRNppLdfBJTMLhISNQtF4dlOzWGQe69TaLv6ETJBr2eYrWvljSPP+DqH59kCyRFDGffu6OlvAgJGWWLcoFJPQUioAioAgUHgSUIGQylzFCDn4RfUCMFG5ydv/WIma/9rQW2JrLNG6Q5Xfn39P6WhZzawz+n90/WI5pVFHSCAe6Py9oj9f6a5shXkiACS/kxbssCUUQVLkSQmrXhJ+/sC0u73bJZ2uhJ+OyxAmOmNAhABQgxi5dgVJdn0XKqVic+OAja+G3WQSrPYbf0wHhd7bB4c5dEVTnEhR78F4c7dLDKgttzmXnXZAXZZctLmiw6vUqAoqAIpCnCChByAR+iuZ3ifZgb6zbjeAyI3hjujzMEqWCgQuLWzoHh0B44xS5Oca6hjcZCwIxcrQJ1g7fcTfYJMAmAlaeBOuG06VFts0HloXA+qy8CB1PSqbFuIW/IOS6q5Gw/g8x78Sh2L13IaLjXTjc9yUk/70VgVUro6SETR669yFIPm0rosIeny/KLVeCkJvPhJ5LEVAECj4CShAymcNvJFpuhUQZhHNXf57nOFasFCQIT9Q2SQMLZFt3bVPEb2EmRcHLlRDJMg7QnOBYB1whkE6EAT/LUOApnXBRxio/ajhiFi1BzIKFKC0JkrjoJ0tirGId2uPAs12QIomVeOIgyZBZ8pWBOPjQ4yJgFO2C4waySUK5Fb8USGz1ohUBRUARyCsElCBkQD5ZTP+9lwHP1QUuiExPELJKYZQZiWBfuicSJDNjOgGjx/mCRKB4JB4YvgYYcY0IFoWQFMS2tqEQBBEpWuJEy1pAS4J7kc6EJHhYF7IOgfRD1P0dEXxJLRwa+Ar8oiJResCLKFrzQuzv3A0p/+6xrBRyvvC72yP48ktxdKAkXTJJlCwLhKNpKL9yaUGEVq9ZEVAEFIE8Q0AJQgboKRrsJQRh1LVAUVnAz6VtlOSCEzZlPUIFcS/0qW+FOQ6TqIlwd/2jczltrh+79hqbINBiYHIa0UVA64CtGfDQJFikwcqT4AqJtKtAGqKVIU9CYJXKqCAZGQ+JYDFh/e+SJEmSbUnCrTRJnuWM4V+qJMqIe+HEhA+QsHS5Oz0zLRS2JaGCEoRcfy70hIqAIlCwEVCCcB4JwhpxU0zcnPUDEiVhjoxeIEEYLv+GyeuC2NZcfaO4GMSCYIQUHgs/3Q1c83lT6UiCFYVg+IATlWCTBPOeJ0nwl1LNYh2I7HAnDr/6upVESdJyU7ThF+CPgAoVUbL/C0j5ZyeOjR5rnd/RNniMVWGVWhAK4rOl16wIKAJ5h4AShAzY08XQUywIQ2TBLn6OCzaTLv151BY6ep7HFimWDQHKSDbq3pIHgS6G0ALqYljd4AbbxWCJCz2jElwFmdKRBGsRz5gXQZb89Au8QzZIEtq1QYnHH0HCpr8Ru2SZhE0mIuTKyxF6YxPESCKm4+++J7kWLCdQutoNZgw/VPxNCULefc3omRUBRaAgIqAEIcOsMYJh2GogXrQDlaX0A3e/2amf5BmBkJP+B0WDQJ3CIHExBBRQkeLqq25A3JZttkvBJgiuOgjuiAS3JYF2A8f87+FuMMd4RDxkcDcwk2Kxls0RKnUd/KR4V7yUfD71/VSknjjpFjs6FgknH4MdGllptbAwbYqAIqAIKALZRkAJQiZQMUnSzJ3AtpPZxvGsO9KK0LY6EMFCh+c7ZOKsr/K/D/ytvhCErUIQzO7dciowT4GTAMkYC5zSzqdZEtKHQFrugSwsCYZA2YSDv3mEMTr5FSzVg0cyJbt/ZSUI52n2dVhFQBEorAgoQfDizL744osYMWKEF0csGEOtqn+9ZUGwd+ueNRDSuRuMzsBiQU4mREuD4CYJrsXdsR4YT4RlbTCLv6MxsAWQ2SUJVdauKBhg6lUqAoqAIpBPEFCC4MWJ4GLli5mrV17RxNIg2Iu3RQBsgaLLkmALEj3yJFiLfRZ5EmxLwn/mSXAICc9nj5s+QsIdxVB17a9enGkdShFQBBSBwo+AEgQvzrGvEoRfSRBYSdFOfMRF2sqR5CYJRlpgClt55EkwfdKThNNDIN0uhaxKRTuREiQJLheEK5rCIglV1ylB8OKjrkMpAoqADyCgBMGLk+yzBOHyxraLwYoYMP/Zu3uGI1p5EezQRo88CSZUMVskwcm4aPkmXDkUDB+wx7e8Dx71F6zzOS6MauuVIHjxUdehFAFFwAcQUILgxUn2VYKwggRhs1gQ7ARIxoLgCAjNou0mCZ55EiwikbHAk9vKkFkyJbdGwV78HZLg6W5wijTZ7g2evfqGVV6caR1KEVAEFIHCj4ASBC/Osa8ShLV33I14SVRkhTHacQTGvWCHMLriG61IDWvht4WJjhuCfcxbNmHggu9KpuRYDSS1pZTGdsSKVsEnO5rBPhcvwariaL9vuxoqz5jqxZnWoRQBRUARKPwIKEHw4hz7KkHwIoQ6lCKgCCgCikA+QUAJghcnQgmCF8HUoRQBRUARUATyFAElCF6EXwmCF8HUoRQBRUARUATyFAElCF6EXwmCF8HUoRQBRUARUATyFAElCF6EXwmCF8HUofIFAt999x327dtnruX+++9HWFgYPvnkEyQlJeGyyy5D48aNsWzZMqxduxbFihXDQw89hLi4OHzxxRdITEzEzTffjIsuuggLFizAli1bULRoUTzwwAM4duwYvv/+ezNumzZtULJkSXz88cfmdY0aNdCsWTOsX78eq1atQqCU9+a5/f39zbgJCQmoX7++Of+vv/6KjRs3Ilhqc9x1113ms2+//daMw2u78MIL8cMPP+Do0aMIDw9H+/btsXPnTixatMj0adu2LUJCQjBlyhRzvezfsGFDbN682Zyb495xxx3mur/55hspJJqMK664ArVr18aKFSvwzz//mOu6++67zTlmz55tonluueUWFC9eHLNmzcLJkydRuXJlXHfddebcK1euNH1uu+02M+6MGTPMdVerVg1XXXUV/vjjD/z9998ICAhAy5YtDdZz5swx13v55ZejevXq5jyxsbEG85tuugmHDx/G0qVWQbJbb73VYMZ7jI6ORtmyZXHNNdfg33//xbp160wfzgvvjedm4xzVrFnTfL53714EBQWZPrz2JUuk3Kw0jlGiRAksX77cjMvfGzRoYOaS9+Qn4mBix2vifBMrzuuVV15p5n7Hjh3mvm+44QZzTxyHrVatWqhYsaKZb2IYKjVXrr76asRLSXfOL4/hXEdFRWH16tXmmiIiIsw88L7/+usvMw6PCQwMkHFXmIR1VapUQdWqVbF161bs37/fYM3r5bh8XlNTU1GnTh0zT3yGTpw4YZ4FnovncMa95JJLzPk437yWyMhIc827d+8247Jx3nhPPIbj8n5Kly6NPXv24Pjx4wiUMvUXXXgRUlJSsG2blXW2XLlyZlyOw2ePzxGv99SpUwYH9ilfvrzBlefhaz7DxDcmJsbMP4/h9bAPr5+N88p75d8hr4XH8T1iwjnhaz5bznrlykZrjk7flCBkAsrZvlUYCQL/+MPCwxAUeI6lLc8WVDmOX578g+HixD8OUwnyLBq/GPiFUqlSpbM42jcPadWqlVlgtSkCikDhQ8DJ/JvVd6oSBC/OeWEjCGSkZLSvvPIKnnvuOS8ilb2h+PByl/HMM8+YHQ3Z8Pz58w1jPpv222+/4dVXX8Vnn32G/v37Y+TIkYaBa8saAe5CuKvSpggoAoUPASUIuTinhY0g0KzJBZW7bpr6aLZavHix2cFzsb333nvxyy+/mIX7zjvvxJEjRzBt2jSz43/wwQeNmdMxjXIaaLKkRYJ9aP67/fbbzWuaNGn+5PH33HOPa0HiOJdeeik+/fRTY1rlw8wxeQzNyDRF8ry0KtBEOHPmTGPGTUlJxiWX1DFj0qRL6wPH5WJHEyrvo0WLFsZUzmvi9U+ePNmY4WhyptlPm4UATZm03JzPRvxpniUJzLiToemV5lCaUDM2mmtpMuUzkdnn5+OaHTOtY6I9X+fgfefmfZ2P+9AxCz4CakHw4hwWNoJAn+6wYcMMEaD/lb5h7t7fffdd41P86KOP8N5775kKlv369TMLNhdZ+ve4S+eC7fg0SRjoY6Rf+O2338ZPP/1kFuZHH33UWAhIAsaNG2d8biQlbPQD0idMH7izAHDBov93yJAhhgAsXLgQkyZNMr7Fzz//3PhL582bh9dee834w/kZx6VbgWSiV69eGD58uPERs1+9evVw7bXX4tlnnzVEgj53+p65AGgDmjdvbvzd2W1c6Nmf+JGEsdFXyvdI5KgtyEgCOA/33XefmUvOrdMOHDhg5qdHjx7o27fvaZdADcPTTz9t/N1169b9z0skmaAegAsvG33InufK7v0dPHjQnIvPy6BBg7J7WI76kSjzvl9//XXzt6dNEThfCKgF4Xwhm8m4hYkgUDhD0Q8X7qlTp5qFf9SoUYYkUGRDAVTv3r2NOIkLLl0R/PLn4s9jSRJICOim4PsffPCBEXSROHC3vmvXLiNe+uqrr4w14P3338fEiRONxYHnJJY89uKLLzZCH4cg/Pnnn2jXrp0RA3H3SHHVSy+9ZI7jOLR0sOw2r5XkhT+0FNA1QTcJr5nkhESElgheK4VgmzZtMgSBQiyOQQGWNqBJkybGSpTdxjmhgJAEcvv27UaIRQ1D69atMXr0aEPQPCuecp5//vlnI9jj8+Is9HyfBPHhhx821iiSOzbPLzQ+O1xA+azRwpTxc89rpjWKwjE+U7RU0JrE55IiPb7O6tiMX6AUkJF4duzY0QgTM94LhWy8Jj5PtFR5NvbN+B3hkCVqPfis87klCSY553N8/fXXp7s2vshIsDJeQ3bnSvspAkoQcvEZKCwEgQ+Ns8vnFxe/sMaMGWO+9PhFTIJAVwO/7EkQ6MvnDp0LPE35VGM7n/GL/fHHHzeLOhdp7vy5Y6RKm19+XNS//PJLQxBIDLjLcwgCRYVUGXOnSFcDr4skg24Bqsy5W+V5uet/4YUXjIqbu0leDxcjhyDwunjOjASBOzWqsalSpkqYlgoqrNesWaNuBvvvhmSKrqCcNC7ctAjQasC5Iu6cA2LMxfiNN94wkQ90Mw0YMMAQMhKECRMmGDJCVTk1IlxgSf5o7WGkw6FDh8zzw+eRpIG7eYcgUHlO0jl06FBDLPg+j3EWU4cgPPbYY4bQcvHlDp1WqDJlyhgrExd3Pk+8JirmSXI4HskxiQ5JJaMpaC278cYbDenhs8r7ZGQBr4l6na+//hpPPvmkiS7gM8q/F5Jt3jP/Dnj/VLaTVHMsktunnnrKnLtDhw7o06ePuX8SkEaNGhniNHbsWKO+5zl5b7S+ERteBy11JLfEmQT3bEW8OZlj7Vs4EFCCkIvzWJgIAr+Y+IVNUyd3hXQN8AuVX4KZEQSGcfGLjLs5fsEztOitt94yCwR/aAEgyXj++edNGA937m+++aYxO/NLNjOCwIeXBOLll182YWL8UmQ/7rK4iHM3SFMvx+zZs6exavDcPBddDHSFkCTQzTB37lwXQeDv/GKl1oDXwD78kuX8UYMwcODAXPNp5+LjmWunomaFIXPcBb/zzju44IILzGLI+eHCR/JG1wDdVlwwueiRIHAHzeeNFiaSPC7G3PWTbJIAMlyPLi4+Twynq1ChgosgcIHmay6QDK2j1YsklOdmcwgCCWvXrl3NddClQYLA53rw4MHo0qWLed54LXx+eM10m9HNwvdJHulW43n43JEAcLGmlYOLNxd3jsNnk79zHN4zyRF1HHRl8Z74rJUqVcqM9cQTT5jnkKSFxJohinz++LyTSJCgExP+nfB6SIJ5b3TfkLSQcPFZ5nu0vlDUS+2CNkXAGwioBsEbKNpjFBaCcC6QcGfEL7z/Eo1xJ8g+GU2wWZ2XRIHuAC7+TtQBX/PL0RHQkXBw18eFhf5mfuGeqXF353yZkmyw6mREMRUoeuJGUkcNQE4a8eciTssALTpczOliIrnkHHGn3LlzZ7NAck6pL6CVggSTLiy6jbgwcifvEAQutnQJkNxxYWbzdDGQxFKHwt03SQQtBLQskYB4EgQ+n2y8Rh5PKwNJBJ8lkkySSf7+v//9z+z6SZJJALj4Ug/jSRBIgGjd4E6/W7duJhaepJiElS4MWh4eeeQRl/WEBMeJ7effAPvRIkfCwOea+DAXBD8jRiQIfPZJRugK4fWQOPAz5kogQSCpoRaCuRpo8SCGPK82RSA7CKgFITsoeamPEgQvAXkWw3Dx4Bcrv0C5M2VCEW3njkBONQjOGbmgcdHnvJAo0B3Avw/u7rmAcYfN13QhkRA4BIGLMAWEJASeBIEWLe7+mSiH2pWMBIEEjztpLvhciNloKaD7yJMgcMEmeeFOnWJYmuVJEGjVoluE10RLBs9Ha8T48eONuyAzgsDPSDJISqmNodaCugsu/BRmMjzUIQi0qvDeeT6SAJIm7vZplfgvgkB3Ca0ntETwvnlvJMUkxJ4EgQmgSBqUIJz7M+9LIyhByMXZVoKQi2BnOBV3hE5omEYgeG8eKMbjIpjTxgWXCz91B9SlUGfCRtM4zeR0M3AnzC8oWpIckWJWBIEuCY7HRZILME303HXzOPrxucumm4FEgws6Q2cpPnWSYnlqELigk6DwOriwUyPDxZ0LPnURtCw1bdrUjMfrowuEugJaLjwtCLROkPhQ0EpiQtcXrRe0ONCCwfOzP10MDkEg+aG1g9YNui4o6CRB4Bh0XdC9QG2O42IgkaDlgO/RQkHc6MYgaVCCkNOnUvtnREAJQi4+E0oQchFsPVWuIODphsnJCakXade+HRbMX2A0JnQZOJEJ/J15NPiargbu6J0Fm7t5LppcXBlxwt08zfdcOGmV4I6ciz134hTp0cxPvQt3znRn8HOa9+m64K6bhMOxIHAsmvEpdPz999+NroaaALqjaKJnSC6viYJB6hIoemRfusNIkmhRoKaCizwJC60rnTp1MoJDEhdeH0kqr4H6hu7duxurFsNvaVmgBYGCW35OUkQSQJcK9Q10wVBrQR0CRY+0fFAHQbJB/IgTv8yJE/vydxImXgfJCNNXM7KHpEddDDl5Un27rxKEXJx/JQi5CLaeKlcQYLQIBYfebPxSoi+eOpXs6lCc89NSxB8neRKJCJujeeHu3Em6lNMsmSQWntdEUkJXA60MXLyZ74M7d8/G8/NeeB/O+fiec42ZRRTw+vh+RksXr53nz0y/w2M4Js+jUQrefBp1rP9CQEWKXnw+lCB4EUwdKl8gcLYahHxx8ed4ERQfMjqAjbt+7ug1y+Y5gqqH5ysE1IKQi9OhBCEXwdZT5QoCvkwQCDB37mwaOpgrj5ueJJcRUIKQi4ArQchFsPVUuYIAowaoCdCmCCgChQ8BJQi5OKdKEHIRbD2VIqAIKAKKwHlFQDUIXoRXCYIXwdSh8gUCTATkWZEzX1yUXkS+RyBeamIdjc78MstEAQePefcWgqWcRgnNcZZjUNWCkGPIzv4AJQhnj50emT8R8HUNQv6clfx/VRu2AiMkfQYXbqcx4CQhGXjreeD5N0XXIQVTJXnpObdEkYlcIdGsve4556F8bgAlCLk45UoQchFsPVWuIMAcBEw7rE0RyAkC67YA//seeLOL+6hte4AhnwETugHPjAOGPgJULpOTUTPv+/5PQjzEYtH3vnMfy9dGUIKQizOuBCEXwdZTKQKKQL5FgARh3BTgY4+0EZv/BV780E0QXnsaqFbu3G9hvJwnJk4JwtkgqQThbFA7y2OUIJwlcHpYvkXgs88+M1n6tCkCOUFACUJO0Mq7vkoQchF7JQi5CLaeKlcQUA1CrsBc6E5CMj5bJgAAIABJREFUgvD6ZNnVd3Tf2q5DwAcz3BaETq2AciJYPNf2/RLRM/ifbkHg4sc6F6wLwuyUTG3NdNm51ZjOm+mv2ZhgiynFmT2T2UmZ1tt5n3U/cppR1Fv3oATBW0hmYxwlCNkASbsUKASUIBSo6co3F/v7dmD0N5lfzv86Ad3fhdST8N7lUqTYvUP68ZjymmnCWXODFTDXrFljXn/44Yenpbn23pW4R2KNjGXLlpk6Hazrwfoja9euxfvvv28ig+rVq2dqdDCF9o8//ng+LuGMYypBOCNE3uugBMF7WOpIioAiUHARYGTBSdEFZNYiw4DjMd69N0ZERIRmThCmTZtmyoozKyYXaxa7YvVOVsXkAjl06FBTKXPnzp345ZdfjJWBFUO5mE+YMAExMafwzDOdTHGsTz75xCz2rNrJsTj2E088YQp3sejW5Mnfyvv1TaGuV155BaVLl0aPHj3Mhb388ssoVqyYOSfL0bMA15EjR0y1zm3btnkXkGyOpgQhm0B5o5uvEoR/Oo5G8r+HDYTEQP6D/D+KSAwT/+dnxzJZn1lxTc7vRfzk9zR3X35qjnPGcY7hv/wfxza/e4zh8ZodXH3sY9nX7wsPObU3JttHxuAXGKsQalMEcoLABlnvRkqYo1j23U0sBqnyM/45oMtb/I7gH3FORs28L8Mn64sFoWeGMEfHguAQBB7NCqHcub/66qum+id3+KyAyYWbhOC9994zrgBW3WSlzDfeeAN79uwxFTM//vhj3HrrrYZE3HnnnYYUsIgXK2yy+mfXrl1NRc9hw4aZUtwxMTHpCAKJBYnHddddZ6wY7EMLAkuqs85HfmyaKMmLs+KrBGHbHUOQ+M9B96JvL+J+1krtWrDTvYZfeiLhkAqHCJA4OAu861/rPUM/HKIgv3BcizTY5CMDweDnftPTV+Hz4rQX6qH4hUg/rjZFICcIUIMwVsIcxzzjPmr7Pos0OGGOL4v2tVKpnIyaed+PZwFSCPO0MMfMCMJ9991nCm9RGxAaGgqKcEkWWGK7QoUKxhrABX/UqFGYN28ePvroI5w8edJ8v3zxxRdiSXgGS5YsMcLdxx57DDfddJOxJDz66KOmmuezzz6LHTt2mDLdJAKeFgSWH+d4LOXNxmNYKpzlz1muPC/KdKsF4dyfv2yP4KsEYWurIUjaLgSBS7e9ZaDVwHPHzxXdWcjZUejBaeTBLP6eRMGDBKSzOFhHn0ZIPEmCOZcHUfD/oU+251E7uhFQDYI+DWeDQH6IYshIECgOvP7667Fp0yZTorthw4YoVaoUVqxYgeHDh6Nq1apmYWcVz/79+5vFf+PGjfj333/x0EMP4csvvwTzgpA4PPjgg3j88cdx4403mlolAwYMwNdff43PP//ckA1aEkhAHIKQkJBg3Bx0b/z6668uFwP1B5deeikWL14kljovsKUcTpYShBwCdi7dfZUgbLldCMKOA2Zx9xN3gWU1cLsWLMsB35Za97aLwc9f3pC+Gd0PbheCTTAyWBI4P4Z8yFhZkwT2sgiCQ0oCflSCcDbPNv2qd91119kcqscUYgT279+Pli1bYuDAgWjbtq3Ldejccn4iCLGxsaYaJ036I0aMAKMGSB64sHfv3k0W/4eNDsGTINBN0LdvX+MCqFatmrE48G+BegIKDEkkaEG44YYb0KBBA+OuuP/++02EAt0VdFG89dZbRsPA19Qc0GJAN8SYMWOM1YKRDYxeaNOmjbFY5EVTgpCLqPsqQdh86yAk7qCLwVMfIGTAU3vgaBI8LQRc/I27wHERGLOAS3/gRxJgsYDTtQyOdcB2N1jEI4P+wBlbzhP004u5+CQUnlPxC8TRjRSeu9I7OVcEuMDSt9+nTx9ccMEFxofOHbLzrBgXw3eSbvkJ95l27LdCHx0XQx/RDFT0wqb5s7mibRAdQnYzKXLXTitCixYtjPWgUqVKWcLBEElGQGTnb4B/K05/hlUWhqYaBC/Ooq8ShL+FICT9c8C10DsuBO7gPRdtTw2CWfyDA1AkKcVYEk4TFnq6FxwSECRS5ZRUD1JhWSVsDmF+d1wUlovDtiTI4EVnKkE4m0edX/wUYmlTBDJDgEI8CvTGjh1rzPA0tVPUSoIw9PPMMXMIgjfDHBvUzD5BoLmfEQTc/dNV4MtNLQi5OPu+ShA2tRhouxg8dAayVjvuhoxuBL/gQIRcXQuhDS/CiQ/nIi06Np37wdIyuIWHxsIQ5I+QW680suikxZJ8hMe4+nm6G9ykwHIvWFaNojP75eKTUHhOpRqEgjmX3OHTh75w4cJcvQH63Lkrr1j5ApyKzfzUkeES5njKu5dlwhwlfFJbzhBQgpAzvM6pt+8ShJcliuGQtWM3Czv/IUOwQxiNQFFehhVFyGUXIPLBGxBQoST8S0Vg/yNvIHmnHGtrFNKTA9tlQS1BaDAiXmoP/2pS3SU+CfE//IbkJSQKcW6iYJkPXBENnjqIkJ9fOqe59dWD27VrZ/ypPtcSpFbxSSkecHANcOh3IE7CeIvIKlSsPFD6cvm5DAirICn8gvMlNCQIFOFxd0+Sd74acwssX74c7du3N5kKv/vuO1SvXj1fWBCSJbSBuQ08G33+FStWTOcyIFZ79+5N52qIjo42fagfKMxNCUIuzq6vEoS/WgxA4nbbxWDrDjyjCPwlg0lYw1oo1vxyWeiLImbBH0jcvAdlhj2IQ90/QtIujxBJWgVcOgSPfAdhwSj+Qlsk/LIRSExGcNN68CsRjqRftyDpl03AMQlFEj+ksR/YJMEV/ihvKEE4uz+EuLg4hISEnN3BBe0o2rxP7gbWjQe2fyyMVu67qCwQEQ2AUCEGaRJLFy0B/jFCGBIlCxCf9briuqolzvSQEtaDl0/a+SYIXFgo3GNcPxdhVvxs3rw5goKs+s50MYwRDcIAjzIe8meOt6a7NQjd7pRUywLbubZvFllTkVGDwBDCe+65BydOnMDu3buNRqJ27dqGNDEk0Wl8xnntzG/gNCZE4r0wLLIwNyUIuTi7vkoQNjanBUGiGGT77kQsmNwDYjEIE+dg1F2N4V+sKKJ//A0x8zcg9WQ8AssUR4X3OuNAjw8tC4JLxGi7BTzFi8b6EGIIQvysdUhauQVFigYg4JIqCG3XUIhCGBLn/Y7k5ZuBI5bt0tMSwWsJndU/F5+EwnMqfskya1yhb8lSL/jXkcBmqUNcTBzaVw8HyoilIFDs4X5iOXAWf5KIFEkTmHAc2DUH+K2vKOTk9bWSO/hCKS7g51548hKz800Q9u3bhyuuuMKE/dGfT5W+p5AvP0QxOPgzxTHDGB1LGJ/piRMnYsuWLSbvQa1atUzOAkYmcMF86qmn8NVXXxmCwCRGDF/8888/TVhjjRo1siVYzMu59+a5VaToRTR9lSD82by/bUGwRINsfkGBKHH/DSjRqgEOvT8HcSs3i9ZA3AG2tiBACELF95/DAVoQdloWBHc4pBPdYCdTMmQjGJEv3Im4WWuR/OtWiwTQhVE0EAE1yyP4ruuEhIQgdpiYwx23g0dERNjsl704074zlE9oEOJksf/hBrEMHAVu/kKen72y6Iu1IGOrdpOQhwz1iZPE0b5FnrmlnYFqUgyg2XuQ7WmePyDnmyBwfCYQKl68eKb3mp8JAhMTkQxceOGFJpLhjz/+QJkyZUzuAlpFqKGgRYHuCJIL3itDGhnuy2yLhcntoBaEXPxT9VWC8MfNQhAkhslJjMTl3b9oEMo8fweS9hzBianLUSRZwuVsTQJ3YwFlI1H5g+ewv/sHSN4hZd48Qh3daZZJEGxNAwlCn3ZiQViDxBViQbBDH82YHK92JYQLgTjV51PgKDOfpc+TED5HCcLZ/CkUeoJwSmLvpsvCH15dyMFEcTEIOZgm+oKIDFX/Eo8IOZA+d0ravoyNVoUjfwOzWwPFLwVulSpFeRzmdr4JwpmepfxMEDZs2GByFGzdutVkRaQl4fbbbwerLx46dAjNmjUzVgRazug6oTsiKirKVGCkZYF5FApLU4KQizPpywQhYbsQBNv3bwiCRCqUfb6VuB724/j0VVJvIc34CZ2cBoFli6PyR11wcMjXSPx7j5ht0xAgLonUmHj4CxngaySnwD88GGlS9YWCxshurRArYyX+Kq4EWhU83BABF5ZDsf4dcOqFT5F65KRljfDI5hgxd2AuPgmF51RMAFOYvhDTzUy8CBF/uFn0AyI2bCE5gCk4PLBBCMJ1wFMZZPYxQmK/qgG0FIJQ8drMJ/iEiBp/ag6UbWxZEvJQk5AfCEJ+CXP0dDEkJiaazIVMhNSoUSOTJpkiS6YUpxuBpIF1Fhy3ybvvvmt0FszAOHnyZCPGpMixsDQlCLk4k75KEH5v1g8JphaDHZ5IHiAagXJdWhttwonpK02VFke4SIFAYJlIVP20B1JjE3BSPk/aexQRt1+FE5MWIKJjE6TsPoL49f+g+P3X48TbPyOsdQOEXF8Hx4d/Z4SJTr4Dx5IQcJEQhJfvwskXJhkdQsYQyIh5ShBy8U8h/5+Ku/4lEvq6e4ZYBUScFhxhXTMJwvRGwJMnT7+HWSJYS5O8HS2/zvr+DoqAcbq4K67/BLhINAl5RBLymiDExksAiHhuMmtMjrTHqu3mtRYi2siyWQgeV69ebQgBNQjEhcJDpkGmi2Tu3LkmCyJJMC0Hhw8fNvUWmH2RGgT2Y7ZIZktksSXWJXGEmF67+Hw8kGoQvDg5vkoQNjQlQaAFwdYMMMJR/rjKdRULgkQ3HBcCUIQJjmz9gSEI4mKo+nFXHBj0JRI20+ebCn8JZUw7FQ8/sRoUoQUhKdnoCqhdCCgdgeLdWyNu6kokiAXBkBEPC0LgheVRbEAHnOz9KdLEgmARBLkekzvJD8WVIJzVk04RF/PHF7q2X8IXfxBLQavlIqW/wn17xoJwlUQn2Km5I6oBlzxsCRUP/glMlc86SJ8SF2UNye+C12ohH/dKxAOjIPKg5TVB2LAdGCVGmczaOJFrdHtbuJb8iXur1RddaXeRgGS3sUopXQie0QwkBXxN7YFnYygnwx4LY1VTtSBk94nxQj9fJQjrm72IhG0Mc7REisa6LxaE8l1pQTiIY9N+lRBEpuy1RYw2Qaj2cRfs7vK+aBAk/skzTbIT0WAWeTvNcrFglOzbHrEz1yBhhRAE08cdEkmCEDHgLkT3mmQRBE9Ng4wROX+wF2bY94YotBqEWRJ/lyxb3FunpY88oNth7tPi4hILQopENhxfJRYG+YmSesJc0Wa0l7zdIsy7RcIgs2qJMcBnkr63vuTXv+zJPHlo8pogUIMw+lugkxhRnLZfNKBfLnCHOT4g0o9SmWscc4TZzzI9sqfIdqrlHA1eyDsrQcjFCS7MBIFJRxgvnJmCd11TIQiiQWCzcg9IHQaJLigvmgFaEEgQaCGwEhdZUQ5BZaJQ7ZMu+LfLe5KmOUOpaOnjHy6WA9EjWFICGVN0CSX7dUCcEIR4CWd09A4OEQioUQ6Rg+7GcRKEQ1aSE6uok5VLIWrhkFx8EgrPqRjmRWFWQWn8wuNOkKbhLPPnn5S6w1+J4LCNrCxl6mV9a6niTvhRCEFRCfNs/pEVNrNrITCnHXCfbJFD/iP8c+NnwBoJrb1HknkF5n4eifxAEMZNAT72qLK+WSQaL37oJgivCQ+rliEo5Gyes/FynhhJS5HdWgxnc47CeowShFyc2cJMECjkYRlUqnpZfSwgQEyudlt3Y1/EbxMXg1P/gFEFweJiIEEQy4InQXAW9KByUaj+SVfsen6CIQiMemCdBWoVAiuVQJkX2uHQK98ISZBdnCRGYphjqX6WBSEdQZBroCshUDQIkQPvwfGeEw1BMCJGx6UhfUouGpqLT4KeKq8QIJGl+Oy2227Diy++aKr4pSMKtAL8KTqVPyXfwd2rs9YIMC9CjOT2YL6DH68Xt8J6iWyoIs+nkIaptwCREq3QdGzWx5+SY7+tK9YHIceRF+Q6HEoQch3yAnlCJQi5OG2FmSCwAhpJwgMPPGBqqDPTWN268gUoba0hCPus3TpDFeQ7mAt+hW6tRZtAgrDC7WJg7IH0owbhgkndsOs5UXvLAWWFEBx5eyYS/9qNiNuuRHjTS3H4tSko1ac9TkmCpYR1/8jv7RAzgwThb7cGwS7pHHBReUQJQTjW8xOkHaYGIb0LQgnC2f0hsLTtLbfIglhAGr/wWHKXQjOW6nUIrau6HgnC/EflbiTPwU2yy8+qrfkfsP4VIRGSufMnCV8sLxg0EZLJ4/+ZCSyWMe6XNL5ZpVomwfhc1O6NRI9wYZtcR08JQq5DXihPqCJFL04rFz7WSS/MjeZbkoPRo0ejQ4cOporbzvajLAsCd/O275+Jkir2aCPvC0GYKgQBThVGolMEtCBcMLE7DggJKHHfDYj/fQeOfDzPHF9h9CM48eUviBMxYliTOijRqSWOT5xvfo+dudpYENJFMVDTIAShxKCOONqDBMFyMTgWDf5earF82WvLMQIFVYNASwIT3/Ts2RPVqlXD+PHjcfHFF8sCL1aq6S2ACrcCDXpkjkfcMXGWi+pNrFmo0x2ofKNoD4QgdJQEXRESEpkk9uyvJMtizaeAa3pmPgaJxPctJSRSIhoa5n6hsPxAEF6Rao7FPQooSdQyRIPsKvdM3YC/F6oiiycSl0sEqroYcvznbTJHmm/kLKJtlCDkHNMsj7jkkktMmIwvNCYUYWOK0hHxl8H/gIQWOpEFjBsIEYLQXWonCHE4NtXWIJiIAksTEChJ2GtM6o5jU5YhqkMj7O07ScIad0gxp2ooN+he7H76bREbnjL1FiqMfRyJW/ebnAgxM35zuRjMgy3uBWoUAkSkWHJwRxzp/rEcZxME+2xf7VuHrv9IOJs2n0WALrFVv63C5fXENfCdRC9c0kUW/0zy7PMLc73UYvjrHVnYxQ3xyyNAO4l4mC7JcWo+AVxlE4LNkj1xhcjx75Y6IMFZKO1mdwICiuLTPfVNfH1uNn7xf/jhhyZTYNWqVb1y6quvvtrkC8hOixad5lYJTsqs1akGbNxhDI1ea8VDgRqFJz2B13A500BKEM6EkH6eIwRY9GTEiBFGuNa9e3f07dsX6258EfFMlGRXciQFYEnnSj3uRPzWfThKC4Js3Kw8CRZJCCwbhQslD8KuHh8g9MoaiLrjauwd8DmKSy6EAKkHe3D4t0IyglC2310Sep6K45IfocTTLYUgrELcstNFioxiKDnkXhzp9pFlQfAsFy2/l/llWI7uUztbCPz777+mSl9Ba7QgMGa9R48eZoGkBYGFeiiWxWRJdFSnm/zce/ptJUrq5K+FRNTtJT8PAd+IpYBkgsmUlsmCf69kTKQ4Mf6EWBkk1PHaN4CLO2YOz+xnhSAE4rU1lbF+vWgYCnBjtUMmGfIsaFSAb0cv3UZACYI+Cl5BgF8On332GXr16mV2JRMmTEBEhJVc5rfGvRHnoUEwkQeSB6FyDymuJBaEI1Mk1bLsaFx5EkyYYxQu+qwndnR6B4m7DyPy1vpIPnwCpR67BYfH/4T4v/5FgORFKNbiCsQs+sNkVSzz8j2iR1iF+GXyJS3N7UYQwiH1GEoNuQ+HSRBMFIMdImmiGIqg7FIpvqMtxwjExMQgLMzDTpzjEXL3AH7hMXUuNQjbtm0zGoS2bdu6Tah0MUwTd0Fl0RXU73r6xa0XTcyG0RKlIJYB1lTYLCUJlz4uxED0BlPE8lBbrAaXy8LPtv594PcREqkgz2egbGE9Gy0RUyXGr5ykbL624Kf5njVrFl555RWfIQh00SSkxIs+Og7JUpcjVcSpVkSVFInzD0TRgGAE+hV1RWXl7lOee2dTF0PuYV2gz7Ry5UqTn5wkgTsxzwQjKxv3MpYCV+4BCgdFg1CFBEESKB35XpLRmDwIVggk/9ACRYNQUwjCP8+8bbItcscfWq8aou5ujP2DvzKaBcchYSpDSh6EMi93RIwQhLhl8uVthy86eRKCSBCG3odDXW0LAo9moiTb7VFumXyRa8sxAhQoUqhYUBotB9RNkMTSusWkN6dFMcxj4iMxZTX7JP1tsUDTN/UlA+JjbvLAGgtMvdxe3AxbfwA2vSWEQKwBARJ1EyeB/d9ImGRTcbZXFq2BxVqtf5lD4XOxvFwrGYEuklDJAt4KM0EgqUwUMnAi7gi2HN6ATftXyb+/ISk10fjo/cx3liWWSBOCmSo/fKbCgiJxcekGqF3ualSNknL2wVEI9LfKXReUphaEgjJT+fw6yagZycCwsYxtZaOeiPMkCPId6S9hjpXpYhDXw2EhCLQgsDl5EhjFUOuLntj+jFgQtktcOklAgL8cJ/UY4hLS5zkQusCMimUHWBaEuKUeBMEWIwbVrIDSJAhdPkQqLQh2yKVDIMovl1K+2nKMQEETKZ4xDwKfww0SWfC37P7vEm2Mpzhro+R7+FWEi/dSVyDWMVobZkm0AkMdW0uwfXIC8IW4KepLTg26HzjW0gFSzVFIQEiUEIHngCvFKsExWbvhG+nbdoWVZKmAt8JKEE7GH8O8zd9i1e5ZYqRMQJB/MGqUuhIXlqyHCsWrm0XfX6wGFkFIM+QgRcp7H4s7hN3Ht2HzoTX49/hGeS8FIVIavNmF9+KqKjfJ72FZ5+HIR8+CEoR8NBmF9VJWCEEwFgS5QVcUgyRKqtpLyjNLFMPh75dZYY52VkR2LCoWhFpf9MI2ESOyoJPZdzmpmu1ICMuFYNkRKFAsN+BenPxxJWKFIFhhjO5ESEVrVkTpYffhQJcPLBdDhmyMFZa/WljhP6/39eWXX+LeezPx1Z/Xs57nwaN3SxRCNcltIEmMnJTJXOy/liqOF4l1ob4tRGS/7yQN8x0LgdJ1rItaKURzx2QhF5JkiUQgQTIubpNsjFukPkPRcCn6JOWi+T5LQC8XV0RHSagUlMH9cJ5v73wMX9gIAhfGpSJcnvb7mwgJikDrOk8JMbgMxYoWNy6EnLREIY7R8Uexfu8SzNj4voxXDE82HI4qUTXzPUlQgpCTmda+Z4WARRAoWXYv2MykWK13O6NNOEQLgu1iMFUWpQVJFMPFX/bGtmeFIEiEgglb5IIv39NFJPbJuAbS5LW/FfXAzIrlBnREtNR1MC4Gm4yY8eQn6KIKKDvsfhx4/gOp5njCcmWY67FIS8UVShDOanIL60EzJHG/n2gMWnxpKWd3CAmYfZvkNtgBhJWx7nqxpAE8JFaGtnPlAbQXDVoGvpAQyJslj3B1qQTptMUvAbFCBkgQkiXu7guJu6sjx18lYshC0AobQdhx9C+MWdgJ913ZF1dWaoogiTbxRotNPIU5f3+Jxdu/Q7+bJ6JkWFlvDHvexlCCcN6g1YEdBJY37IG47XutEst2GCMTJVW1CcJhCWU0GgSHQHBBl1TLtSf3xalVW3B87jqkSP2EYg1r4cSctSh+8xVI3n8MCTsOoHizy3BcEi2FMx/CXY1wcOw0y8XgsfiTCgTVqoAywx4QgvC+5WLwtELIZVX6VfLia8sxAsxzwWiVQtf2iC7mZxErMt1yZHVxB1wpCY2kPsPVds4Clm7+WlwDtwtx8CzvTEvDCnEr7BZdRvul7joOngRhk7gqVoi74d5/3FUiCziAhY0gLJAw1R82vosRd0w3gkNvNrofXpn9IJ66diRqlZEomHzclCDk48kpLJe2rGF3S4PgFE+SG/MTglCtd3tjQTj8nRAEE8XgyA6ZKCkStb99Ecckr0H0L38i5XgswupVQYyUcg6/piaSJZdB0r5jCL/qIpxa/AfC6l+Ikg81w6G3f0LcEluDYEiApWsIqlVRLAgPYL9kZnQRBNulQWJSeZUShLN53gqaBiHb98hwxwXPS2lwSbd8o0QuTBWCECCWA1Gmm5YqyZBCJbSxgxAJz90lCcLxHZJGWZIuBZU3RNW0ZBEsVpHIiKuEPEyRctFXvyY6hQfTaxyyfXH5r2NhIwh/iRDx7WU9UTXyEjSreS8uKdsAwRkjUXI4DSfjj4ubYTFm/jUR0QmH0LfZRFQk+czHTQlCPp6cwnJpJAix4mIw+Q+YatmEOQaiem8priQE4eDkpVaYo4dmgJkUL/mqD7Y8Nd6EQhrxokceBcddYYkaZTxxMVQcfB9O/EANgviO6YqgsJHnkxZMgjD8QezrTIJAF4NzLVaYY5VVErqmLccIsP7GN998k+PjCsQBjEJg6GKUkIPakgTJWeydiy8luoNw292Q8YYOSQpm1mrwbMElxC0hERDFpPbCreKCKEStsBGEw6f2YfDse1Cr9NXYdfwvJIlAsXbZ64Qo1EeZYlVRLChKtAThRrQYKO4lloy3RIop0jdJQiDjECfuhJMJR7H7xDb8sW8FtgnZLB5cBlUia+P3/Ysw/LbpInLMuqAXk80xJDc4OBj16tUzAnAKwRmeyyixGjXETXWemxKE8wywDi9C7mu6CkGwwxz5NSuLM6MYqr/QAbFb9loEwREp2iQgqGwJ1PmmDzY/MV6yLVLgSIJgaw9s3YAlV7DeCyBBGHI/Tkz/FTFCEMxn1CiQCFD0WKsSyo14EHs7T7AsCLwOx4Igfar+Jjs6bYpARgToSmAYY2kJU7zpXbEKiNAwp41WBZKFH5vLg1ha3Baz05eQzul4+bB/YSMIjF4YMPMuvHDTBygTVhkb9i3Fsh0/4uCpHYhPirXyH6Ql/edMMA9C0YAQsTyECSmogyYXtMEFQipX/7sAX6wZidfbzDIhkpk1Zty94oorcNFFF+HIkSOGHCxbtsy489asWWPe69OnDx577LHzKnRUgpAP/9gK2yUtaUCCIBYEDwsANQhVnr8DJW64FAcmL8Hx+RuQfPyUVGaUhOzSgspHoe7XfbH5SVoQJMyRVMAWHFr6Afu1TTgCJMzREAQpHX1qiRAE+bvzk/S5/lLlMeSKC0wGxsAKJbGvh4Q5SopmzzoMHK/a6tcLG+y5cj/c5ZQuLYteYW1c3E9KtMKPzeRf+tmDAAAa90lEQVQOJdrgpolCFqQImZ+7Wul/3jpDH3fMApY8I6WjxbVw8yfycBecxFLZndbCRhDikmIwUAjC09e9KtELVslvLpYpkguD+Q/4L/uQSMQmnZQQSIssUMwYFhiBiJASxrrg7xdoLAz+Hs/LtN/flzwK69CrqeTMyKLRKjdlyhR89NFHxlpwzz33mN/HjRuH3r17Y+7cuZg4cSImT56cp8mYNFFSdv9CtF+WCJAgxGzZYwkDXToE0QVItsTSt16F4vVrILhyGST8ewgnpABTzPrt4uJNRJ3Pe2PTE+OQIFEMnqWircQkZAa2G8G4GEJRWQjCccmDkLB5D0LrVDEpmoNrV0ZqdBwSJPNijGRYTNy824qEMBYJ598iqL56jM7gWSDQvHlzzJ4tO+LC3hiuuEz0AzukFHQpScXcYJDUCJc8BrII2A+1hQAJhZiZIYsHdi8BVouoMUYIxlXiwqp9f3q9QiHCrLARhCRJZDXw57vRru5zuKqqRzRKJnNG4kAXBCOjAoQQZFXYyCEZby99ASVEv3LvlVmLe5mh9I477sDBgwfRuHFjkxK8Zk0rLHLMmDEYNWqUIQj8+/uv853rI6YWhHNFUI8/IwK/1O+C2G1WZRZHg8A/JkYXsPmHBiGoVHEUv+ZilGl3LYIrlhJrQgxCJLnRxg7DrUqQdtSBGcP8brsbnDwIYkGoPOIRqdMQCv+IUKQlJuPk3PU4tfAPJB+URDax/AO29AZuYmGHXcr71dcoQTjjRGbSodCKFDMDg4v/sW2SO5y5Dj6W5EdS/SdUwtQixQURKr+nSabFaKkkGi1ZFWPFpZAUDVwqaZTriO6A4WyWT6xQtoJEELj4LliwALfddluWu28ujEPnPITLKtyANnWpP3E3Jj1KFgJRNDDEvLk/ehfeWtITxUNKotv14/8zTwItDyPnPSbuhna4vkbb/3wWmL6etU5WrVqFTp06mYJeJUuWNO4Fuhn69euH5cuXg4XGzldTgnC+kNVxXQgsrv+80Rp4JkJiiLnRD5gFX/41rjjRC0iOg5Dq5eQ792KE1q6CPWOnGteDZwikMR5kJAnyR1JSwhwDiocjZtVmqdWwS9wVqTaZsL6YM7ooLH2ClSehxtqxOmNngcCSJUvMDsfnWsxByYGwQX5WCmnYIsWZpAR0EXmoQ0W0WFIiGEpLjQWKGIsW8wloChJBoH+fu3Om3abJvlEjcf1k0iatGomYxBPo1Midhp2plCeuGiYZElfjpZs/RZjM78qdc/Dp6qFmhCsqNMPtdZ5A2WKVMh0zQUqBD5v7sORX6IOLRfCYWeOiPGTIEFP8ivUt2Nq3b28IwciRI42rgWLFunXrYseOHZlmr/XWQ6cEwVtI6jhZIrDoyufExWDlQSBJcHIUuEmCLSa0SYIlIPSDv1RrTItPShfd4GRAdBZ8Y0kwbgv5ESFPEYanyX9OdAM/sH6nH8JOruQiBnY/oR811v9PZ1ARUATOEoGCRBB4i1x8P/nkE1OPg2Z6VqCtXj19yOEvUlvj578/wbDbpSCX3XYd24w3FneRr5g0NL3wHrQS61CCJL6a8/cXZrPD1Mo7jv2JeuWboEn1O3FR6cvSWSlOJZzAMLFMPHbNEPNZVo3angceeADHjx83GgTqfFght3///vjtNwn9jo7Ggw8+aESL59PFcKbHQTUIZ0JIPz8jAguFINCCYBZ1yXxoLAWOBsARHprX9o6ePYw7wLEUZPjM7pvOkuCQBJMgyXIlmKFZdIfntcmJZUtwohvsPvLZhevHnfE+tMPpCLz88ssYOtTaPWnzXQRIEGgGf/55yR1RgBrdDa+99pohDAMGDEDnzp1RrJhl9dl1dDNGL3wCr7WaZdwJTJn82oJnxDpQFVdXaYn3V/RF35s+RvmIaq475o5708G1WLjta/x98DdUjLhQXAntULdcQ4RLSOPx2EMYNKsjo7DR4dJuaHSBuDloecqkcaxTp0S4LS083B09Q9IQJNVwQ0NDzzs5UAtCAXqYC+qlLriis+VisH2wnvkJ3MJFy92QLsOheW1EBqflQcjUkmB5C+wxiJboHFxWCw8Xg6clwc6TUHPDGwUV3jy9bp/SIOQp0vn75Lt27TJhdzTbF6RGgrBw4UJzyczp8fbbb5uFly1Zii51n3ozXm7+JcqEV8AKiUb5bsM4DGj+BUKlnsK4xV3/396ZAGdZnHH8qaBcIpFDbqF4cM1wKBCgjkYBAUEEOiiXHFVkyjBgxdJiwMCopQwyMBzlHioIhREiRIhxFBSQKWAtNxbkkMqN3EICVNv9PcmGz5jkCyE0b748yzDwfd/77rv73313//s8u//HBV0q7RQR33SnFH4+yX936bis2jXXEYYv3EmHCxJ971NSs2w9iXd5tHqgt3zy9QJpW6eftHFCTPlpBciuvYwgFKTeXEDLuqbRIHUxpPv8mbrTRJG8u8Gv9tMcEBpjIXWKD7EI+GOSIQqI6ccVQ3QSUgkFd6paUupzU79MJw+hexogEQ/uMIKQm+6Fb3TZsusm2NzkEYR7GAj5G7oZNmO5iFia3e9cTx5MkplFNQ1CPa0MqQjQRmz0w71Qo0YNWbFihdSsWfNn8AxP6OgIwFgXubGWxCZ2lpK3l5H7K7gAXS5dcu6CPac2yoDosdKg6vV9DPSBK04nAdGkYkVL6li05fB6Wbl7lpy5fEx+cPoJVe560J18SFaCMezxv2Sph5Df7WUEIb9boBA8f03D3ypB0P0AaSt2nbB18k61EugWAXUTpLoErqsqhrgavGvBH0/0roS0fQ0q0hhqcUg9sKDH0DR/784I/X8aAamzc0ohaIm8ryKbpfCR5nfCRJyUlCTt27fP1eRMPWJiYmTevHly//2Zh19u1aqV+q2rV6+eZXVjY2Nl1apVMnv2bGnatOkNw0I5WNVi5k5OTpZZs2bJ0KFDA7vCvOEKBuCGs2fPSpcuXVSlkA1/jz/ugjE5k31maXRSd7fP4CWnoNhMFm+dpMcZM6bWD3RXASQlHk4PIWHXHLdxMVHdCLgjftMsTqJKVpAf3emHRe601NEL+91mxhi55KwKTaq3kqqOfGS0IKSkpKS7F25zA2NUVFSO9A6Y0HFB3H23Cy+eTaKfkW84y4URhAB02EgvwtpHXpFLPtxzupxy2j6BEFKgBMFP9mnHEXXVz56Fn5ABnfPTzkBc30fgNzcqDwjZp5AeJtrvS0izKqQrKboGeHCjSS3nph+uW7dOHn300dzcmqf3nDlzRo+A8a8fHFnxX7vmNrm69mZF760EfM//+Y7fPcHhnPkHH3ygErb8xgDqLQIUtkGDBpKYmCj33nuv3sfxMu71gyyDLuRi8+bNUqZMGb2f30OtE6Fl4BncS3lY0XLtV199JS+//LJ8+OGH+gzCaffv31+x8mX1efIdz/R1CTfY5yngBTgzNvitXLlSOnTooO2UXRq3+gUXzbGVtKndM0c1XrN3qST9a570aTrKySqXk6XbJrv2+VF+FzNV73/7s0HyQLlG0rnBwGzzW7BggcTFxWlfPn/+vJKYGTNmhCXjV65cEYgsp4uySikpyTJkyFCZOXOmEYQctapdZAgYArlCICh7EDIjCEy0WBVYHTIhsOFrzJgxsnfvXp2QGUhRpGP3+pIlS1TvvmzZsnLx4kVp27atHoFD3nbQoEGKDSvOnTt3ysCBA/V4WcWKFTVfP8kwkb/77ruaz7hx42TatGny3nvvyZYtW2T16tXSsmVLmTRpkuCvZyBfuHCh1K1bV1566SXdmR4dHa1n3jnv3qhRI72XjX8JCQmqnsezIEGo7B07dkzLt2vXLq0LFotmzZrlqg3tpqwRmLL+FSnvNC56PDxML8J1cOC73c46gH0gNaGcWKPcg6quGLuqi7Sr019iHuiqv512EtujP+omr7dZ7MSR7pFRSb92ugqDJbqGixSaTZozZ472U/oRBKFatWpy+PBh2bBhg7Rpk3rvmjVr1EVCX6D/Pv3000pemzRpIjt27NC+ypFO+h2/QzC7d++ufYy+itAS7292ySwI9nYYAoZArhEIMkE4deqkm7yjdHBksOzWrZueK8dNwITLZItL4KGHHtKBt0WLFjJ9+nRp2LChno33q0wGUq6pX7++DsolSpTQe4cNG6YuDf6ScA3Url1brQAM5p06dZLdu3fL+vXrdZ9Gu3btdBMc8rj8xQcOSSF/vicoD+UYMWKErgBxmzDpL1q0SEkKVgV85Uwe48ePlylTpui9nCKBJKCuZ1aEXHflTG+M3zZdvj2/V4Y+mqqT8vn+BFmy7W1ni/RuNajCf2VCp4+kyC+Kyh9WPa2nE5rXbKvXE8HxtcROEtvqXRVSivvoWRn0q7fdZkWnwhmGIODuat26tRw6dEgnevoxfZT+hHWK32j/Z555RkaPHi1vvfWW9o0BAwYosaBfQCbpO7i7ypcvr32ao53EcKBfhSOVRhDytj9ZboZAoUKA1W5WPvv/JxCZWRAQm2GFjT+X1T4rdXz6mFaZhKtWrarH8lhxsW+AlRb/1qlTR7p27So9e/ZUIvHll1+qZYHVPqt5xGouX76sAzdWCna/+8SGN75n9YcJOyNBYJDHyoACHv5vVnwcYeM8O4kd9cjq8kx85QzsHL/DlTN37lzZtm2bKgCSB1r9kydPVnIBKeH/RhDyttdtciJICTtnOi2Epant8/Uy+fzg+xLbZr7ud0JF8a1Pest4dxSyuDsKuXzHHPnHt0nSv9kYKV0sym1MnCNHzu2TkU/OlwtOTOtPn/SRYTEzXURIp7wZhiBAKiG1x48f137Lyh9CGUoQ6H+0PX0d7QTcTw8//LD+n6OnbLzEotWvXz8lFZBj+hgWBFxh4fqLEYS87U+WmyFQqBBg8mXlm9/JEwRcAnfddZfuD3jsscfUdM+kvnXr1hwRBCZjFOoYmFnFs0rjO6LqYRGAXOAbJk8GZQbszAjCwYMHdW8GgzT7GnArYEHISBA4BYKWBKvFUqVKyYkTJ6Rv375qLWCjYvPmzSX+/Xjp3au3rvggMMS+YMWIFcIIwq3teYedtPa4T/s7ApDkCEDJsAQBF8SCL/7kwjlvcKcY/iMV76wpvZvEOotBbTn1/VGnozBQXmv9jrMmuNDfYQiCdzEwSWOlGjVqpHM5DVKZaNwOEFiIJcQBLQdIJ32IvkufwsXlrQ70GVxtWKhwS3Tu3NkIwq3tOpa7IWAIBMXFwMazJ54g4mJqwiXAip8VEwMiLgF2rjOpIlk7depUtSowuTMhEwDnhRde0N3ikAkGXr4/cOCA9OnTR90KxYoV05UcxADiwaANCfA+YZ6LuRc3ACZ/TL2s+Hv16qWfsVAwUGP6xeWxfPlyNfeSH/e0bddW4l6PU5MwexwgBAj3cB2DPeSEExTUYc+ePbp/4tVXX1X3BYQEl0e4FaH12BtDgFMLw1Y8KX984h2pElVTCcK6g8tkRKu/6kboEy7S55/X9E23IPjcr1xL0RMPdxa/vglyn5Pmnrt5lMQ5XQXIRjiCMHHiRLUG4F6ALOCSglDWqlVLrVSQBDax0v+wCGBhwoVAn2YPAv2Zjbf0tZMnTzjLWF21RuCWYCPuG2++If379c+2z5gF4cb6i11tCBgCIQgEhSBk1ih+cOO3nE6cmQ2IGb8LN2j6stzI80PzzCr/nOgwWOfMewRiV3WV5xr/XhpUaSFr970vS7dP1KiNJLYq/uAElbyLIbunf/p1vHy2b4nEtftbWN0DCCWbCn3CIsZfvieAU+XKldVlgFWAvSoQWdxbEFk2wGLV44SL1+SATJCwruGGgFDTn9hgGy76ZHbvj0kt531/sxwNgYhBANMmq1hLhkCkIjB+9UCpX6WltK3dS5KvXnLiSP/Uo6U+oapYt2KTbCdawkfP3vi63HFbMXmxxZgCA1U4MmwEocA0pRXUEDAEDAFDIK8R+Ps3SfLe1glSLaq2xNzXTepVaiq3F7kjVeAtTWgto9UI7QP+JF/9Xr789jO3sTFeziafcnoI06Ramfvyuoi3LD8jCLcMWsvYEIh8BCZMmKC+b0uGQKQiwCR5+Px+Wbd/uXzx7w9VAbZsiYp6SqH47aVUTvmOIsX1uOPVH1Ik5dolJQYXrpyRcyknpWSR0tKy1jPSsmYHKVeqUo7dXQUBT7MgFIRWsjIaAvmEQJD3IOQTJPbYCEbgqtt4ePz8ITl28Rs5ffmoXEg+LZcdGbj241Wt9R1FimkgpyineVCuVDWpXPqXTm65uhQtUrRAomIWhALZbFZoQyAYCKA4yFE+S4ZAYUIgdA9CVvXO6cbYIONmBCHIrZOPZWMHLVKunLWtUqVKvpSEXbYcyalbr640j26uZeAoD8d+0LHnnHvjxo31GBjiNvXq1UsvJ4Fu4uPj9YgPx904klahQoWf1IPOf+TIEf2eI2yWbhwB2ojd1JYMAUMg8hAwghB5bZonNeK8NmpynAXnzDgdheM0TAj8y3EZtO05MkP8dI7U8BnWjMALnzluQ+I7jt/4aziCw2eO4JAvYjtcg8hHKOtGupaJv1KlSrJx40Z9FjK4iMocPXpUz5ejOMcuesRB+EyifJwVRpt88ODBqmbnCQRlpBycd+dfzq1zDp1APBwj4nfKRB28CBCfqYuvgw+s4+uPEh7X8juJ/0NgyC/S0+nTp1VjwJIhYAgUPgRsD0Lha3OdICEGKL+hIrd9+3Y9N8uKnd9QrUPAwwe9QTQGSVokQJkcx44dqwSCiZvJlMQ1iHwg8MHkSRAdJELZ5MYqHllZ1ONCtcExXaNmhyAMAjVIhkIQUANjMubcL1rjaNCHEgTKxYRP0B0fqQ/igbQtWvyUaciQIfpcxGfQKEeTnzPFkAWIA9+TL8F1qDtBcyAjlANChKIdIjiQGPTPEbdB0Yzoa+il+0A8kd59ECciPoElQ8AQiDwEzIIQeW160zVi0kOfngmvR48eqjyHpjcTH9r2BLRhckfdDQUvotth6mfiReoWBTi04ll1o0KHXC1mfL4njCnqdsjPojTH9WjboxjH5O8j5zFJ4zIgoh3EAasA8qFcAznBgkBZmKQJPBJKEDZ/sVkGvDhAo+hBBDZt2qRRzJjkcT2gJkZd0CunbAS9IaIfErsQF55NOVDJK1e+nKQkp2h5Fy5aKM92e1ZV77B2cB16+EyQSOJSRvBCsc9bPG66MQKegW1SDHgDWfEMgZtAwAjCTYAXqbeyIkZqlkmTSZTJn3CyMTExGvKWVfT2Hdtl6pSpOrGj683Ejy8a6wCqXWiAIxW6f/9+XYUzCWN5YAWP+wLLxPDhw3WPAP+HhLDXAZcAiWh4uAnQwIdoYA3gO4gL5WOCxoLAap4JOZQgIENLmc+dO6f3YTlA4578CLvLv0jrMqETZx3CgxWBvQpI32JJuOeeezSiH0SBZ0CECHKCVQPihDsDawHPgBihiY9LgwA9WEHQ7S8MCXIEhrieSH4/gv/Md1hx+OwHm4zXYN3hL79ndw33Qcp8Il+u98/K+Jk8uSfcszNekzEfficv/2yfb+izs7omu2f7e/w1HgfqF4on34e7JvSezOqdWZ24x2Oe02dT5sww9/mE1sm3k3cbhk42vk7+Gp9vVqqVvm+F9quc5JuTa8I9O7P+6b/z5cn42Zc3tE9nVZacXnMj44l/n7K7JyfXZGzDjPmZi+FGWiVCrmXAHzlypMYKx8f8yCOP6Aoaf31mBIHockOHDlWLAitnVvZMqKzs58+fr+4AfP7cD1mAbGAdYCLNiiAQoY6VPuXgJWSTIZM3pAIXA35/P8BlJAi4OXAxUP7uPbpLwooE3YRI5EHcHORH2SAITOrsxOcvq//nn39eXSm4FSBE1B0fO3Vr1KiRloFz/5An6sZGSKRPsXR07NhRXSlYVyAchSVBInG5kIh7QIwDrCyQMyImYqUhVoCPQsfeFkgYAY+wVqEXT18AN6w+kExIJ+0EviQsPmCOu4nnEV2RNjt58qQGr2GQxUrEJA4Bpf0gkFh2IKm4h0i0Ef2ReAYMkDybvkKgG1xOfEcfweUF+eEzMRTYB8NnCCHWMPoW16xdu1av4Z3Brfbxxx9rnWh/+g7vC3tguIY+DJnkGhIkltgKWNEgz9xPvtwPGWXiot4QUVxt1Il6R0dHqwUN6xnX8Bz6N+UDByJE8n6hx8914IkriD0zvJ/gyrMpI3En2PTL+0QbEKUSixvl5RqeR7uxaZl3mBgXuAmR9iVRb94j8gV79vogA4yb79ixYyr5S75cQ/RAykfYbN4p2oTn0ReoEySe+/yzqRNlIZEnxJ5+RJ24B0siiXeOZ9M/aCcwZ9xiDxDl5RmMSSTaGzyJa0BbUG+w4tkE1AJPrJQk8CNf+jDP57nUCTy5h/zJh0Rfo060NQsaykc96SOMD9QJbMgf7Hg2eJIv15z6zkVivK2I5sM1YExCCpk2oI2wfvIb99Ae9BkS+YAzn2lbysd3YE5f4tn0Lf7lM23ANdxDPpSF38Cb3/jMc/xffUgWyQhCduhE6G/43pnw/c7+GTNm6CCfmJioJnteSF4oVssEB+FlYXWPuZ3wtLw4WAP8QEg+3MdnBjHCA7MyZ8ImHyZiVva8rAwUJAhCz149JapMlH7mXjov9xCExJeN7xYvXqwvIwO9T7wclJvJgZflueee05Us1gQClUA+cFkwyC5dtlSeav+UDtY8lxeEukEUmMR42Zn4cIUQMpiBFbcHdWFfBGVhciJwCt9DHCwZAoaAIRDpCBhBiPQWzqP6hZ4LDj2JkDH7cD6tPCqOZpNZmbIyYWZm/gtXFvLy92FBGDdunO69YKVgyRAwBAyBSEfACEKkt7DVL08QwMSKiRHrSHYEKU8eZpkYAoaAIRAABIwgBKARrAiGgCFgCBgChkDQEDCCELQWsfIYAoaAIWAIGAIBQMAIQgAawYpgCBgChoAhYAgEDQEjCEFrESuPIWAIGAKGgCEQAASMIASgEawIhoAhYAgYAoZA0BAwghC0FrHyGAKGgCFgCBgCAUDACEIAGsGKYAgYAoaAIWAIBA0BIwhBaxErjyFgCBgChoAhEAAEjCAEoBGsCIaAIWAIGAKGQNAQMIIQtBax8hgChoAhYAgYAgFAwAhCABrBimAIGAKGgCFgCAQNASMIQWsRK48hYAgYAoaAIRAABIwgBKARrAiGgCFgCBgChkDQEDCCELQWsfIYAoaAIWAIGAIBQMAIQgAawYpgCBgChoAhYAgEDYH/ASo4yz1Mnt6rAAAAAElFTkSuQmCC;" parent="1" vertex="1">
          <mxGeometry x="70" y="90" width="520" height="230" as="geometry" />
        </mxCell>
        <mxCell id="Hd83eVn2M9fP15iX-xxs-3" value="Text" style="text;strokeColor=none;align=center;fillColor=none;html=1;verticalAlign=middle;whiteSpace=wrap;rounded=0;" parent="1" vertex="1">
          <mxGeometry x="390" y="290" width="60" height="30" as="geometry" />
        </mxCell>
        <mxCell id="02H-DrXSUCuez8r9kEsw-11" style="edgeStyle=orthogonalEdgeStyle;rounded=0;orthogonalLoop=1;jettySize=auto;html=1;entryX=0.5;entryY=0;entryDx=0;entryDy=0;" edge="1" parent="1" source="02H-DrXSUCuez8r9kEsw-8" target="fcquz-dU36HKkGFn_NYE-13">
          <mxGeometry relative="1" as="geometry" />
        </mxCell>
        <mxCell id="02H-DrXSUCuez8r9kEsw-8" value="Lambda" style="ellipse;whiteSpace=wrap;html=1;" vertex="1" parent="1">
          <mxGeometry x="485" y="450" width="130" height="50" as="geometry" />
        </mxCell>
        <mxCell id="02H-DrXSUCuez8r9kEsw-14" style="edgeStyle=orthogonalEdgeStyle;rounded=0;orthogonalLoop=1;jettySize=auto;html=1;entryX=0.5;entryY=0;entryDx=0;entryDy=0;" edge="1" parent="1" source="02H-DrXSUCuez8r9kEsw-13" target="02H-DrXSUCuez8r9kEsw-8">
          <mxGeometry relative="1" as="geometry" />
        </mxCell>
        <mxCell id="02H-DrXSUCuez8r9kEsw-13" value="API Gateway" style="ellipse;whiteSpace=wrap;html=1;" vertex="1" parent="1">
          <mxGeometry x="485" y="365" width="130" height="50" as="geometry" />
        </mxCell>
        <mxCell id="02H-DrXSUCuez8r9kEsw-15" value="" style="shape=image;verticalLabelPosition=bottom;labelBackgroundColor=default;verticalAlign=top;aspect=fixed;imageAspect=0;image=data:image/png,iVBORw0KGgoAAAANSUhEUgAAAggAAAG+CAYAAAD2h/yWAAAgAElEQVR4XuzdB7g0RZU38PbTXcNilmROq4IIwooRRQmLgBIl56ig5CBJJCyIAVEBxZcggoDoCihZVBbEACIYwAAoGDCDinnX3f34lXtem2HydM/0zFQ9z33uvTPdFU6dqvOvk+oB/3tvKXLJFMgUyBTIFMgUyBTIFChR4AGDAIQ//elPxUMf+tBMwEyBTIFMgUyBTIFMgRmnwEAAYcZpkYeXKZApkCmQKZApkCnwfxTIACGzQqZApkCmQKZApkCmwP0okAFCZopMgUyBTIFMgUyBTIEMEDIPZApkCmQKZApkCmQK9KZA1iD0plF+IlMgUyBTIFMgU2DuKJABwtxNeR5wpkCmQKZApkCmQG8KZIDQm0b5iUyBTIFMgUyBTIG5o0AGCHM35XnAmQKZApkCmQKZAr0pkAFCbxrlJzIFMgUyBTIFMgXmjgIZIMzdlOcBZwpkCmQKZApkCvSmQAYIvWmUn8gUyBTIFMgUyBSYOwpkgDB3U54HnCmQKZApkCmQKdCbAhkg9KZRfiJTIFMgUyBTIFNg7iiQAcLcTXkecKZApkCmQKZApkBvCmSA0JtG+YlMgUyBTIFMgUyBuaNABghzN+V5wJkCmQKZApkCmQK9KZABQm8a5ScyBUamwI9//OPivPPOS/VsttlmxaKLLlpceeWVxTe/+c1i6aWXLlZbbbXiV7/6VXH22WenZ3beeefigQ98YHHqqacW//mf/1mstdZaxTOf+czi61//enHVVVcViy22WLHRRhsVf/7zn4vTTz+9+O///u9im222KR75yEcWl156aXHrrbcWL37xi4sXvvCFxS9+8Yviox/9aPFP//RPxbbbbpuePeOMM4o//vGPxTrrrFM89alPLb7yla8UX/rSl4onPvGJxXrrrVf8/ve/T/Uq3nnEIx5RnHvuucXPf/7zYtVVVy2e+9znFt/73veKiy++uHj0ox+dxvQ///M/C+vdZJNNisUXX7y45pprihtuuKF49rOfXayxxhrF3XffXXzkIx9J9e60007FP/zDP6R3tLf66qsXSy21VHHzzTcXn/3sZxfW+9e//jXRQb+32mqr9PmnP/3p4jvf+U7xghe8oHjpS19a/PKXvyzOOeec4mEPe1jq7//+7/8WZ511VnHPPfcUa6+9dvGMZzxj5DnMFWQKzBsFMkCYtxnP450IBf7jP/6juOiii5KQfNGLXpQE7re//e0CcHjCE56QQAIhSUgrr3zlK4v/9//+X3H11VcXBOSyyy6bBO4Pf/jD4rvf/W56f8UVVyz+67/+KwlhwvllL3tZEpDf+MY3kiAnFJ/+9KcnIXnttdcWD37wg4uVVlopPfvFL36x+Mtf/lIsv/zyxeMe97ji9ttvL2677bbiMY95TLHCCisk4KFexTsPfehDi+uuu6747W9/m/qqz4AHwAJ4ACPlegETYAVQueOOO4oll1yyWGaZZYo//OEPqW1l5ZVXTiDoC1/4QuoL0PH4xz++uPPOO4tvfetbqV60Agw+//nPp/qBAZ8DET/5yU+Kpz3taQk4/e53vyu+/OUvpzGig4KWf/rTn4rlllsuAbIHPOABE5n73GimwLRSIAOEaZ253O+pogCBTTgS2LmMlwI33XRT8aMf/ahYc801x9twbi1TYMopkAHClE9g7n6mQKZAdwowVwAJe+yxRyZVpkCmwAAUyABhAGLlRzMFhqXAD37wg6SeZyrIZbwUYDqhwQnTw3hbz61lCkwvBTJAmN65yz2fIgrwQWDn32677RrT6yOPPDLZ6I866qhk59e3l7/85clBcpYKh0Ul+yDM0qzmsYyDAhkgjIPKuY25pwBP/p/+9KfJo74phU2ecx8HQI6QnCBFI5xwwgnJsZGj4iKLLJIcHwlXGhDOhBwkH/KQh6R3OVJ613PABj8LDo0Pf/jDGyOQf/Ob36R+cazMJVMgU6B/CmSA0D+t8pOZAjNFgU4AYfvtt09hlb/+9a9T9MGFF16YIiw22GCDBBKe9KQnpaiILbbYIj0D+Ah3FDIpKkNUxMknn5zqaELJPghNmIXch2mkQAYI0zhruc9TRwHhiNT4Tt5NKWWAoH9LLLHEwhwNxx13XLFgwYIUTviqV72qOOCAA4rHPvaxxe67717IccA8IS8CoHDJJZekEMR11123OPbYYxNoeNaznlVsvPHGjdAiCBWVM2HWTCdN4aPcj9mlQAYIszu3eWQNooCcAhwVnbqbUmgEhP/Jb0BDQDOw4447FjvssENKNiQR0j/+4z8WwMJBBx2UEjYBCcAEkHD55ZcnswLziSRPW265ZXHjjTem5w455JBi7733bgRAaCI4awoP5H5kCnSjQAYImT8yBcZAgSY6KZ544onFbrvtljIQ3nLLLcVhhx1WfPzjH08JnXj+My3Imijywve0BKeddlrKeHjooYemTIsAhIyQQIQfQOjAAw9MyZF87vtJl+ykOOkZyO1PKwUyQJjWmcv9nioKSGvsZP2oRz2qMf3mhLjffvslQc7ZcNNNNy3233//lKnxDW94Q9IKSOl80kknJcdD2gXZC6U3Bi723HPPBAA+8IEPpFTHtA7f//73U6bDd73rXSlTYhMiB2RUlNFx6623bgztc0cyBaaBAhkgTMMs5T5mCtREAadrKngAQdrjEOj8JXzurgSfKzQIPgMK2gl+3wNBD3rQg+5TV01d77va7KTYN6nyg5kC96FABgiZITIFxkCBr33ta8nbP6f7HQOxW5pwQZQwRz4WuWQKZAr0T4EMEPqnVX4yU2BoCjTRB2HoweQXMwUyBeaCAhkgzMU050FOmgLs+mz6Od3v+GdCbgZahJzmevy0zy1ONwUyQJju+cu9zxTIFOhBgeyDkFkkU2A4CmSAMBzd8luZAgNR4K677ko5A574xCcO9F5+eHQK8P8QdrneeuuNXlmuIVNgjiiQAcIcTXYe6uQokH0QJkf73HKmQKbAcBTIAGE4uuW3MgUGooBYfFkLpR/OZbwUkO9B+KVLpnLJFMgU6J8CGSD0T6v8ZKZApsAUUiD7IEzhpOUuN4ICGSA0YhpyJ2adAjnd7+RmOAOEydE+tzzdFMgAYbrnL/d+SihQpYnhL3/5S3H++eenmxT/+te/Fi984QvTVcxSHOdyfwpwDpUBMpsYMndkCgxGgQwQBqNXfjpTYCgKXHXVVcXtt9+e7isYtkhl7GKlU089tVh77bWLFVZYIaVI/sY3vlFccMEF6S4F9UuPnMvfKYBuClrlkimQKdA/BTJA6J9W+clMgaEp8Jvf/KbgLLfEEksMXccpp5ySwICLkFpvSVT3UUcdlbQIBxxwwNBtzOKLX/3qV9MlUhtttNEsDi+PKVOgNgpkgFAbaXPFmQLVUeCHP/xhMiN8/vOfTzcrtisuWBLrf8QRRxTLL798dY1PeU3ZB2HKJzB3f2IUyABhYqTPDc8TBb73ve+ldL8rrrjiUMM+5JBDii222KJYaqmlur5/ww03FCeffHK6gjmXv1FAkiRprl1TnUumQKZA/xTIAKF/WuUnMwWGpsAoiZJoBlZdddXisssuKx7ykIf07MOrX/3q9GwumQKZApkCo1AgA4RRqJffzRTokwJ8B37+858Xq6++ep9v/P0xSX5WW2214jOf+cz9fA/aVZYBwn2pQnvwu9/9rnja0542MO3zC5kC80yBDBDmefbz2KeCAnIorL/++sXZZ59dPOxhD+vaZ2DCsxdffPFUjG0cncw+COOgcm5jFimQAcIszmoeU+MowEwg3G7YEMSPfOQjhfwH22+/ffGABzyg7fgAibPOOqv4yU9+Uuy///6No8GkOsS8861vfavYddddJ9WF3G6mwFRSIAOEqZy23Olpo4DoA85yW2211VBdv+eee4pVVlmlOOOMM4qll166bR0/+9nPis0337w477zzikc96lFDtdPvSz/+8Y/T/QZNKcI+O92UKZkUcNYaGtqUvud+ZAo0lQIZIDR1ZnK/ZooCowIExAAAJEM69thji2WXXXahNoIAvPHGG9MJecGCBWMJcdxll12LX95r23/Qgx408XkCVBZddNHigye1j9zIAGHiU5Q7MKUUyABhSicud3u6KEBIMQEMa2KI0f7yl78sDj744OL6668vlltuuZQdkPqcA97xxx9fPOYxj+logqiSYjvv/Pp7AckuHbUZVbX1+9//vlhkkUVSdYCAlMmRUppWxd/XXPOF4tyPfaw45eQFbZvNJoaqZiPXM28UyABh3mY8j3fqKUBdLjPjpZdeWlx33XXFoYcemkwKD3zgA8c2NgBh9913L5ZZ5rm1tXnrbbfdC4YOuTet9FrFNltvXRxw4IHFnXf+pHj/iScUP/7xncXB9+aG2HjjjYrFF1u8OOteB85OACE7KdY2RbniGadABggzPsF5eM2ggBM/u71Mh1WVyy+//N7T8zXFkUceWVWVfdczDoAge+Te++xbrLXWWsX22217LyB4S+GzE044vvjZT3+a/t/oda8rFltssa4AQYijC5s8l0umQKZA/xTIAKF/WuUnMwWGpsAoiZI6NTrrAIFJhlmBWYYphZlGNEg4G/qOD8TVV3++K0AYetLyi5kCc06BDBDmnAHy8MdDASdfNvNlllmma4N//OMfi2222ab4xS9+0bNjUjf/9re/7SsBkPsbPvShDxVLLrlkz3r7eYAG4Uf3akSacEMi0CCCoZOJ4dZbby1+eq/G4RWveEU/Q8vPZApkCvwfBTJAyKyQKTClFJi0BmGzzTYt/vmf/3ni1Lv22muLSy+7PPsgTHwmcgdmjQIZIMzajObxNJICTrBs4c961rMq69+kAULdTor9EurKK/+jq4nh29/+dvL/GCbNdb99yM9lCswiBTJAmMVZzWNqHAWyD0J9U9ILINTXcq45U2C2KZABwmzPbx5dQyhADe4Uu+GGG1bWo6xB+BspewEEfh3SVD/60Y+ujPa5okyBeaBABgjzMMt5jBOnAI98pdM9CsN0cFoBwufvDc3kVPi0pz51mGHf751eAEEehJtvvjnlbVA4Nd52b46FX//618WKK6441vwRlQw4V5IpMCYKZIAwJkLnZuabAjIASnD04Ac/uDJCTCtAOPfcjxUnn3JKyvr43OcuXSz7vOcVL3jBC4rHPvaxxUMe8pCBIyN6AYSrrrqq4Iew3XbbJS2O658BlCWWWCKDg8q4MVc0ixTIAGEWZzWPqXEUkNDoBz/4QbHFFltU1rdpBQjfveWW4o1vfNN96ECz8rjHPa446t+OLJ7+9KcPRKNeAAE4AxA4iiqAiNwKfmSflEuh9cfnrtbOFzwNNBX54RmjQAYIMzaheTjNpIBT7O23315su+22lXVwWgECn4Ctt9k2pYuOIp/CzjvvXGy4wfoDm2F6AQSaG0mVXIMNpD3hCU9IYAQoYfrxffwwP0RCJtkX//znP6f7H/wADX4AC5oOuSX8POIRj0hAwhiakBeiMgbLFc09BTJAmHsWyAQYBwUkSeIo59bBqsq0AgRCeP83H1B8/etfX0iKRz/6UcUJx59QLL744OmQewGEr3zlK8X3vve9dBOmOQgzw5Of/ORkZujHLwSQABwABb/jbwDC3AI9ChMSwOBuDBqI0FD000ZVfJHryRSoigIZIFRFyVxPpsCYKTCtAAGZ3L548smn3Idij3/844vTTj1l4CukewGE1suaCHsgxc2Y/QKEfqZWnX6ABldzM2nQQtA4LL744injZdxE2U99+ZlMgUlTIAOESc9Abn8uKMAGTiBVme53mgGCVNJbbb1Nsf322xX/dO9J+4QT359O5ZwH3/H2Ywa6WKkXQGBaYM5Yeumlx8prAURoLZg4jFk/aBM4aLo8iqkCgMgahrFOTW6sTwpkgNAnofJjmQKjUCAnSro/9a6++upipZVWSnb7iy66qDj+hBPTCfyZz3xmcczbjk5q+n5KL4DQTx3jeiYuoPrDH/6QAONdd92VQAKfiIjiGOe13eMad25nOimQAcJ0zlvu9ZRR4Kabbip+/vOfF6uuumplPZ9mDUIrEQjOSy+7rHj3u49LXy277LLFu975jr6c/noBBCd3l1o14d6I1nGHcyTAEL4RTC38I+IWy8oYJleUKTAgBTJAGJBg+fFMgaZQ4MILLyy+9KUvFUcfffTYu+Q2x6rvYqA9uPzTV9x7ffNVxYEHHFA88pGP7GtcvQBCqw9CX5VO6CFOkO7sYBbhvyD7I/8Fvgs5QmJCkzLHzWaAMMeTn4c+Pgrwcrf59yv0evWMTXv99ddPdu0rr7yyWGSRRXq9Uun3dQAEHaRJ8DOIMOwFEICoW+7NveAa7WkpQQfzKwLD/5wcmSKqTLY1LfTI/ZwMBTJAmAzdc6tzRoEq8yBQSx911FFJWIjpd0J+z3veM1ZHt7oAwjBs0QsgoBcBO622ff0HLpkg7rzzzuSbIZkUrUJ2bhyGY/I7/VIgA4R+KZWfyxQYgQJf+MIXih/+8IfFZpttNkItf3uVxuDUU09NPzIA7rXXXsXLXvayYpNNNhm57n4rmCaAIIpAhMS0hxhGUiepoiV84qNAq0ArlYFCv5ybnxuEAhkgDEKt/GymwIQpcMcddxRrrrlmceONNybvd4W5YeWVVy7OOuusJDDGISymCSBMkw/CIOzlsqnvfve7CSRywJSgSRnH/A/Sz/zs9FIgA4Tpnbvc8zmjACCw+eabF0cccUSx1FJL3UcQsLG/4Q1vKC644IKFgqJO8gAIyy+/fLHkkkvW2Uxfdd966y3Fd2+5tTjl5AVtn59VgGCwzA+///3vi+9///tJSwIgyrGQQUJfrJMf6kGBDBAyi2QKjIEC1157bbIhb7jhhkO1RhAABjL/vf71r28rAP793/+9YMo47ri/hQrWWd52zDH32sN/UmcTA9UtNPCgAw9o+44QQuBKRMCsFuYHUQ8cGkWDPOtZz0qpnnPJFBiFAhkgjEK9/G6mQJ8UGCVRks3fKfiEE04oPnZviuJONwx6zoVHci3wR8inyL9NDroo80IP2Rq/853vpMRLNApMELlkCgxDgQwQhqFafidTYEAKCFdzkrVhD1rimugrrrgi3R7YrbgHQPgjMPGMZzxj0KZm8vlvfvObxY9+9KNirbXWmsnxtRsULYK7IGitRDy4JGxeANLcTPIYBpoBwhiInJvIFBiWAjZ62oCDDz442fz7Ke592G233Yrzzz+/ePjDH97PKzP9zCz7IPSaOBEct912WwqTlMI6h0b2olj+vkyBDBAyP2QKjIECtABUv8stt1zfrfE7ePOb31w8+9nPLnbccce+36NS548g9wJNwrwXdnlprl/60pfOJSnwA0dGwFEOBREPWZswl6ww8KAzQBiYZPmFTIHBKTCMD4K7FhYsWFB89KMfTTHvgxRCYfvtty9WX331FPkwz2XefBA6zTXAKRcHsPT85z8/Z2Sc50XR59gzQOiTUPmxTIFRKCBvgfz6a6+9dl/V2Mh32mmn4pOf/OTCfAd9vVh6iFr5da97XcqyOIzvw6DtNfV5+QKkupZ1ct4LsIQet956a/JNkI0zaxPmnSs6jz8DhMwbmQINpIBIhHe84x3Fv/zLv4zUO/bnDTbYIF3qVEcmwa9+9aspckJxR8C+++6b2mtSmWcfhE7zwDfhG9/4RvJRec5zntOk6cp9aRAFMkBo0GTkrswuBcThU/FG9sNOI+WUeOCBBya/gx122GFkgjgxfuITn7j3hsSrU36Equ8j+NznPleceeaZxQH33r7oFkLmjOuuu27hVcVxI6FTKxpEEh+fE07eEa/vcqZ77rknpQ2+6667Uiy/Z5lW/H333XencD02dP97n4ZE9sBeYXzGLuwvgMzIRJ2RCtBRZk70ft7zntczQmZGhp2HMQAFMkAYgFj50UyBYSlwzTXXpPz5W2yxRdcqCNK3vOUtSZgP6nfQrWIC/I1vfGPxpCc9adghtH0PQOAjceihhyZhv+WWWxZf/OIXU1InTpI852lDTjrppBSXr7ztbW9Lwtr30kbvscceyXlz1113LQ4//PAUgWHsrjn+8Ic/nK6V5mAH7HhmmWWWSUDEM0wwT37yk7uOCZj4+te/noAILYc8En4DG34DJ/OqZkdTAAGA4ry42GKLzS0tKl0YM1JZBggzMpF5GM2mQL9OitPmUAcgEPKEv1wPMhoSNgcddFASNvvvv38CCU7xT3ziE1MuAuBgn332SWaP1VZbLb1DWyJmn8kCiDnyyCOLr33tawVVuBTSN9xwQ3KuW2ONNRJoALS+9a1vJe1BL+GOpk7LnvM3zYOcFE7P+gxgyBkR2p1e9TWb04brHe2WLJxPecpTEv3nkQbDUW6238oAYbbnN4+uIRTgJEcwUaHPUgEQLrroouLd7353EsI0B7/97W/TEF/zmtcUr3jFK5Jz4M9+9rN0UpfTgY+CjJAvetGLkqCmXRCC6F0JfY4//viCxoXA3m677Yq99947OVsqzBRCPmkhzjvvvL5ICYi4q2Kbbba53/PmRAggoEB7Q2sBsNAszFtBW0mlFllkkaRNMF91lQBqfgetaXqYwIDCctGPuK47EoXpqx//Sw5Wh39NXWOfpnozQJim2cp9zRRoGAUABLdIMovYsJkLmAE4Br72ta8tXvWqVxUvfOELk8Ml08ArX/nKlKNBlIZ7KS677LJiv/32SwCCcKJhOProo5PW4bnPfW5xzjnnJI3Dl7/85STk3/ve9ybtBIDAt6Kf0o+TYmgZRJroG5AA2MwbUADyOC8y3yy99NK1gQT0BsoANJolxfzSRMkXoh9MVmEG+uUvf5lMQ/qkcL4FLvnquKgKr+RSPQUyQKieprnGTIH7UUCYo9S3s5bul0Mi84CTnw2cOWDbbbct3vnOdyZwsOKKK6YriTfddNMkDAh3/gMEBK3BpZdemswPNAZABDPDRhttlBwW/QY8zj333AQIODVyiHRr4Qc/+MG+L6WiGaAl6Nf/gnACFCRYWnbZZdMlT/Okcjc3zDe0Xi94wQtqGXsABKAywk8JfWYpoEDbAIN8DcwffEgUAIFZ6eabb06fZ4BQ72abAUK99M21ZwokCvTrgzCr5AIObOhARC9hS2gQ0kwM4TdA7Uww9IpYqJJ+2iSk9JlGo+oIkCr7WnVd5ur2229Pfh9AQqcLwoZtNwACzVHUzVQgX0cngAAgMiX4DUiaH7dWZg3CsLPQ+70MEHrTKD+RKTAyBQiaX/3qV3Ob7ndkAo5QAWEiTJI2YJhy5513Ju0PEwmTQy+AM0wbTX0HQJBU6SUveUml0R6dTAzdNAhPfepTk2bHu0suuWQCCRkg1Ms5GSDUS99ce6ZApsCEKdCPD0KvLjJRULsDCcIl56UQxuz/zEQve9nLKvNJGAYgAAO0GrRR/maSiN+iLxRanghb7ZVzZF7mcJRxZoAwCvXyu5kCfVJArDm7ar92cA5YnPwuueSSpGrn4c0RS+6Afuvos2sz/5hwSTko1l133ZHGSgUuDJMmYp5uySTMaVDwMB6sIrpBnZwQ+ZNIiKXQVqArAMbMxPwgBJW5g7ZgiSWWSL4pTAs0Db6P3xEezLnSelGviJRcRqNABgij0S+/nSnQFwUG9UFwYuXx//nPfz6FcgEIvL3lA5A98Morr0zOc8IIbdhOVrzPZcSTY59a2Ebp85VXXrmvPuaHelOA4Ln++usTSDAv82JuIIDZ+o2Xn0CTxw3I4P0c+tibn3s9kQFCLwrl7zMFKqCAWPwf/ehHxcYbb9xXbZ0AwrXXXpvyCIgUEPpH5e0CKP9vtdVWKauhUECe/5/61KdSiOAhhxzSV5uz+pCTvxMpYDVqiauTRaVw3ps3c4OMlgSvk31TQcK0JRsblSfrfD8DhDqpm+vOFBiSAgCCMEEhgE6qYZ4ACl796lcndbnfTrJCAJ2afOaKaIKQUHTRUxX3OQw5hMa8VoUPQutgJIPikyDHw7xFNzDZsPlH6uyqJpopgaaMmcBPOYJFVEtZY+N/pgZOo+jfVLBSFW0mVU8GCJOifG53rigw6KnGRsk0cMUVV6TsiyIg3LonHtzmyPQgQZFN0/c2VIACMHC6k0QIYPjXf/3XuaJzu8ECCOLm3elQZZFQyTxxlJsnAcVJkKlLToIqfDHCH4EJg8BHU9dQ87XhOwKMCYVk3rEGaINEBQVwxu+ez6V6CmSAUD1Nc42ZAvejABMDgSLVcD/FaerNb35zAgS77LJLMhk4MS1YsCA5ikkzLEnRhRdeWLz+9a8vTjjhhJTu2KVMnufzkAHC3yhdpYmhPHfmyGl63gQUgY4XmVlWWGGFkbNNqu+mm25KPjZxWycAIN0zYCcZEp8CYIFDo7BToFioI2de4FkIZC7VUyADhOppmmvMFLgfBUQfcBjkK9BvIdikGmb3lajHvQQ0BcwM0hWzBctcyFvb/z4Xirb++usnDYNNM8K/+m1zFp8jyCOXf9XjIyi/8pWvJEE5T/4I6ChDJaHNzDVKZAPNAAdbNGwtgAKNAU0F0xlgIBUzfx53RqA57UGVN59WzSPTXF8GCNM8e7nvU0MBalICP4dejX/KRB1QX/frIDpoD/l/EJTLL7/8XJkagC65CAjnUU7wkUoZ/aLQCtAmAB7WjR8aOFoDoY3MHPxy3OfgfaaHXKqnQAYI1dM015gpkCnQIArU4aRYHh5B6aIpFzzNmy2ccBZZs9RSSyWBPkxBP1eEC9sl/CPFNVMauorUkWKb1kB7NAhCLWkU+CtEqmX18AWZJ3+QYeg9yDsZIAxCrfxspsCQFHDxj3S/Li/KZbwUcLqXDVBYYl2FoOIvIqphFHV7Xf2rs15jDxPBsKr+EPSEOydc/ggAA1AgOZJIBQBAjg8miTvuuCN95m9aBT4KPuM4mQFCdbOdAUJ1tMw1ZQp0pMCgiZIyKaePAiG05jHTpUyL1P3LLbfc0BNHO+AHwAqQBRSUfUhC+Lc+C2DIrMjUkbK6LCkAACAASURBVAHC0FNwvxczQKiOlrmmTIGOFHDCkkp29dVXz1QaMwXYs51CnT7rLE6z4bAoXG+eCoGNxxdddNGF1zePc/y0DoDBvGlv6qZxBgh1UzjXnymQKTBRCtTtg1AenJM0MCI0b94KgCSShhahivwI80a/Jo43A4Qmzkru08xRwAnHKWtYG+3MEWSMA2LekfVw1113rb1Vcyw/hSyW8zjX/GyE8wpZrELVz8QAeKClNSQaSBHuOE8ZLGtn3A4NZIAwKcrndueKAoTG/vvvn/Ig+PnCF75QHHPMMemGupNPPjk5YLlLQeIXCY94aX/gAx9ItznKbSABkrjznXbaKalRzzjjjOSY9cY3vjGFf0m7zEGOGeODH/xgcvJ6//vfn06z3hEW9q53vat4xjOekX7Ly+Cip/322y85gr3pTW9Km+6HP/zhVIf7G/w+6KCDknPfPvvskzZ+HuVSO+uLHAxsv/r5hCc8ISV2Iohf85rXpORNxnzkkUcmtfNpp52WANL222+fvNDVwfPd5+eff37quzbFvG+55ZZJuMQYZUDUtnfleJBd8n3ve1+KGjBGfTBGYW9oqt73vOc9Bc0Bp1Bj0LZsfHUX8+jmQcJslNC/uvtZV/2R9Ag/xC2No7QFHMgD4hIySZPkPcD/UpGb52xSGIW6vd/NAKE3jfITmQIjUyByx0eeeRsfYUgQShlrYxXr7TfBb+PzveeclNi04xmd8Yx3vUP4ubOB/fvAAw9M73k/7OCt9Qoj05+o1/ueUZ8reIEN9UUd6nMilk/AZ9pu19/oi5A0wjjG3G6MkUM/xqhucfCS36in3RhbaddujK31xhhHnsABKkAb40GzeRRg5g//SP09qhalDBD4ODDd4C0gDAiZR/oOwIojP5oBwsgkzBVkCkyeAm5u5EU/6n0DRxxxRDqFH3/88QsvenJCp0VwgutUnOji3UE3bdoIGhUb/vOf//xKVNOTnhFhrTQyLjSqQtU+6fEM0j6AJLQU+JMueZTxlwGCfAcArPojYdIodQ8ypnl9NgOEeZ35PO6ZooCUzDbkbbbZZuhxxXXUNBpO/1T5TmsAAlW9fPmdyoc+9KFizz33TIlt3E3Qb9GO0yatgx+n7nGYAvrt37DPoRlzS1W2+GH7Man3CHEmpmEvdAI4aaoUJgYXYuFvn/kNgDHDZWfIemc4A4R66ZtrzxQYCwVOOeWUlMVvvfXWG6o9G/rBBx9cvPjFLy5OP/30Yo011kjqYfc/UBm/6EUvSmFs7QqfAgCCzwJfhqOPPrqvPmhTAiOOZ3wl5A/ga8AfYdpPhsbmxkMqcWaTeSzCSyMF9aBaJdowd43gQZEh7iIBFPjQqIs2gY+HZ3KpjwIZINRH21xzpsDYKHDcccel8LJVVlllqDZtwhweOTjutttuCSS4Kvqyyy5L9QEOnQACJ0tC3o2TtAdnnnlmXxcXha2eWSHsyzQQUuxKozvtBU2AJqffeSx8W+KWxkEdFjmcSnykDuYEQAAt0RTfSOssLfO0A8mm80UGCE2fody/TIE+KHD44Yen6AEq+mGKXPh8AZzKRFuIIBBd8JKXvCTZ0v2WSri12MDXWWedAkBh3jjssMPSzZInnXRSTwcy7/7kJz9JvgeuDnbhDqdCkRyDCpRhxlz3OwTZF7/4xaR9YT6Zx8LUcs011xSvfOUrB3ZYRD8lQED8H3TM4KB+jsoAoX4a5xYyBWqnwL777lvssssuSQU7ShEyCWyceuqpC6txmhNqSYi3FtdKswfLELnJJpsUcg74++KLL+5LixD1fe1rX0sObbOkMibQqMWFefqZ13LrrbemSB1AMAv16eKCDBCma75ybzMF2lJADgV+CKOm+CXs5UmQ2yAKgLDSSislm3pr4WWuUAdvvvnmyeGQgxlBP4gwoJ1gZ54lgIAuTtAE5LLLLju3nItH8I5ImEF9EeaWaA0ZeAYIDZmI3I1MgVEosOaaaxaXXnrpKFWkd7/73e8WJ554YkpEVAYIL3/5y4uvfvWrHesXAbH11lsXV1555VB94IPgroRZdOhjvgF+5tXMgCHQQMgnR9pBgONQzJRfqowCGSBURspcUabAZCgg8ZHkRsMK53KvOZVxUKRFiMInYOWVV07JfzoVAEHEw2c+85mhiCDHwlOe8pSpAAittvHygDvZzYcVimW7e686uvVrqEmp8CU8xIzElyVrESokbM1VZYBQM4Fz9ZkCdVPA6UySorPPPnvkpmgJOCf+27/9230AAiczmRq7AYQddtih+PSnPz1UH6jhF1988amIXmByueuuu1I661ahLaxPCmiprcXsy/jH2z5i+oM4vifQe+V8iKRDvPb9tCsAIqEriZDSRAdP45AXAm0e/ehHD8Uj+aXxUyADhPHTPLeYKVApBTgE8hR3v8GoRT2yGrpXIYrTn7S5Et90Kpwbd95554VhkYP2Q/4D0RJNFG6tY5GzgcbEXQAiMQg/QEEEBuBgHEw1TCbARFwsJCmUwtTAZ0PCH2Gh6vATdZRBB9rfcsstyTdDuKS21KOOuOKY3wjwEKAjwv/0p5fWYdB5GuV5tBDGyhchX7Q0CiXH924GCOOjdW4pU6ByChAYLiaSUW7HHXccuf7LL788JaEREVEGCPIrXHvttR3rd3L2jsulhil33nlnEmZOmE0vARAkdkIrp3fCWv4Gwpyd3XiclCWZAgKEc8ZdFUwp8k4Q6DIN0p5w5DOXEiuVtQ2Al/+971lteR44iWRCtBQ0EXJHACiK5/SnSYLY+PiaoEfWIjSdy//WvwwQpmOeci8zBdpSwKYLGBDOTmajFuYFnvciEsoAYdVVVy2+/OUvdwUIEi1ddNFFQ3VB1j2C16m76aUMEH7xi1+k0FJAwSmeIHfSv+2221LYJmEOEES0h2Q/hDZAR4NAuwBMSAYkD4XMgUwXirllt1cfQOFZghUIARZoXfyPdn4zNQAhUhALSZU4q0kAwZhoRNBEcqxcmk+BDBCaP0e5h5kCHSlA8FD/f+5znxs4EU27SmVBJGwkXSoDhNVWW6340pe+1LEfTrN77LFH8clPfnKo2WI/dxJ2Mm56KQMEJ3bJpWhQRGAQ5K0AgcBHH178TAmAQQAE+QGADFoHc+k64/A1UDfA4TMaCsIfMAiAQNDKr1AGCLQwwAZg4YrkpgGE0CK0akqaPufz2r8MEOZ15vO4Z4ICTq6ueHZZUxXe4TIi0kQIa4wir4G0y7ICdipOs3vvvXdycBymsE87dU9DvoB+AQKhT3hLEGSemE9oEPgP8BMI7QMn0/jf6Z+mQOHHEKGBAAL7PfDh+aibxoXmwffABh4oAwR1ADBARlOK+zfQZRrAYFNoNql+ZIAwKcrndjMFKqDAeeedlwTNG97whgpqK9KFTTIilgU1gCCMkgNjN4Cw3377pTTLwxSnYyGWVZhJhml/kHcIY+p8dn+nfsmp/O+0TjtAUPufjwEw4DmfA0GcDanZgQB09ZtJhwaFBqKcYMpzIfSdvNGICULd6lOvtmkNvO9Zf/vcu0ABHwbAxHtNKWjGn8X9Hk3TcDSFRk3pRwYITZmJ3I9MgSEoQJgLSWTvrqIAGgcddNB9rmwmyCRikla5U3FCPuCAA4qPfexjQ3WDwJNtz70FTfK8H2owDXqJtqOJF1/hF2aWeU5B3SA26diVDBCmYZZyHzMF2lCA4HbilqZ41BTLUf2GG25YnHbaaQvV3D7vFyAAFh/96EeHmiunSomYXPVchalkqE7kl8ZGAdoUeRFcLpYB4djIPnBDGSAMTLL8QqZAMyjAJ8AVy/wGqhKqLmWSDZG6Ogr1NafFq666quPAxeK/5S1vGTpZE+c9iZhWXHHFysbSa5ao6p2wmQKcsqn3gSFgq1sCozAHeNcpuCraR3/jSmP/E55MBU0yEfSiaz/fM5mItOB02ZpEqp/38zPjoUAGCOOhc24lU6ByCkhmtOuuu6YwuioKNT8VP/twWUASiK997WvTTY2dCoDw1re+tfjIRz4ydFcIDL4P47BLG6v0znwA+AncfffdKcSSPwfHQJEE5ZNtJEMyOCdfV1OL6ZdroGrhTSMErOgX/wRtE6TtSrv0yuW+eqdXCuZe3w89oV1e1CZnRYBsGkJb66DBNNSZAcI0zFLuY6ZACwUIMmGFoheqKkLxAI4LL7zwPkLaSXmDDTboes+CCIQjjzyy+PCHPzx0d8Z1qRHhVM5kCAiIBPA5oMAZkMlDpICIAGOjbaBZ4OuhnwEQCG5zISSR1oWwE/LoffWITpBCWpQHYei0zGmQ8AeqaE5EOcggGYAE8NBOODsCMssvv3wKlQTWaBS0IxJAVASnSREB2lD0VRuAjr5oF+CTr0FoJI2Hvkn0xDGSP4B3oq/ldrxTtYYkGASNpPYGSnNpJgUyQGjmvOReZQp0pQCzgvj6jTbaqDJKSbHMyVBmxvLpGUDYeOONu6ZRJkSPOuqo4kMf+tDQ/SHMOK3VHZIHCBCKTulLLLHEwv76nNDWvn7QFIjXJ4QJcAKYxkDoYAAEcwBsCE8EFAAA9Iq00SIzhBl6htBXB0HsfwLc88at3qA5DUKkSWb+0DZBLicCYCCxEvDi/6jDIEQs6I86gRjtAi765h2aDqACMABQtKtuoANIYdqI+yPcPqk+dNBWXSVCPKchxXZdNGhyvRkgNHl2ct8yBdpQQAiby5M++9nPVuqh/vGPfzyFx2277bb3aZXg2GyzzbqmUXYyPeaYY4pTTz116DlzineydWqvswACEhrF6Z1gpjlgdnDaJnQli3KSd4KWmAhooO6XfKgMEAAMwj58NpgmfvOb36Qx8E9gNqFBIPD9docDfwe/Cek4nctv0E6DAHQEQCHswxmVQPW+78wZMFBOxywihNAHMIAG9aAt8AL0aBd4YdIJjQFwoP4ACuYA0CmDqKrnBTjBOzQk2VmxauqOXl8GCKPTMNeQKTBWCjAByElAIFe5qbriWUKk1mRFBMZWW21VfOpTn+o4TkKT5uEDH/jA0LTg2e5UW3cCHQBBWwST0zRhKYujOwLYxcsAwWnfqdt3Tv8Eud+hQfA+wew3AQ4UADplgODU7zSuDu0Q2AQ7oED1T3irrx1AYD4AVGgBgApAALhhQlAXEAAgADbG5MRPyHuWbwrwEu0CPf6PtgAE40MPwIb2BIjxTGg9jKPOMEltc05dYYUVEuDJpVkUyAChWfORe5Mp0JUCcbMi7QFhVGVxlwIh3+p050S83Xbbdc2SSFV80kknpfeHLU7wzBy0I1UCn3b9IZicpgl/bRGehKT/mR5oDAh+6nUCk7bBZ07hBDBBTFA7Xcc9ErQIBDaQQah6Lu5ZAAKc5glxghso8T47PCFtLmPM0S7woJ9xZTTgoc/MDdo1L0CJuoAOmg4nfqBCvz2n707p6g9th75ry3cAAFCG9mjgPf3CZ/FO3XMBqEXbw/JOfq8eCmSAUA9dc62ZApVTgLB4//vfnwRC+bbFKhpSNzNCuzwG1O+vf/3rCyaIToW9noPi29/+9qG7ow9CLFdeeeWuYYZDNzChF+PKZkCAkKchqSNSQypmTpN11F0n6QAdoKRuzVGdY5jVujNAmNWZzeOaOQo4qW666abFpZdeWnlonZMp0HHWWWfdj27U4fvss0/XEEbqag6ORxxxxEh0ZztnI3eKn5USaZL5MBgXzQCzjdN+ladzZgZajrqiDuqaDxoPZgapl3NpFgUaBxDEdlNxum4WGmZ/s/FQoTnFUNHx4KbqoxKlIpOP3sYiC9s666yTVGcnnHBCorTsbmxbb3vb25KKb8stt0w2OKpMGy113/bbb5/qPfbYY5N6zqUzVF5CyIQYscu+4hWvSKo+alTqQxsmtdy73/3u5LzEsYtD05VXXplu1mOr1JYTg/4qctXbFNShrte97nXp2lNtaIsK0Catn95x8hB2xt7oGl3X7XLmke2OyvJ973vfwjGi2Tvf+c40Dh7n7Mji2dmr0Qjt0IydmVpzr732SrZWp0Je024EdKUvlSg7MvWiMaLHe9/73qTa3GKLLRLKZ/++7LLLkp0S7agwta3su+++SVW7YMGCZHc1H+aFClqMPBWmebNpUkerV9/YcD/96U8XV199dXIEk0KYqlbbiguJbKz+d+JYf/31UxY2827+OW3ttttuaWzveMc7Eg133333pL4N/lhppZXSnQLBHzZr/VXwC3UtAbzMMssU1113XbK5o530wzbfGGPwx+mnn57stupUN1WpU7Tx64uTnDHq70477ZR4TbKhK664IvE2Htdm8IdUxRzF0J9QlpzIpulk6GSPr/AzfsTPxqoddmPzbL6FjMlZ4P3jjz8+CQz9tQbwnbEH37nxz90J5oRaHzgIJzj8gaY+s3k74VmHvP9lWkQ7z3he/80vftIvtz5efPHFSdDzXTB+fBdrgOr7lFNOSXbyNdZYI10MFfxBTb/DDjskGvKxMMZYA9ardRtrAH9YA/pgjGh38sknp3qDP7797W+nMRgjfrA+1KugHf6wBuwzkkSZS3yrHvyGP9AQ32mPqcU6RxM3V/L2t/YJfGPE1+hi/zjjjDNSiGSsLbwSUR7rrrtu2oe8Y43hMXsc3sAjohrwIu2NtvGS9Yh2HEH5QcTaijlBf6Gv9iPzoNhP7B/6KlOlzJvaZsbAZ8DE/vvvn+rFL/jGeIxLCKLLt6xzV4pb57FHoiWa4kv7lzk0l2j/wQ9+MLV9yCGHJAB09NFHpzHaK/hj2COZyER14A+0w1v2J23bI9GOyWTttdcuXvKSlyQziDlBV/T1rHWOP6wtfhb4Q/Iwex8eN1/GpJAr9rQYY8iBWAOt8kXY55ve9Ka0tj7xiU8kZ1Nr0Zq0Fk488cRUr7tLzI1058xQUa+05JdffvlC+WIvD9rFHnn22WenSJnYP4J2eB8/ky/eMZ/4Du3sAeiHd+wf5IBx1QWoGwcQCDeMhSkJYpuLBWuRWpgYjUOU3xErTNhaSBYIGyCC2qyVCB8yESYw6sU8JhphER6jqdcCt7HZHDAl5iW4bSRx4xxhbILUZ2PTF05EFll4Hes7gWCS1at4R702DXURihheG9qyOVqY6vWOPvk/7KFOkDZtzGyBWEAKYWOh64t3LBZMRvgQ+OpFu+iv38ZoY0VbNLYQ/ATtjNEz6KEdArcT7Xyn7XZjNB/mBRDgLR2x5J41Ru/GGAkv9NN3Y7BIg3YxRn1BUzRACwDMwop69ZdQMEYgLcK28AfbK4EfYyQ0zYmCX7RnzmxQZdrpH7qqN8aIPhHbrk5120B9Zo7xps0x+ov+eM34jFMb2iqPMVTP+MP82thtwiFg8TAgqd+tYzTP+hxrIPjDs+ZRXwgoYw++i7WFdjZ5xViV8howB4CEDRpQIpCiXnxnjECMfgM5+JQAsgbwjPkq8wfa6Ys1EGsr+MP8Bb/GGGOdqzOuNjYGtNO2PuivjTrqDf4o8x1+KM+j/8OhDy0i74F+qUd96jVWNNCevcI6D/6wOVv75TWgXjwQ0QGxtoJ26Bv5EDyDV1vXAP6wBtDOGM0fXtUX9FdXrK2o11i0bT/CKzGf6Ik/rAFrJvZI86VefKde7eAb4zEuz9tb8S3+NcbYI2OM9g/7V6yt2CNj7/VbX8xr0C7WQOyR6qWBspYdxGJtWU+xBghYc1IeI55CO32zR9rP8Yf9o8wf+mCM6rXOrYHYy2L/aJUv6sV35sn+4rl28iX2JevHGLvJF/31TMiBkC+xfwTt8A6+K8sBtIv9Ixxc7R9yj7iK/aUvfWma76pL4wACJjDhuWQKZAr8jQIEo9OkU1fVWfuCxk6nTjbtQgxtqjQsoc1pNy9Om05vTuWjFJsijRbNWpXq91H6VMe7NnnCos4Qwjr6XVedgButXV2Crq5+T7peJr25AgiTJnhuP1OgSRRwitp6662T859TWx2FoKKupp1wOm4tToDMKVS6nQpw4BS48847j9xF9cQJdeTKGlqBeQX8nBRz+RsFmECcrtvxYKZRewpElsxud4eMQrvGaRDYqdlxcskUmHcKECLiw/lzsGPXVbTDtMePoV0sevgBsbN2Ku5poDLdZpttRu4mdThNAjXxrBaqfHTln5PL3yhAlU+TQE0/y9qjaZrvxgEEzjqcqWxa1J6cQ6g9ObqU05HWSWQnKmpONqdem5RTAEDDESrUsy6tCacadkw+FWxjNvrWwqGMsxCbaRROiBymOKq0Fg5VHHo4B3ULZ2Ij5RTEZGMcTqCdvIQ5FXF86XRVL7u6+ggrJ00OeWzNudRHgRDaHL84ntW5YXLU4iDKWa1dcbLjAOa2xk6FQxY7PufSUQt7M+GJX+sc96j9HOV9ACicSqct6mCUcXd7l2+A/Z5T4qzOe9W0I1M4Ji+33HJVV53qaxxAEOfNY9O1rzZJNk0e0Rxq/LDBckbh0MGpiEOKDQVzYSrInF3P3+x8HDtsXJHP3MLkJAapch7ihMKpJy5v8ZlnMCkPWjaeeIcaJ9Kmap+zDScogpOdlnOPQh3Ls5YDEuHM2cjmyytWO8agjwQ8Rx3C2TgiYYo2gSEX5Bgbh0qORr7nMS5ygnMQ5x71lfulfQCHLc+4DzvssKQ6JgQIemNBv7hIRvtsz4AHMIFmHI5sWpHiFVBxuqT61TbHHDZx8+MZjkOciYxHfzj8cHDigKn+vNgHW7vmXMSIqBIRH3ULEF7heIDzWrsieoZnPU/wToWXPL5bb731Bhtsm6fj6mdRKrOcXW+ct1eOPCljqMC8i1Ih8OpSmY9hGGNtYi59EHjTss051ay++upJSJ555pkpjOaSSy4p9txzzyTUCSL2UWEohx56aPL4JfiF9gg/IbAJLcIwohIIbyFzCnsXwemSGepTGxzBLHxEOBnBJ1yFXZVGgaAT6ibkh9AHDtRPUPMsDoBAaAIAQnXYUp2EeGQDCMCAeghufYywMv0meDl78bgVTuMZDpu8hLVDS0ENFwCBc4qwQPXpvw3c3xYa4Uyj4WRHeKMNkMHr1Y9n2Pp4JQulARAIApoMzkKADS9eY6A2Nkb9oW3QN+0ZGxpoM7LwaTdusgPKePcCNrn0RwGgTpgWU5vQsbrBlbWlPfzZaVPGY8JJrbtOBf/gpzXXXLO/gfZ4imZOwbuzWuJQMcsgaJC5s/8CTfZR+0guvSng0BypwXs/PfgTjdMgON0S+oQf4VK+B92JlWAmoGkWnLCo4sXNE/pOuIACjQOQwTzAXCFExLOEpWxxbsAT664OGxsAYPNbZZVVisMPPzzFrnuO+t8mTZPAi5sApWoVYyx2n7C3sfq7DBAwulhjGyYB7/RNCKtHHC6Vrdh875hcaiKgQCy68VMXUeUbu7bEvop9BiaEHwEI4u0JahoXcedi9mkI4iY8bQBKtAI2ILHzwA3gJR8Ds4iQIvHCwEcABBuyGG/aGXRTj7h3J0TzYjz6xk5oLIQH0AacGI/6AR80Ni+c12hYculOATyDb6nxRQuYm3EU8wN44u9OYET0hPXULXsjQIN3rKEqipDCSJ4zqwKU2RFQzwD67xzjAIQmQvhymTwFGgcQnLKdRgnH0CCIQXXKZ9+0cdqMqN8JcKdVWgYbHAFJOPFXiAtUCE9mAQLt3HPPXZisg+kBI1KVe4cAlOLVe56nopdsxeK1MTJ52EAJfapPIIIzlUVO6wDJhQbBtIob509BbUsYq0cCGIlK1EOQewbgsRHSOHhW3LEQL0KYKUL/CWEndVoTmhQAwWlev6I+45HUBIBAEylraQOMBRhBV0la9IEgspEbrzY9VwYINAgQPA0CDYs2wwRBCOgbUMGG6ln955dAywKweVbyDxoEoAztculMAfPF/4P5CBiry57Yrgf8YyK5S6cemkN8iXc6Ff0GDs1/FQVg4ocA5M/qVcA80AnEnGL47xxDo+XQZV/LpTcFrJHIJdL76cGfaBxA4JDl1Ez9Ty1OEMq6xt7vFEOt7dTNZmrDcnJl53aSdlpuBQhO/YQzgEBoctzDfE7z2gJCgA1qVqDAKZuDoRO3jZoQ9rnNm7B04iKgqVL1wQTZQMsaBNMA1BD+zBuRvAWwUA/NiHap0/StDBBsGAEQgKFwgLSR66exa1+bbHUyyamHNoMamJYBkIhEG4AMkOG3ZDY0ImiBdjLUySoHFBHqod5jRwZOaC2MWcYvphnaBGMIR0W01P4FF1yQ2kY3ACIDhMEWIqDKpwRYqyvPQbseWV80SMBxN1OGLJ5MH92iizja8sjHH1UVdFHq9sGoqr+D1mNvCKe8Qd+d1efNOX8Xh5dZnfcq527ufBBsRHGrGk95aJK6G1AgOJ3Uqch51bPtIxBhS83NPk67YMPzN1OE2G1ZyZgRpDXlXMgcAakSuIQkAcq0QLD6XxSBDU+dhDGQQUCy0XqOylxd2uXMKEOW553WozgBiWYwnkgwQ3AyeagHkCGsmTLUZcwELqHMKRCIEf+uDv2j2vccJx7jY5YQzeA33wL1lU9vHBt9hn6+B3QIfiDB+JlrhM7xtXB6Va8xAFrMFTZ7JgXjNwZ10bYAIoQAevqOyYWjJw2Pz42HQyYaSaOq/7LE8WGguUDjKIAd7U8U3xkrbURVheaFijy0HpwojVWhugb+nFD5mpiPiAwxp3xJbFQKGqhnrbXWSvQsF/0mbI0RzfrNKQ844oVekTJV0aK1HuCPVo3GrRtAoJkyNqGQnQoeZ8Zjuhu0MCfws9EGDR2+MG+0Yp3MC9YXHjYXHJS9N20CxXilLc/C8O8cY17tAfiozmumB+XRpj5PK0xDO8y662dMjdMgYJC6HbP6IUx+ploKEKDU0DZ12gwggvYE6HBqsLkTFHw33PMwaAm+KfOOz7TJvCJOH+gB6gAbPhKEOYBF8wFAAADAjkKLJd+674AGABGAo+FpdZwDwjhz+p6wjXz7MQb9UFr5WupiESNMWeMuaE57wOfB3QbdChAByHTrpzBagJtZapBizmnUgDRg3NnuMQAAIABJREFUgKYQGAbOmL7MB7r5CTpG/Zz8zIU5olns5avQro7Wvo5z7zEe/kWRXngQus3ys8A5U2mnqJpZHnvTxtY4gGBjjiiDphEr92d0CjC9cMbku8B/Q4QEbQ7NA60EgMA3g8aDCcfmT+gyrfAzoWHxHn8HfhQEnB+mHxqUuFBJTwlBGgqaE9EazCEuw6EFYVpxSuWI6V2hta0AgXMpp1f+FAAE4SViJpxhaX04n9LsqMPfBCUzAcBDu+KULp8HYUAjxnRlXD4n/IxzEgCBWYmZTb9bNSKts8wHhU8Kp9hOhSbPRTvMaoMUgMtJmv8O4QxAAg3CZNGMdiDuJeBjRAMIrAAR/i8DBA6++AtQABjwjoK/4g4Cn5l3pjifEUS0kpH2GGAbJ0hwWgbQApgOQrtZfZa2Dl9wcs6lOwXwtvVQl2mycQAhEiVlxphNCpQBAkFJSFHtE8JMHcw7HDjdFsfPgx8IGzh1PJMKhz5mAUKf6YJfCVMGNbgQUWaZKDZ+Mf4EnM2GxoBApFHgc0JYAAi0DEJoWwFCnPBoBDjOEmRMV0wzhD8nVSYjgJZpi0mLmt2JmM+Itn3mO1oIYwMgRH8AOr43RifvcRdAygkdMOtV9NVpzhx1KsYbt2f2qq/8vXllmmtNr8vfCB8Q2OjJJ4kZwnP8NYTwAooBEIxF3hE8AfwwTwACgKV6tMP3honJnMflaJ4BQAAFbeKLXpqIQcbX61kmv7jordez8/K9dcesy3ybS3cKOOjYj/ij1VEaBxA439msc5lNCpQBgigUfgk2ZJqEAAU2TA6kgIPTVaQZ5u1NOPATsZHz3qUZ4NshUoMAp7KNeH7CmHAmVAhzwt3JPjQIQWHOYgR7K0AAKvi7AAfqBELkf/CsMFzFSVbfw8TAF0MIqrb1nw+GMQIIfBP4lzjpAgc0Gk7c49YgOKEZA1+Mfk6ufFOcyL3TqaATkEDYDlLMJ9qE2YYGQf/MCVBC0HOABRCYFAh7WgWAoAwQ2Kv5JcW1t+YcoGDy4CNCbe2dCJWmDfI5UwYNSviemI/ITTLIOIZ9FlAJIDRsHbP4Hsdth4OcMKn77MZtjnWBqcYBhFlk9jymv1OgDBAwt5Mb9b3kVLyXnbIJdY5btANU8qJYaAcIDloBApvwBhAIX4KfQOZlL+ICWKBJ4OgpRJR6XN00BYR5vwDBBmUDpz5n0vAunwVmC20SOqJXZM3kRMuvgn8DfwX9YQLxORMDtbXPAAiRN97XR98RZgTgoOr5YfmKKcTJWd/6UadzQOQgHA6b7dqVU4QpyHwOUgh7PhyENyENMACIBLjPCE8AAW0AAHNuTvzGD6FB8D0tgfh5Drrm3PNlgKDe0D7QMjAxMFlQz5oDoZycvQCPssPxIOMZ9Fkgxpqg3cjl7xTAEwBidlTszhV4HSiO/DdV81DjAALVUr9e4FUTI9dXPwVsyAQ+LQDh4ETO3kwVL/IBOGDLJvgJGydSvgccGglgoIE6jYDgr0LrwGeB0OeDwKbP256w8plwToLHaZGgp1InYMpaKpoH4IGTYdjyODVSY2tf1Ij+MVUwBxAkHC0JIX0iaPhBMHuoG8gBTKi7mUSo82kugAFCD4BgeyZwjZnWgwCuMnqj00zqD7MGbUi/t+bpP9p2u4oXfdCk3zrL/QNWCHOqZX4d6GnjQ3snSNof8888YB5tiJxefUeAAAoinfARgUsjgD/U6XO+KOpTh98RcYK/tAcsqBcoUDetFMA2jmINMI3kXAj3pbY1RrOYr8PuzoWdHKCr4t3GAYTsg1DV1M5nPRYMQe4ug26XWTWJOoQ1TUmox+vqG3AAPAFR5fDSXu3Reni+282D6E27UvcYevW12/eEMS0D4OHULldIO3MC7cW4shtyyOQbAyD2o80ZZfzT9C7QCGxnR8Xus8ZpGo3qugq+cQCB2tNPLpkCw1CgbkQ9TJ96vTOu0F4OmrQxfCQG8XrmR0E70i0cktYEMKtL1dmLhv18j860B4ACLQMNRDuhPK750GegTbKkyIjazzjm4RnzJFMrP55cOlNg7hIlZWbIFChTgFMZs4RiU++UEMem7qdXshzCgcrayY3dWn02Iz9hP1cP9TRVd6/6piXbH7s6M4CcBoM64YnS4CPS7TQngRRTT1UAgcq/nFTL/JuLcoQB4UrAT4umqN3KjpsraWeyBuHvFDK3zHRyRIwzqmTadl9h2/xs6vJhaZwGYdomKPe3Xgq4RIuDIFuytNbs+PIltBYhauz6HAk7FeBAWGVcrc1xUeIkMdc2I3kKFJs2B0MppD3brfBVAGAIyCYXJgJRBt0cDTv1XzgqcNHNLi/SRObRXjkV+qURYMg2DySYDxoPPgJl1T87NUAyzXc1AKNygmSAcF/OQBdRNnx0qgKd/fJefu7vFGgcQCAAeFm3K5yrnCIwDQ94Dkcc2hSx2mKmJbaRhIZHO4c06jsbI3Qujt5vcfOEBacq6IvK1Xc2T05nwtDc0EgFyaGOI5SUxGKWedATBlEvRzYe6S5eccpSeH0LfxPvLmyTUGL35YFP4KmXoxpbqPpshFRFUhVzwnNfg9OaGFeOV5znIGox97y22YQ5c8oGaPxsmMLMFONwomITFiom1bTLpM4555zkAGgj4lDnRMn7Hj2NUbw42okWMHaRBVGvjVnWP0k50NWmLTkQgeFzTnwEqtA9XuLGpGiPIx9HQnZdKuhBVNvqwA8S9BBAQtJ4meuj+owNL2iPF73+Sl2LBnInCB+M2yptOEIM2cjRGh/I2KjPeAcPcFYjSNUn4sB3HOOo2LVjHMbuf+3jCXUBGMbqBA0wMJEJwxy04IOgnZwQ+ASvoru2OApK3oQP8C3nQXyHP2hAzCN+1HeAR5QEHlGHEE6OmZwxaU/MMd6SOpx6W6gonhS5wXEUf0gepRDAxiwNNwc+Iah8JgAyz8aFY3jXPKgXD7OLao+dFH+YS7TiZ6TgyV5e6ubcGK0ndmnz4UQpWsE6JTyAEnPnM88DbAAljRB+xOMcUX0PbNAg4QcprntpU4TbmU/OcjJrqgtAtffYp6yBWFucTGlb1O8ZPIYv8By6GHvsH/jE/Fl36IHu1pZ5RGd9tX/gUcnD1Bf8Yd/As9a5/YStXmSM07Z5FkkT73PgjNwg+MM48CxQ4nMX4NkvpVI3z/Yyoa/2BrSO/YOfjPc5kNs/0BnfGaO1o0+ApFBUYNLaC/4wP+iA9vYlY2TqElWiPand8ab1FfuHeVWfkzGHYwcA6zfCc31m/swJx1Q8rlgbHIGtAenTrf/YI+3tNIbGgTesASDTPmu/5RiN9taDdWGOrQFj9A6eMnYHFu3JAivCxmeKNaSQA/hNGDO+lUfF3hDyBX+QB9a3ebQGHE4kYEMDtAj5Yiz61ElLpi7vDxo91O/e1DiAYCFZGO2KjcgGSej42yQQuoqJIHwsQhuqyQQY/I3plHDk8A5mxXyY12ZPpYzQQmswsPA1jKHeCL+y8Vhg2o96TbLEKwSHxaGo1yKzwCxQzxOyBLZFrl4e7jY67diwMTvm9XxsfBY5YBCZ3rSjPUxt07S5OFHpV2SNM0b160tcm2qx2fAxvDYwHdppu0w7dDIufY0QMPWiKzoYY/RF34J2BIINgnAyFhnuFELMGP2vPWPupbJvnfcyQLCpW7w2QDxiwQtr9JlNWDSATcVmR4jZVAEFc+pdwp9AiygZ9EBTYZHeIyBtFjZHC9iGIVeDTUhEhPGiu7Zkg7R5Aq0c3tAnLgNzfbLNYVDVN/4I2sU8oje6R8gXWtuc8VcIvJgTfQiv/0gSpC8c80SNmEdzgC/MPd4Kvgv+MDafBd+ZD8IeTSOzoXmmWXHKx4vq5fzoxOd/77auLfwB3OKP4Lvgj26bVQAEfRL6RqhYI9rQLl4nIOwH5kafrAn90AeAxrvG7DvPew8wUIe10K3EjYvewSuK/gfgsLbwEfrF/tE6Rjxv3fs89g99BmqsD20AvuYJjbWjf/YBY7UWY//AH/jKXBtL1Bv8EfV6H63K8xh7ZOwf9kf7ZOxl+qJt/TVG+yAeM8bgO/sHevpOf5XYy/QFD8f+gQcJMPWZa2OzL/mtb7FHWj/4KfYPbRsjoacdc6fe4LuoN8ZY3ntjj0TbWAPG6UAYadNjT9d/9eMdfK8f9uwYY8gXdFYvHrBH2m+DdsEfZfnSOkY8jH79yJcYY9RrPZtbY21ngpo7HwSTRKC2KybP4h9UyPSLlvJzzaNAGSDYCCB9aJwtHfr2mRMezQiB7tTv9ELbY1OB8G1GNiWaHCfxCCfET4QIMwONDMABLDhRORUSjOqy4dksJCMBJJ3uQ9hRq9uIaDkAEMLCicLpZJLFeAltm4uT6qCam3LfI89Dp9z4NlkhkJwgq05sEwCBIAPkCRqbvU3YPuEzbeILp0zCzkaKLwguwoYGjaB0eLCxE7LoARw0wTwB+ISQmiTPNK1tc2gdi/CY52LfoUlql4Rs7gDCPDNCHvv9KQAgEOh+qCyd9KU5pjpkvnG6t+lTv1NlE1SAApU4oe0EbWE5BTE9EOhUdk5LtAUAp3fkVKCNoFqkHYgUzdSw1LbUik5IhCDVInMQsw4VvtOKkyGNDiFKZawvvfwX6ppvp1mqbKppKuRBNRmt/eLXAWR0Cv1zokIzGoRRgEg7egRAcLJy4qPSdxoDypxAaXWcsp3OnLqABWDCyRWwAySczgE8AME75spJG5gDHiZdABanVnycy30pgKesz3l24KS9cNBpt584BNnL6nLkbJyJIRLWtFsocuhTL4dqMZ4ZJLTNs5CpTXOUEKfyzXLDMG94aI+6ebfSyUmp09imcfMhuAl8c26jZ+MliJmiCAG+AU5g/EkI80h5bMN12nTSJzChcHZz/iHsqRYU0AFIsP2xWRI8TnJAh7ZoFfhNcFYkgNhLCUPmByo/dl9Cky3WOzQQeIHdEnAYt6ZL39BKamRAx/iG4c1WPmFTNb5Omj2qe6mn+X9UDRBobIzLaZ9qXFsKrRAhT+CbC0KWNogK2NoCCL3D/IIPAAQaI2CR6h5dAIlx5Tvotvb0h/mhLk/0aVz30Wc8RTtYtWZqmmjCx4spsx0NaO/s91XLkaBP4wBCt0RJTmdOjxyebPQcXmwMNnNqX/bicnHKJDBt8FEIE6dNauR2qW1tKuzU4fzYjpFsNJKsqFvxDqebQZLPECocoKjQWgtUGLHR/Wy4119/fbIVOoHY8JxyqVebVAYBcf30O8Ia4wrfsiAst+Vvwt8pGFjwf4QmlhdVfE6oAxROLeaHQPG8+kPgl0Mby/1oDXkkwGgenHoJI+3Fyddij3BKgMez7KCEIWGhEHI+6ybko9/4BUCiNQAOqtxQgR3AvZMjFLMgx11OYXWdZNCjTOtONOkHuMd8qrMKANUPv3Z7Br8xlSy99NKjVjVz71uD1k9dTnjTTjDOmuRhXdmHGwcQeLvy5m1XqHTZXCBKwp33Kzs0T17qQ6cLwtvpgnqRwIawnKj8pk50SqSF4DXqVMiJiWqSQHVCosbhoc/uCnxQcVLxlE8aEL/2gRngRD94jTvtKLzpbVRAhE3epu8zQsLmD+hwtqSy1g9tUIVSo2qLWs3NedCzU4V6nZSABfXps9++I1iou51eaVhEIlCPa4tNVt36CkCwz+o7tSz1avSv7kWC5tT6+lil4Oq332jey1u9XJcoCbzEK3wYLYC559lNqDp9S/hinvg10HzQMNBoEFROt3iDKYAvBedGmyGwx6SCv2wCwIXnoz94wntMJsI/1WMdmOeqhR7Qweej08VOeMkzAEJdJ5l+53qQ52gV0KpOUNNPfwAsmo4VV1yxn8fn6hl7HQBtP5vX4vDLF6rdHpZ9ENpwBe9xIUYckGysNi5hJzQKTnw2Y2E8PNmFE2EuKJ26mqOaXP5O7mzONl+Cl7MSwUCYhr0VUFEfAGGTjzjwAAjs26FaFVJpoQvxARhsOoQApzchg6F+pR2gMvKuOtm3oT9jsNGyuXOa87xTrJMvVTaAw3NfuA1bLKFHgAFD1L/AArQNYKjX+4QRYePUqk8El4x4QBChDUDpS11Fe8wATqDuRPBTtfCqq++j1Bu3JcqzwNRB0yQKgIMkkNsNIABSIg44ZuFjHuO0A/gYeMAT/AvwOqCMphz0AMa6aEs7EDzdji5AuUyKAMIwgGoUWo/yrjVgXwCu6qJdP/2zv5jjqkxC/bQ5Lc9ESGqvaJNpGc8w/ezmg+AQS3YNeotqv/1onAYBQ3TylnZ7nvAvZgInK1mkxIzyamdysDlRrxLWhBLbsmf9dlq2kdpk2a2p4YXHySnA6czpG1ggdAEEtmdC24lcfX58rgRACLUzASB+VZwuTYQ6CWYbPZu4zVxfIWGnfWYS9bNxAyk2BoKDkHcCJPT1EQASpkcIMCNgFOOU8pZJw6bCLosm+u60ql0btRSlzBjAlPjbiFMGkLyjXdqLUGf3yzCDPAf8AGlAiL5PchMepN+jPkubBfEDqeZN+KRCg2Ke+gUIEfLG9wF/8J0Qyglw0nYBoeOgKd8NDqGd2sJP1gct2jj6M+r8xPvoC0w7uU9S8+HQYC8YVmNVFT2aWA+QHCbdJvZvHH2iTeZg3StnSB19aRxAIKgJv3aF4CTwqaklFrGoCVFqdELWQnOqoop1Knd6d/J2knOat6HabAlfMeuEqOQWfBf4JMSVu4CAkxxnJyBCfU5uEboWAIF5w6JmkrCBEvzsiLznTaYNyPe0CjQWAAIAwLwQAIEA4U1PqN98883pVM9m7gTJBOHkRoNgjNql/QB29IlqmQc9UKIOm7QTKyECFBBGzA20K7QOVNjs1AQYdTc/i7CbV81caM6XA0BiOpmnYq6cugkf/MccAOSZD3SX7MX3kYeAgHUCNz9lDQJ+BpbxCP4AtGiD8M44b7kDwvF3p4JPjc+amiaAYDwOHcyRnRwwx8G3TB3mVyTINGlgxkEb6ycusxpHe01swyGu070h+IZcrEvD0jiAIIyNwG1XaA1slk72hDPB69TMb4HwtkHJsOg0LxadR7dNWJIbAh6gCIBAuAIITAqy9FHfE6KuXQUQaBj4Ati0nYL9Bl6UAAg2bBs9OzAtgY2S8Hbiog1gBhGeAqwAHybZKUtMawAEQsM4mA5oQji1qY+WgO8EIUGLQbPiXcKFfVsfCXoAQd1swIAFdRMa0YpQnwIXzBbMDTZ6Jgue3nUBBKAIGDIvhEonbVATF2JVfQIsCXz0dtrHV7yQgSa8Y+7NHwBhLoHAAAjAMYCJj/AXDZK5woN8GgBB/MRUNK7iBINnOxX2c0AU8J22whxkbU0y3BFIB+rtQ5PUZDRx7vJlVkUyBzMLtwOPc+eDEPe8t2NWwjIyShGMhDY1ulM1R0DCloD1P3UuoW/xhWrX6YaAZIbwLNufsDmJVwhpwh64YJ5gCnACJuxoHwCXcBKxqVD5ErpS6rIDeVa9vlO3vrIVOxXwDZBuE/ggsGkavMMx0RgAIoDEKUZ/mAzUhTEku7Hxcqy0WNTNZEL48JkAiDixAAWRXVDoHu93bWlHH4EM2hZCpiycAKYqC7MH503am3kEB0FLJ300x6fm0+bPzMKnAPDjIxKpWznA0hwAE0xRgANBQfUNaAGW3mGyATwBwX6iW6qaV+AGz3YqHMkAcmrQaStNuCwJqHaIofXLAOG+HARs29ushXnVrtBKkw/t8iAwFTtMki11lMZpEEYZZDlUrR9VZ4RNabMd8w1aX/Q91Pb6wBveadApP9T/kTktno92PB8/ncK12oV6dXs2PN/7occotPeuVKbMGTQ6BOE42hy1z3W8D9jR5HQKy+snXK+1X8PyYhXjCy1Zp7qYxoBcIHjaCroyL0q/Owkbb9ALYKQZmnRERdPmz/7lIMQsPK/gqZuTYoTs1rXXNg4gOIk4Fbcr8hc4RXUKt2oac+uPDYiTDbMBTQXntVk8WWNUJ02aj7picps4v+U+mWtmIOpidJiFYkxMHsx1nQqtHRNZpztUmk4HPiD8ANhyJ1VojWgtM0C4/wzQSjIvj1NrNik+aNcu07UDVzuARGNNHtYlExsHEHolSmLPrYsYTWKKaeuLWx3jhsO60GyTaUKQMvUQlHIGzErcNtMdx1b+MZ0KFbDU0sKIp7FwAmNK5JA8qcJXiSkwA4T7zwBHUuBtkFwmk5rHcbcrYo5fWl2HssYBBMlh2PzbFREHTuB5EY2bDbu35wQmZwSnurricZs14vv3hi+H/BXyW8wSgBWRwd9GNEqnYs3Smsj1MK1FmKEIqEnZuZlpCEH5LHK5LwWYLvlnTdIENMk54WTOGZFfWWuZu0yKk5yI3PbgFHByFl7JiXOSJ7DBe17NG8ZPxS6nhFN0u0VcTUuTqUWEAv+Ck046qWMHRA855UWUz2R6Olqr/IKEik0qpS/NqDDoSV3wNRr16n1bNBaH8nm9q6KbDwIfN5qVujLUNk6DIKyLzbNd4ckvcmBebVH1LsPhahf+JhwUwp1H04KNi8aLjwk74awV9l9Op0J2OxV3nYjaYIqY1iJk2CYrJ8IkCi2c9ptwedQkxt+tTWtMxBdv/XksLqITxi9F/rhL4wBC9kEYNwsM356wS9oDIXizYnMflBo0B+POSzBoH0d5XiIWoZcAYKcCQDh5y8UxrUWadNEnk8r4Kc06X4i6Et5M67zoN+duoeKSzuVyXwoIc5RUr66LvhoHEDhddLJlSkAkJ0B2VmnGMhF+ROMj3n8etQfyUUh9Tf0+qyFYNCMc+OTU6FSMXxivnB/TWkQx8AOQoXUSvAyg+AFQcrkvBQAnScbs//NY8KVQ+Xa+d3OXKGkeGWAaxyyskUpZ0qV5S6VsvvgeyJ7J90KM9qwWERmiU5j2OhU8wJN6mumAnyMhzyQAAhNNZEWdVV4adlyS5/FzkdFzUk6kw/a9ive6+SC474Vps649uHEaBCi6U150aWrZCOeRSapgtCrrsJk6OS5YsGAu58OG7kpwaZBnmR+FbRKY7lroVGTuBBYlG5rWAvDZbCeVi4CzGW998f653JcCTJnMXO6pmccINtcE8PWaRBRH4wBCt8uaXHQkrWsdYWTCuWwO1FlikqEyt+7Jk0+FLhe+zzGpREf+FiPu1ATU8GCXKtVpSipczwl5c+9BePdT1T7+8Y9PqjLqeQJWWmdqeimgbQ6QMpubkCveuxJDUXtKwUwYS70rIQ06YByFpzmasEV5xz0VcvXLbOeE6xZL9yLYhDyjfgJeWBWfD+GjVMhSUrujQlpgiNQYoXdOeE437F1SPLte2rMuyKKCBtz0UZGVDu0kTbLhcm5zKRQGd+J2ta6ri53YpMRWr/BAtGde4ojqXgJjNS7PKJyUhIAZs40UDdBC7gEpraFs9nIpro3X3Ai/k+bY3LGTOwVLbU1lx57JIcwYFepx7bl50eVd7khwOyd6oR0bcWze3jFu84ym1Hz6IF3u6173upSum9CchXLcccclUI7WnYowyD333HNhArC42GnRRRdN6wO/SSCloDsTId5wU5/5wYe0FBwimWrMBYFNrSzVLv6zOYqUMPfWkDnmvCYFrXfcq8J5Wb2Sx7hbgT0/6sU7Eq0xJeA/BS/Jbmpd4mFtadseoB7CSL2cB2U6/MMf/pDWsmgDTo0uEfK3z4wR/ynWBYcya9xFXYCTC9WsTZ8pq6yySgJeeMZaMB59FQUjJbrLuORFwMecgIFQfUE79nj+EtLrukvG3z6LMXYCrCIl8HjMgz1DgibzgLfta5K6icpBF3TXN+OyD/C1Ecbcbh70UYn7JMy3d4zLfAW91KseQt8z6kcv47b3mIegFxBuDaO/dW1/tW+hNYdF61cSIXuh6A97pueC19DLPARPBL3KPBF7qDGad/uNutAJvcyDvc3c4wFzhkfwnDHrS/CaOz2YHdHVmPATHjZGvGfswxQ82+nmVvJFf+sCD40DCDZzdt12hXCxmOsACCbT4rAxYQoTYnFjAMT3g+ExF+bwTGRJxACc9CxeAgNj66PNw0IAPpSoVx3qko7XotaGtmxwmL5cr/8tEJueDdFComHBNFEvYY5x9V9fol7Pey/q9V3rGG0uNqFuY9QO+hiPBYcpxea6P8C4g3btxoh5LYwYI7oSOMYY9RIkaGejQj9taKt1jDY+76ApGqCFhQugRb3lMWrH2H3vOf3Qn/I8hte6OVFvN9rZvBRjJjDxKbrbNDnp2ZwIAXVNs7q9vPZkNbXJd7scCiA66KCDFt4wKSeCjdacmFdzEteKx10q5sDnnjFHaG++lVjf6Kl4x9z73nPWnzUR9ZqDuO0u6lWnuqNez4TvUrlen6sXDxM21pK5VE/0xTPewbPa0X7Uq1/9jlEb5XrVjy7q9R1BBxTEGI3Bd0E7dNEX/xt7jDHq9Z0x6187MwmhZw3g19Z56Eav6GPMgzFos3UeynMX7/Q7D+gY9QZPlOlF6AOXxlWeh+AJ75ubMr06jbFMr+CJ1jGW622d3+DPQcaIDvo4jLbR3kVOtJvTufNBiDz27QAChAaN1mEjJJhM3qzFsQ+DWHu9A0k7Pe288869Hp3J74E5J2ZahmEW/DQRhaZotdVW6+oghg9cVhYheuVL1aZprE65Nn+AddwFgHb4cSnRKPubU62TdLtQcEIPv06jQ62TOE3NtO7PNKUAzDDRXqGpbacloEmlnajrQNI4DcK4F2a0xxzgdLn22mtPqgtT0y6zBdMEtek8Fip0amA0aLeZU9GGyWWa6eM0tuuuuyZtCXVtp8I8xpQ0zObXJPowIznFTuKuFKdR5rlRby1kkgyzSJNoO2pfmAmYCCaVyGrU/gOfNBHD5LnodVmTvtV1UGkcQDjhhBM6ZmTjCCXnfx1hjq6qBRB6hdLEzYkhGLrdpGjiRjkNjMqUdbxvA+WH4PKeeU0LK70pVN8pLps/B/+EaS9425pjTuKL0alssskmKRcG84xC0FGV17Vp1UVXJjlqXm2HAAAgAElEQVRaSiFl4y7WFf8EpplR6MbEZR7a1WFsBGxd9uo6aca2z7dpWlO50xCRBcOYx5nswsemlcbMw7RFdSUPbBxAmFSipLiiudviZMtm4pAQhve6CXdyYn9VABeObf7nyGJTZaefpXL77benS3ncPTBr4KffeeLEeOaZZ3ZMi4snCNVpLwDCBhtskFItd4tQsB6YWyJNMEfbcFabJhqw/VPzTyJjH/U/R0MOfKMAhG705ugLPPDvmbbCYZDfUYDQaet/Xf3l2M3htdP9RaO22ziA4NY4nuDtCocM3vx1oaVuxLRZ7rjjjsnLHZOGvdJJUeQCW5DNxf8iH3jL22h4489ScVKUtYtH8bwW4C884dvRIBy4pp0+eJ62iPmtk13eM+uss06KcAn17y233JLMT3UJurroaiwubaprs+3Wb+Ak2h7FR0CUh+iNdnUwodD6TaMdn4OwAwlH72ksHNfNyTC0pzXfaqut2mof5s5JcVKTLwyPhy/VcbsSIVmbbrppOj0Ka3RKAgiAAyE6FqcTgPBFmoNZBAgEhrDIaVRTVsVbvQCCzWAW6BMhaFScnVSjhGpo1IbZ/KqakyrqMRYOuN38Lapop10daM3BUNjdKABhVn0QRGPZg4W6T2OpywdBvTR3dflmNE6DINSnkw1QzDMb3SgLqBNziZOnwurkpCjMxqlZ3LBcDZhVPD11snz8oW4XNucZsfyzBhCoQZ0M68pFMQ0LX8gRDdell17asbuz4oNAaAG8HMQ6Fc8IgZRxMS6TEeVByzZtJqjIvWCdj7vv2haLDyCMkgyIHwP/j3Za1rrt1XWuX06cwquFuk9jEfpsTjolAew2Jk7CTLrtQECrT1zVtGkcQNhll12Sw1O7wkmFHW0YR49ehHPdKx+CdrnQTQJPbZoDbXMosoFQpTpNAwnUsLy4CVCaCKFGswYQoNW11lorOaHVAdJ6zVETvkcDAIBKvVOZJYBAWEYCoE4n3/XXXz+tg7hydlp9EKoS0sPyKTozb4wCELoJjGn2QTAuCZpEMkxjGUWQM1ky17UDrSKqItlYHXRpHEDg4MdLvF0RAmQR1QEQuhEXeo2sg9SpPIWp2l3D6UQp8oKXbdnDVl9nDSBwouKwJnvhuE9YdTD/MHUyJfErMeedCv6Y9pA/Y7Mx4XMCv1PxDG3Zeeedt9DnIE7C0wYibeK0lLJ6jnuPQV9t2zdG8bHiLR8JlVrnTGiuE+wwp9hh1krV78i9UtethVX3tbU+PibKMOBPDgWa6XbrKfsg1D1z/1c/L1knIFqK1sJBhopHqt7I8HfMMcekeGnojXMRs0N5U+GHIOKBA9esFEKAo5O7yee1cE5k55VhsFMhaGYBQBH+r3nNa7qaU2x8UmgzMUx7MW/Mg9IOD5sWdxQa2EeAk1EAwqz6IKArk660xtNY6vJBuOCCCxJN6jK9NE6DMKnJz4mSelPe/QK8aec1QRIKiVBhjup2/TFTFDpNe5EXYPvtty/kCOlUAAShyS51mvYCILDh4+8I2RznmIATGfEyQGhPdVraab3Mqi6AMIrpoh/ebhxAEMYozr5dkWqTp28diZJcmMTzvFPym36IOevP8MMgCEbZwKadRnwP5MNwOVOnMis+CBLr0JTQhnUqHFelY3apUxQmBulfpy3MUf+FKruPYRImoioAQrc013KYAD7TamJg3uOAOY2lLhODu3U4L9YVQdQ4gNDNSZFKnylgEvbBaWTKqvu88cYbJ+e8YexoVfdlUvXxP2CKckNlp+J2yl4ZOSfV/0HapdKlDWFO61Q47LqHgS00yrQ6Keo/RzgCNC7xGoReoz4rWoTf0igAfFadFNF2mlOYj3LS7/bu3PkgcKRpF0mAQaj/ZCecNuenUTeOprwvg+D5558/1wDBddSu2O2UzMtczYoPAqc52oBu5hS5P/CEy6uiiFnnsDuNfhgik2gSJ5GQpwqAwJHYHtkOZHBgjJsSm7KnDNIP0VPdUn4PUte4n3ULrTkZJhOkbKYylbYLc5w7gDDuiYv2ZHC0qa2++uqT6kIj23VFLLUkxuZw+clPfjLd0c7bug5TTyOJ8H+dIvgtSLk4Xv3qV3fsKi1Xt9TETR5juW9yPYg97+aUKj8IkDALPhfGjt+pa5kZxl0Id5d8RbjoMO3PspPijTfeOJE02MPMQ+s7dfkg8BPCL6PwTLfxNc7EcMYZZ6QLYtoV+e35J9RBjF6Jkqpgkmmsw6kGehXS6dSMTtTn1Mh12b2aSicAgdPeXnvt1dUWOis+CMJZRTKIUuhUmCBE9siPEUU42nOe85yp9EGgwWTCFIE07lIFQOA3QvvRTsvKXi06YxIRGlXQ8oYbbqjtWuMq+tetDoKcT84wF9yJEJKMbBIHssYBhEld1nT33Xcn9dsspMitktk5oWHOU089NV39K9OkDbSb0Kiy/SbVJWugxEFSD3ezE9MyHHrooU3q+lB9EdrLFm/+OxX+B7RutCpRptkHgSOfA8gkrny+/vrrE/Cs4wBkbqY5UZL+MzELA83l7xSwRq29ukwvjQMIsihyVGxXtttuu5SPoK4FlBmvPQVsXDQITiBShjrpTALNTnp+4qrrK6+8smtX2Hoj7fCk+zxK++94xzuSSreb2W2nnXYqdt999+J5z3vewqam9bpnA7jjjjvSQcGFR+MuVQAE65NGp50GQcIdduy68vbXTS/7DtPmNBZprmkQhnGwv+KKK9LBpJ3cyz4IY+IGtjuqt/JJaExNN74ZqnUCgAOXKIZuDnqNH8wIHXQHhXC+bmF/qp8FJ0VjOPjgg1OiJPcDdCrMTbJKShg2C4XPhY18XACh7KHuhGydhXZqGCfPWfZBmGaAUJcPAp8ZgLCu0NXGaRBkLezkIFTnNbLZB6H79i7kzXXXbrub1ygSWcssdBk1uxXXf++3335TLS8JLs6Je+yxR9fsdXwN3IT61Kc+deF42Vv5pwwj4CZNtB//+McFU5JIlXEUPh5yL3BOZGMHEOTZkN59mD50y8aoTmt3WsOU5YmY1gMc7SvgR5gPWiZ5g27jAIKUxZ3y3LsPQRa7YdQ0vSZFAiabWl22nF7tj+N7mz41ufsjqMGpvWzmvNDZJ21MPvNd/Ei8En+7pY9NGv052/jthzrdD/qx3cpE5znPlH+mdWOKueGgKJyvV7KWWXBSxCs0Re9973s7nqYJUhEucgeUnfqcYl2JPUkgKTEN4Rs//sf3+Nvf+h6//R3PWR8Kda7+0yb4Xf4bHwe/2/Tj+/g9KDBy8BElRHvhrgFAYdg7GYxF++364LSpnWFC7aran8pzEn/bX8wNfyefxbz4O+bGb3uR/abTvPjc9/YhJtDWeZlk4q5R8iAAdvix3ZzKDeFAvdhii1U1Rfepp3EAwYnFptSuyDcNbdcBEGqh7oQqtbAIe1dSOxEJRaO+5IBlMVo8nDHR09XaToFuSVt00UXTd8GIsdG0bjiYvfxjmBawRQ5sAHGEho3P/xa2jVf9VNGy7DkJUIsRMEw7g26q4yYtweKmPVEdvfwv0BmYneZifl/1qlcVMox28nq3cTkRsduXMw/y0ZCRtE6AEPyHrwgWQJej8T333JN4HD8RCDbW8Nz3G2Al1NsJi3Y8GBt7zKX/tYcffve73yWe1zZaWAOK/YmdnyD2W3sBJNrxhPXh5O9ZdFS3NTnMmiBc0X2SACFohE7GZl7sRQHO0B7IMheRBdDchFBvpVE/8+Id+14cesxLAMIAGuYAeDAv9p6YF30ZhtaDrO/gjWFAijEBpO36OHc+CBipfCtieRIkm4CU6phMdWOUYVRAgzBKHc+6QIl9XJywH2MheJ/ylKckECB/OZRp47III262Djq2js/CsHnGD2anrRAKJ18AxynPUFG7IltfaSCa5uRHUHIW4oMwzCKvY97rrNMmv9JKKxWEfSenYIKRpohZsBz90+3EM2yf9YfgJ5TtEdomDPWNoCFgQhibn/jpdJoeth/t3guwgo/jJ0CL/up3qPcJKMIpwEqsQad7a0G/AdFhwZXEVi9+8YvbRtmgV9ClqvEHGDAfwJm5AQrKWhbzYj2X56XT9cVV9asM6MrzEiAiwJ2+GoO90bwEYKla22lu8eowKbzNp2ud28nF008/vXAFQV13VDROg9DNwWsUNU0vxpsWH4QwEzi1Cbf7+Mc/ngABR7JNNtmkePnLX97zhNuLFpP4Hsi58MIL03icwKlYN99882SbDZ+UcQCaTgJgs802K/bdd9+0GHsVfhqE6zQXfEbTc9VVV3UM6aSlYlLyu6xVGXWdxvthFgBA8IcCkIjz73SIaDLNjYsgZY/2Q3ARGMwz6EfTJ4vsKA6f3ZwUR50XtFVHqPuZHAk+AMiBxDiMZ1hwM8m5o4kSAWI8DjGAgvHgszisjLL/jOKkKOkaDfAkLhBrHEA4+uiji4MOOqgtr8heJ5NfLxXvMIzW9EyKGBiTnHPOOclG6YpPdyNAl6GaG4WBh6FZHe+EbZjQARjcnmgDkuZZDoZJZCh0SQxwwBmvH+3BLPggOGkJrXK9dafTlA2VhspclenCmQyQGkZQOHkTPBL+ON3R6NmonbzHdeqsg69b6wxBi7cJpV/96leJz9ETABo2lNsJnnBrx6d8HAi8YcCVdUlDoK/mO7JNmp+Yl1nYf2JegFOgFJCz99Jcm5dhk0zRIKHPMPPKrM4E3G4dMqMwlQxTbz983jiAMKlESTYmE1i1aqmfSej0DGZlw5fJkOpQkhCnaicMoKAfYTVK+01410K1cToZfeITn0gbqUybkveMwwxhY6Q94BvTLdyvTCtqv26XOTWBrr36wG6MzgB5J0HPv0X6bYC1XIZJlKQ99dnwaAlojcIfZhYETzd6l/0pCCQaQRu+KIYqTZ7DJEoC0swLYQl40BgxJ80SWOs1N8Ay/gSO0ANgxZ+jXKrVa/31+72L1PgK1RXd0TiA0O0mvPe///3FzjvvXIsQr0L91u+k9nqOUGKjP/7445Ojn9Or03MuRQILnFj5BGy55ZbFpptuWuvFQJLXuKBJSuFhTsTmsuzoVnb8HHY+bVhVbdChsWk9gRAmRx11VHHaaad1BKLSEtP2SclcLsxfhFsvAIsuBI96tM/3JGcy/Zsan5qbX4LfHF6dYHvR0xyYN8+3O+gQchFx1EsohsMxbQGzxyRSTw+7Pup8z9pzaGP2olF40pOelIBCLxDrAjP7xzBJqlwvIHqq3YHIdeyrrbZa8lupozQOINQxyH7qpMq2OQnPmmRxgpCgxskZU3A+GYeX7STHPGjbNlAb2CWXXFKcfPLJyfdCls1hBHi3tm0CTshnnXXWQHZhm2okLgHugBn/U51LLCQr5SiaKjxBjV/FXRgu3jrssMOSE1S5qJ8/iJwOnTY/uTHkiS9f9dzPXJo/G6ZIFx7lBFo/m2w/dc/SM+hENc00gKeY13o5uY2aKEl7HJ5pVM0Lu/c4HD2nbd7sz7SZ/KWANyCqG0gYxQdB3bR07XwQAGz7wDB3PPRD88YBBBtWJzRkw1p//fVH2lw7EWXSTopOcjbb973vfQW1EWfDfk4M/UzyLD/jhCWzISF84oknJltdFYUzmSyC+++//30uIuqn7rIPAtOEuZRTgHqSilaoJM0QVTqgYCM+77zz0iJ36VFZ8BMSHAVFp1gXVIluWZT+2Nj5aYhWCZ8BGjh20ptuuimtFaGlbMfMM9rjx4OvhKK6ztnJnZaAr0G5aIPvRbernkU4AFHMXuVCFet01cq/oUongAA8fjTjMBP1M2dNf4bmDN2AYKHJnWzOQJvv2wFQ/gnMNu3CxM0NnxJaC5qcuqLFmk7nQftn3wbg/MiP0umac4cDczKM/4dDxuGHH972QFC35rtxAGFSPgjUohbdJFRpFr8kPIQHcDDK6XJQBp+V521sMhy6F4AQ7KXy6zZui55A5/NBmzNoOeCAA9I8KgAC0LLmmmsmgUvbQUUpIY4f5gtZFwl/i52K+GMf+9jCJqmFgQYJxN761remWzT5QgAYAIBIA8/wU3EqZ7PmvEpAc2qVGlt2PlkRnWIIbTSSnU197jYhpFsBAsAM0Mie2alwmCWMVlhhhfs80s4HwdjU5yTE/EA1m8tgFAiTjPBgNO+UPKdTrZ18EIBLgFIB2vL+M9i8eBpvcybkm2AfH2X/GaR1zvWAySiRL93aaxxAoO70065IviIWvY4ohkEmpcpnnaS22WabdDsidXbVavIq+9r0ughIlwcRnBwLh1mkkD6/BgL7kEMOGco7WD9CHQggENTyPBDEG264YTIz2EicCCNENYAIvxM2ffkWmCWo75kUOAyuu+66KVcEAUugA9NO8dSdtBCAh3pFAAACQAKwATAceOCBKUbd7YuAgf4BVEwLwEwrQKDJ0k63mxz5guDdVtUnzYTomrIGAZ8DBzKVTkNirCbzuhh+PCUUuNXMRPNFE9VO+4g/nGDL8wV0AK54zf0TWWs5/MxbhzQ4/Aysx/L+w2SjDOPYCBDaP9rJhrlLlDT89Iz2pokFPKjXxlne8pa3JPsVG3oTig0jsrFN42ZB7Q5sOcUP4tkrlEmkCIcgJ3pCfBiAYQ6dyGIxl00M5fllFrBhO3UwZQAGCo9xQIAwpQp2UqTdInSPPfbYdO228cmBASAwP0Tefup+J3raFPNITcy5ki+LmxnNq1MkjZWNioMhwC20uBUguK4aDbrlcwA0mCB62T/Rg1mFJmPYMLFJr43IhNcUe7w5lGbXbZvlA9MgPgh4hPBRxr3vleczTE/jpm0d6nm8zhwIXJfTH9flg2D9Co0t34VS5VppnAbBpHXamOuY0CDmJHwQOCSycbMBV6XWY6qgQo47JZwSCQyF+tmmbjOwsRMwwEkUarJ99tknCScnUadN6vF28xGZEZvodc6WSgtgs+wl5PGU05gTttOY68Y7XRbW78JzlwiTgNILIDhZAAH4wMmfoOZ8GeDMZrP33nsXb3/725O6H0jYaqutkg8BUwptCWc/PgY0F60AgerYHJ5yyimF+0aADeCJhoXvBs1FOxMD3gAspPztVPAZ4NFq0y6vU3/jP0JskMuHIsTXe6POR7/z1u65sDEDnoqTNs1ML77q1CaQxrENQFR3ObX5oP3E5zRe5bTMgyRKsoZdzT1szorW/poztnimD3PG94VzpXk3VrzHDwZIpFFiGmPS9Q76AtXes6eU6ateAtZvdQ1De2sjgDEhrh/DhH32M0fm2M2TtGjR11EAQk6UVKK6zZBdtl2Ji0zquIuBUxbV0Lgy4FkwTmg22FYbbj9M2O4ZJ1KnZupxAoOQccIQrmZhCSfba6+9kkDh5MabPoCExUeo6stGG22UFqTQSsKTfQvT+wFk/HAYdbshYKU4gUcikHI+eJ/bMCLcT58IRe2Fo5UFq87QXlSR9INjj+RKkv2US4T12bxspoQ5J8Iddtihpydyv/NSdlJEa0LFhlQu5WyLgKIoGidxfW51ZAIYCHpZJVddddUk6PkhABQ0XxwR9Z+q2Hd4OJwbjd8GzImTYKOdMAfmlVbCs2hCXV0uG2ywQbFgwYKuXvPCTIHb1vkCctDUhm9u3TOAJwfRSOEb2hV8wcaKt+IUr5/+LwOR+D4OGOXvY1yxWbdeaBT1RL3xXIAUwiuEHLDDf0I0QbuTb2td8b/fxu833jPXeCMS4JTr6pdOaEsQMTvFO+jWKSKEtgAvihwJ04KxVHV5k/4AHNpnFgNA+MrQHKEhkxreJvCABX02vwQ3oKDv9qjyldfmxH6Ct80LGQBUlXmhzLfluSvPOzDF/KIdY9dHfXP61oeYmzL/9Lve2z2HTwAha05BG2UYEzJwE7knWtuicUTTYcIn+xlf4zQITryhbm0dgNOu/AB1AIR+iFXlMxaMhWLRVHEKt2A4wjldUpPbOGxCAAI1s4VA6AMQvMw5qZUBAvW0zwgOTGxRygEQti8CgwbCQlOfE7INjuDhCEc9b5HJU0FoQc82PwJKnQCFvlA1E4YYmiaD8xyfE3X47owzzkgn21ELoSrzIYEoFIit32nLqYGmxLj0DT2qPqFKmctfps5ifjgv2jAJHGMABKsqaMOM0WlDs+EBkiJvWu2q3vO+d+PuDeBmkGLOnD4JDU5fBJsNPW78s6kH2GM7j1slCQi0we8hFOKyHkKLYIqLleJmUgAq3nOyjxBV7+FlNA4NX2gSfEcTEPQBovl4AG3RN3Zo7QVYiYgVdVI/40nrwN/AfbTRKQqhHf1CQxT96JYjA+9bwwAB2gGT+L8KQB6nfPWikb0aX9iv7QPmAp+aP/8Df55BM9oEdDd+a5Mmr8x3BCT62PcJQ0IXXb0XYE/7/gaWPRd+OHgBuMNHAAJtmb/1MTJ1qocWhm+HOcE7w2gpyvNDO4Kv4gAWgKZf8FeuSz87aZrmzgeh12VNGGAYIg+yOY3jWcxogRDaVQAeC5DQI/ydJv0QIISyxWLBWQhvfOMbk81Z9q0yQBAeJ6cAQc4LnfOZQuNAHU2l7fQKAKjXghSaRzXPCY49VP3QP6HBO94pl7Od8EPx9J4HKAAZC9R7NDeAko0EswMWPh+1OMVyMqSWB0QIERtWXOozCzwUN+WZ26pz4JsHJ/9OhZA1T+a0FUSUNzRCAY/zju+3xOmWoPR+qNEDTBPsTqo0C76zlpwMnUQJP7xE6PpRl/+BcCBCXwioAC7h3Kl/4tq1R0Ao4XQGWLSOUfsEDzDh1Evw0AQBE/iM4La+gQindG07BfsM0PGcU6bfgDaA5xmCj6Ds1xzjXf2N/gHqnYS+8RB8odkJLdYwp9rWuQwwZS2bE3sBOgMl1lwkXLKPeMbYAzT6m/C2JgEm35c1Ab43v/ofvISuCmCB1gR8pK027zEX6qU58b6/CVp9BTp9bv69b/61Q75UcXUyUINfww+qrsua5g4g9LuJVP0coQadsuuOo0DSNh5qbsJr1OLkzemMMLRA1Q+lUz/SyASij9zpEkKVAYJNTmgfrYHNHwKmfrfZOYXvsssuaRECIkCCQjjwrudgGXSzwUosZJGvssoqSYg4zdukjXXXXXdNC8fGyL7uFAOEMG0Q6DbRKi4lYXO3GdCojLs4IQ4iEMfdv17tEar4hhaqU7HZMjGcf/75XU9bTmvAY6sJo1sf1E2Imj99UQcwYAMHDghlfjJ4Bj/ajAlYQgO/4l8CwWbvHYInTqv42t+xPvApYQKMWDdAgr+VdhoE7cXFPqEKp31TH62HPhFuBKF1rU/acCq2Hgk0QjMAAiHqWf8T1ASJ/vdzXTjaWENOqQF4+3VS9K75xadVJNyy7sPXxGkZjdAnMjKaF/uHU3VocIzdiR2oM3YCHm3MT5jZ0JUADy2Hd9ULKNCQ0ibgL2AjwCgecdBE9zB7mIt2AIHmB/3tOfqCz6oATHhKe+H8OYoPQrdESXFzZlU+bK3rsnEmhv/f3p0G3VZU9+M/Vf/fm6SSF8Z5ligSFcGAgCCTKDPIjCCzCJQgOFxAGQSsOIGXwSCCV+CCKLN4UWYEuYgIyKSUIkRxLI1SJjGpspK8+vvp/Jrf9mRPZ+iz93lOd9VTz73P2ad379W9e61e67u+C0rb6besOf06kU7DJTbcv9Qyi2RWBoL721y9MIBsk7TobuYBsDE6UVmYXPbRDTycJztsIHipxY2FeHgKvCxO+pR/LKsLuMaIoOS9nEINgIwMCIre5sbNLbWOh8L/vdxeVF4IQDsbKHyE2Bm8iTi4zR4/AN4B3530BbU5SRmN5EOTyHac705SrMl64PXg0YlN1gKDB6VqjJeSEZmaHwagEyfA4jSazVV6oxTKqkYpAzGqOzHcKEKKJ8Z1nbaLm37TGJ2iKTDKVLOBUyLGVWUguBclRGE4VcdTIOVt7ZObdcxV7d2gTCh7iqPKQDAGCp6SIl/KhuFCefPKMbb9MHhjeqn+GDYxvl1nIFCGxuZ5KUR9+ZuxM26aGi8I2USjxPWexXfL3iGfMQZivJoxxCiKBlHT/eo+95z65smylzCSeU7sEzH1j6cjGn+uM79kF4Govkdu1kocoz2EkRGLtDnIRGPI/ayHMgPB/sIAYRBaq9ZPmYHg2eOYjNX/Jw0vWDfCqgy3qLg9g3GPQwwmJEsvlek9e525nnTPrJrb3hkIXRElFd1vk7woo35XrHblypV/lk0wah/cd5Q6gyCC/Zz4LVCeEUZXMVtB/8BwsArFOuI2EKd+xoGXVwyfAgBedKL0QvoOz4M+3VP/XlrKnhv3xhtvDKchCs2LS3kBY2ICA1QTkmDIUHY2b0h4ysjGymDi2p6keTkh/cmBAuuiSREclX44jtMGyXizMcYGZS6dkRJiUNloKS2nckyK5OlvdaRGo8jBSVB2g7mtak7LQlUM9uE2TJTEYOUZEnJq2nxjSIDijNgGytza1CgEyjQqBUqO4cAwpmw0Cpbii7iCOD5rneLwvvjMPeLJn9FAmfheDDH4nn1BvzZijdKjyP2fcjZeLnQKLNZPiG78iEHwm/LhRfN9rm3KK56mfc4w0JdnG86hr5oDa8EztcUwDaP23Y9hr49JvXYOAmQYw6UMKIqXLBmM0aND3gy4WHCOHCO1M7kxblwbjQAyjgWiyIGMyS8aOq53b89gnbkv48PvGPcna58VDYTocTK+SBRl/NPwpnh3rdm6DKBR3se6ax3I7MOT7ptV9+idgQAVz3VZ1uSnE0gKD8K0JmzUfigEgD8KtW3ccdR7jHK9l4qrj6VbjNPbKDWWqpfc5l1Eg3N1+axpbmxKrrWR+L6XE6hP0REn1kmwAfpjoFBslOY41voosqq6lht0XDKvOgPB6ZgLOZZY5h1iICAsmqaBgO5cmEiIqarZBBmJeDyGm03dSaw4lzZsJ3bu4VTu0CIQbDhTIY7R+otAvlHWWtkBwj38xOcxd8If3g3Kn9Kqu0fMXHBN7Ms71GREGT8ZU2ZwR8XrGUCUX9mJkuHvO0Uuin89kdsAACAASURBVJjqyKhPhYRveqfIgXzJYRonYUYjgyCmRNbxK5A7A9NhpSqlu2n8xbXl3gwY3tAieDdiLJo4Q8ruhbEUSLxsT8kYhLazM+F1XLpekFRVsaqGF92YgH/c6zbQpg1iwkft1dedCBhIQhsAleM2RgtgJBAkT0RXxoHxRwNonGepMxCcnp2ubBQ2NacwRCl4DaZpICjx7NQHE1LVuJQZY5HvoelZrXNGBU+ANd5kSDb118fPuZE9I6VjnlIoXOucy56nYdg4IJO2GISiUrNeAVJ5HGNxpj7Kt+2YGAf2leHU4rLvx9RKXopJ54txBmvAszdsBKfCIAhPMUrHqfHQRp698yA4aZisslZ2MmnzkG2u6YIoqTguLik0vLgHhFmmkdnQ5rmXwjVeTIpKGET8fxqnkEnkQrHCZozTrH9uaF6ciLgWYxY+4k51uo+ucad0ilzYZ5oGAm+W0xzSrarGNc0jUIZ7sEGX0SkzErjxY+ogV/0iGcPjrIeiIrdHCK1wXVsLZbJThdN6KaP05S3wbpR5cHglxM0pGq72rt+hSWQ16++Sq/cwYhiq8B/mxJoftcGC8Yq2DSWN2n/d9b0zEGz0Va5NsTlGQgrlCUjl1DkNwM64E0Qp2Jyd4AAX4QRyq5aAWLKaAeYOE6GUolHcxqlkOwlIkSvSc8BmMHiED5wQ4Cqc7iDP4xoVe/T8MlicLFE2awzscdcxJc7g4M2xMVU1BrW4e5nHzSkWjqJKyUQCHac3yijV6SfV/M6yX/MRU/WsbYZgnXesLQ9C2TPwfMRTsL22rCLnLJ+97/fyzgG92ofIq87gNY/aOAax96WqMJfwrHunKn7WOwMBA97y5ctL14aYnjS8FAZCnxYjVyW3MXS/0yggY9wUxllgfXq2ScYSXzLxQhkUwJ1IlmRA9EkuxjcJ+ZINRyaPmLHYMCPAmoc5ABCNabGKLEW0vqpusTEsgVTHaWTMOHX/OnIj9+btEi4YbgCVGBqbTqHWuZOXzQ+INlLs9mkux5HhpN+J65xhAADMI2Mu2rjAm5gUofkjEVTVON0fkBBgkwFH8UWvwyLPTZwXCts7zr1v3cZsm7p5n4RJkdfN4aDs8LNwGIQIgCsTdh2j1KQvJcuZC6hN3GrSe7X5Pmteeo64OjIhaYNSDMs25Db9zfs1XkogRkaB+KIwDLroKlrZeX/eyAxnU5jlpmzdSZ9klNS9Czx9MleGs2PIve4UOzwvnpOhANgVKXe5z7vEkHS5dqxzoRtYBkYh+QIWtvWMeUeUAC/DeFQBN8ueNwIHxc7hRigouArenlmuxy7nonhva5rhTh6xOJr3o+37Sb+Yk3FImIAnhRbLMk0AGGFHXJOi9c6DkOIh2/QJtW0CnIr61LyojCYxX6dmxChOkmiRnSpSIcL7IAMxVy40ecBSmbi8ETNxoff5uYWIcEPMY6NEGF7Aj3VKCapaYatpGdRRIfGaOJ0ZBy+M0+s0Us/6PBcMI+h3zw7NTxF7dmt8VGU8KkixSS4x08JhhZLj1eCFoOiqTrVNfc7L5+bC6d282IusRd67qnLadc+VCqQ4itE3jtx7ZyBIm5LyVtZYxl6AFCEGyHcuTnHdPjeGgZMbsiF4DIA13gXxaqeNaNGOurF09czRbWehx5Qr1jI3NdeqWDZQGzeewlbz8FyTYBC6mod4X/OAC2O4/PPwuBhrwhplypsxO2pxpuH+GcVOrn5s1E6uFBOlVIzHzsN6iM8W17owgCwULnyKVyiGoSXmP256bLwH7xrvS5lcZJ4IL0zCeWB9UJqMuFh0iuLUr7UQ7zuP8+LZPJM5YbBZg9ZcWYXJUd9TfZHJOAcboQwYg7KQnbHShyl0omfsnYHQFVESF5IJbOvKG3WBTOt6G7OQg8Vs0bHq4TLwqosbWoBY7ADdeBimUXhkWmMv9sOtzCvAIwKhL9YqxmrcfuQR+7/NiJEgrxzZTmRUSzGmafWJwdEJex4bZcxA4Lmpa8ivEGmVvS/DREmTyCHyFji52gytB6FGoSVGA2XHsE+1QU46dkYvQ5dB4CdyZFCqxi7bI278qZXqNMsbR8+CuTAv3O+Uq2fwTAwG8zJKeGQSWY/6Xft9nBfjtx+ZB3MSf2L4MvW8jDr24vULR5QkTScWuBgWnFMz1+04VljTJEwCImnqe5qfRwOhqk+LnSIFcMTcBmXLmOASZAk7pfiJOfX+FkmRIqFI8RRQdiKIm4MxDP87Er4YhziqHy46J0G/GTRexpgxAlMBMR/L3g4/F2+S74lLe6EVferzCzvNue6iL/OGqAyfRF0T5lLYq6w5Xcb4bKpn4JancCklxgPFa11YVzwMTuKMhuLvMsKctmspnv7j88R1776UpN/FH+PTjIWSpCwZNFWn+2nJKRYuKtsjyYo8JvVS1I2Vgek+5sa88GjYE8ghzkccQzz5VpFDtZmbqnkxjqp5iYfBWLjNvBQNtWnNRbEf3iJzMk7Gjlo10qbLvHXYTBn0C8OkmGJy2vTJ+DB5KID73JoMhLKxe4lQ4xZ/bOKMBydzSsGLzCMR2RDjSxw3W78tcO5RP3EzLP7bC+17kSNdWACbWeSWp+QpjiKTW52sGQQyFBRc4k2QWoe6uQ1PfZdzyKCZVmx+1s/BkwMZXVZjoTiWOk/frMcc7xfDVHFN+k1JxNK+lIZrvA8xFBeVk//HH/1FQzeCReP/Y8zXtd4HSo7Sj4ZJfF+8B114I6eNQZjGXEYclT2juH+YF4ZULOFdlG1xPqJnt8g4WZyfWM7bWOO8OP3DCpgXc2Fe4tyUcURM4znr+kiFQbBHxudL8Qy9CzEApCm0U9acHvHrp5jgromS2k6ueBQGtUlbtLyHf9tEvbBe5OLv+BLbFOPLZh78O/4untCK1n+bk8Dw8xjXsmXLAr7CRhLdlgw5nAB9blJUpQHOYxPuWbVqVaizUNVsSvAgVVihWEa3CwVZto7K/hYVf9EAiP92fVRKReXUhO8ZZ51Pe40w8BjmZfFqcXVKcxy632mPc/jkXzTyyuYk0miXzUvxb2Xj7MO88KiYk7aHo+JzyChSQbeLMFrvDISuMAgY7Ci6cdJQJnl5vAxe3FjrgDVYhw5OjVqd5Fmm+V1ygbUQ62YUeLF4d5SOnlbVwmmOt9iXwlSnnnpqqu6T9ku+PEt1PApoebmyq4pDTRODkPRhF6zzaWIQFkx0vX3cyy+/PKQ54ktJ0XpnIABdqCRX1igLxWlSxtBSCLmuTyd11KhQqowEuIF3vvOdgc2uLI6IKEe8KVXMadbP3+Z+aEYZCH1LQa0aeyx21ebZ+nbNxRdfHMIjdbJWpEnoSDpkWYMjwkffBw9C3+Sbejzi/96VMtkLJ8JCTJLFkHr8S7X/WA10nBoksrgwo5bpg4UjSupqgXCtilfNmojIwlEGV1qZFxuwxxiEPID3VCV0Wtt7770DkA86XohBjBgpCqKMzTbbLMTp++A6TDF/82YgiIk2sQimkNM0+jzxxBMH++23X8iEqWpAU8iUpNbm1i8J9BGD0C8JdTOaVBgEesvhchLm1jqJ9M6DIF2migoUIj4VP3hXGIRhA8FkcU+TgVQotdJx7O+6664DJzPeFVkeqj/CY+CNcL3COpDlS7HNm4EgZqiWwjw2hiijtA5tzXOgRkSVWzMl4+k8ynSWY5bubH8ow2nBEU2rpPIsn2kp3Ivu4j14znOeM/LjOEBKKc7Fmv4kuqOOOmpw3nnnlQoR+IbCTAHWuPXWWwNS3mTMspUZCFJauHBVdzz99NNDDN5zIzqxMQu1iMdLM1PcSc765z73ucCfvxTbvBkI80yUhChMimMV1THviJoo3hdrtKw1FWtaimu0L89Uh1HKGITuZimCLMcJuzHsqlg1hY0iF0iKp+udB0GhGEqwrCH9UdwlhYGQQrht+hw2EBDBAJ2guoWGh+LnLZDZYVOOBgJeAYYDA0L1S+EIXgSLaZw4V5uxdnXNvBkIOCjgSuatUf6wLZgQq9aQjBKhLgRXWObKmtDX5ptvPrdhlnmbt+J44ZiqeAV+/OMfhzmrmrd5fu6+j30SAwFvjPBxWTbGwmEQKMiqBcxNI9aSIm0FuMeLNWvedwbCG9/4xmeKbcSQAiS8OG8sIcoYWLFiRTCQECHxICjzK/wgPIKGWtoZLAJDYim1eTMQ5lX2eDL22WefsH6qyMiEABkICK+qrskhhu5WQA4xdCf7ujtPEmKwt8suKgv7ORzyeqc6kPTOg9DV9HZVrEk6nw01WpiMFFkajCCnAW5BRpGYIgAjg8HmDJhiQ2dgwGVYgAqJHH/88YOzzjqrKzEmue+8GQjf+973akslJxHSFDoFhsV/4F2oMsJ5rgBl77333incMXcxbQlkkOK0JTqd/lKBFCfxTLR5st4ZCCwipWTLGgpYKVYp0hyvvvrqEMsR35/Xxv2Lz0EoZim1eTMQ5hWDQLk4gdZxOCBBQpKkDHlVE35QB2SceOtSWrddPAtOFR7YMtnbG+CsugC7dSGLPt1T6jOje5zwuJDdpptuWgo8tec7PKYgDyS/3hkIXRElpbbE+rRY520sYqdeACDVeWiYHrFAzluTMitsUJcNw4gAlq0iSfLMmSipnzOfQYr9nJdJRgXQDlisemqK1jsDQawder+sAWSccMIJyaylFAKu6hMgDN5COmOM5S4KS2JRJixrzx1BOLEITjwBFSlZI4d+kXY1BR5l0nVgfPN4euYZAIiVpVDVZM0AxKq2WdWefPLJwate9aq5lMGkc9/19+tKAwtJes9mjbPqWiZ9uP8kGDfYswMPPLDU+7BwIMWuJhOtL/cbV07qhg3y5JNPDtgBMd2DDjpoIHvjtNNOC4RIkayJQjzuuOMCcY1NuanBKECgb7vttk2Xdv45fIXnNV5KHnsf5eOUgy0yFgu64IILQnGmddZZJ9RgEIKifIRRYDeANZH7pHKxjSMom8E8unGPPvrowfLly2tDeMCzQn3zUHZ7nLmb9+9kDEI/ZzAVBgEeDXiR7krReudB+NGPfjT4u7/7u9Jn/da3vhUQmylY6mZFlKSKojTG73znO4O//du/DWVRt9hii8BjcO2114YTnLQWChBaXMyX8mT1P/roo6Fug9ObOKPqaGLGgIpcTORz/vnnB5CZPqTbvehFLwrX9+1Eu3r16gHlz62tAVe++tWvDrIBlLvuuuvC388+++zw/FC63GkMBxUtpYE6qav2iJoaNTDgHOXM5dblKWleMQgM1UsvvbRyn2GwqtHASKirVqm0rfU5qndH/7IktLp6JD6P1LUMQ9/BQjpOeq81JDVYP+K53hsGaZv3xXiNI1Y5tfYQ4Yy7P8XKk/qz4Y8qP3LxzjtglBnMni0WV0uhTHKf1RL43e9+F+akigSwTnYOiDA/ZYWeood1nLXSZr56ZyDYgCi5sga574Q5DtCjSRgME+DHNdZYo+nSiT5Xa8JGRNmZVBNMSSI9cm/VLJFFAWP6u/LG4r2MA0DKLbfcMvxGjnTssceGRacfliTvh37w6QNbosSVHuOeUmX61A4++OCBHzTRDz30UNiknbptkupQtDEQPA+KakYEvgjGk42VgsIPkeqlaZLjvBoIQntCfFXNWmWMYVqsq0o3LgaBwSuTQmM8122m0oEpcd4k7wb68XE2X143IZHokeKGx3vfRslbq/YN+xKlDgTIyK1K/6xbNwwVKcyeidGhn3FOhXUKI2MQmt7cdJ9PosiFo2Ml0eER8nxbr96XFK13BgJ3cVWpWQVgnJJTGAgphFvWJwpeHpIjjzzymY9vvPHGoOS40Z2Et9pqq0CI5IW2aR522GEhzMBwkMoojZES5erlYbB4uBadHIQuxJItmA9+8IOhPwuojjp3Vs9evA9lxMDh3cDfgBGMgnc69f/rr78+XM7l7Zl5FoY9CD7nibjssssGu+yyy+CUU04J3gWGhw2/KwPBc4xDqdrFPMR7/tu//Vugh8atUdUosWhE1J2wx/X0Uc7WgXnD5Og9cSoHioSLoMzF2HkvpPVGQ8LfeIx8zsi33ilv36NsGZ5CIt6nWM7c+DFBMqy9Y5S6foX83As+yGea1OIXv/jFYWzkxHiQeuwap/LYFzeyGhZxnORlXN5FnsP4XcYwz17RC2Nc+E3ic4xrIMD02B/L1r5S0IyocQypLtfmUrh3rNY7jvHI8BSOLjNaMwZhRqsDUt7m4jSQskXCI5afjcUmQqFhnlPJkaLzb14UVbyigUDRU/5ctzYaipArnYFgM3jwwQfD2F0D1OJ5brvtthBusKk71fapGZcwi7oFmt/CBk6nvB1OZrwjZHPIIYeEDbloICDzITvgHdfEqpiUE6pup9hxXM7TkJHTQlfGybjjd4rmefrUpz5VayCQdZ0RMe79zaU5t94pZEaWVEkGAsXGePZvxgDDwW+NIeg9sfEKDdhMeRX8dvKysVLcyrh7b/yNcvY3RjPjgeJnANjEf/vb34YaE97FmC5oLJQ8g4FSd4059r4xQvRNKSuTzbjwXWBAYRLfYSwyCozfOvZ943WfaGi59+OPPx7WMc+Be1v/oxr2GYMw7gpM+71UGAQHKUapNZ+i9c6DkOIh2/Q5K6IkGxTAIUpbipuLnGKEJeA98Zt3gEIXD+ZZ4EGwebP8GQYUJkVIOWJbdDqRey4swZCgIBV3Yoz4cZrST5+aMXkum7/NlYvY6U2IhYfEfNhkpTauXLkyKIRoIJCDU6LvAWTKbCFHnzPy4DF4E9rEkVPIhAI1N/PUrCcK6vDDD68ctrWrQJiw17QbwyAqevP6H//xH0Fpm89oIMDrRCVMMZtfBoIQA2VtXTiF+zcDIZ7ajNXJ3P/1zZvgXvqmsIUr9EOBU96MAfd0ihdKYQxQ8Ixu61aj4H3OqIk1KaxR/fBUGAODhbGguRfPAkPH5wwBBkI8Ffqb0781bxyasY1apS8bCNNemdPpL5WBMEnoos2T9c5AUH+g6hSDkhjqPQVRkgI1ThNO76mbjYLSi3W+ncpsbtzlNg4vOTwBZQ9/YNNmJQL1MQZkOii1699O3E4arnFSkQGAftmJkJfCCcqm3iVor0qeEZRmPovj83ebJVmMUrse9oASaAsySzXP84hBgHdxEuaVqmoU5KpVq0JoqK4xNniBRjHQKHQGYsz+YCDwADESKGu/rQlufad0BoJ1wlDEXMnA9N1oIFD07g/XI3RB0buH0AUDYNhAcB1skO/xUFD8sXKscXm3AM0odeOxzqKBEJlOGQjeU0YBL4B16FprmIdEOIKB4N0cNhA8A6NDOI2cNX2NGk6to7kmM2OZVYjBM8eU5LhequpEtHkXp5UGbt3EuP4oa7TNGKuumSTEYJ/3bpaFGKxNay3V/t47A6EOpGiT4FIf9aWZZGK7/K5ThTQ+p+PU4Mkun7Pp3vNGYsUjpCTyPDXeK7gYCqqqcWfa6Kp4SuL3xgEpUtgaBSw848RFIcvkoTCd4G2QsZqkz/zwMLl22EBgNNsrKAOGBqXPUxANBEqcYer7gJGuixgESlxogDGi2Zxj6XVrUX/GA/PD6+LfvAhCFb4rlOHfGqXv3sZYZyAwiBgOmv7J2fiqSmpXzVGfQIq8PcIzxQZL1AYAWvZ81oGQC8NrksY4Awi11uuycSa5x/B3Jznp13134TAIrNwqZZiSwnWSCZzmQir2xdXIenRSmbeY9jRlMm9Uy9N89ln1pcgXjom6mDfwMA9bE1eIUIDT/LTWbDzxFU+f/hZPlFWnwJjCSOHWjcV1+htWXBS/7xWJzFxbBJrFcQyjzBkyflzb9pQavzMJduaBBx4IIcyyNEceGH8fByg3zjpkIDCyivsXWTj1Wme8HYwvxlTMYqKwGVj2PmM1Zh4axhUjy+GQwVUkUnM9QyRiyHho/d+pOuI+hG4YBvrw/LyNszQQIu6EoTlqEy4GxC7Lalk4A2FU4U3rehwENrW+12KwSTvtLVKbNwPBSScVaCjFvFNysBzCBzbSqqbSowyTpVbrI4VMu+qzTxiE6EGIIQ2GjxAHTw7DS9hGWCdmXvg3AClFTsFbi4yICECVuRKzVKJ8fZfnhTHg3wwP4aQY8+eJiV4nXiOGRUwlnaWBkAqDEDN3UhHF9S7EAJiHsKWsyeuX3z6JhV314s6KKGnSjQNIEbZgkdq8GQjzhkFwOttzzz0DQLRuo4EruOWWWxrz84ULhAbanpwXaS2nflZK1Cm8Kl5NkY7DrzDOuKOBEPdrp/8ICgUUZQAI7wgZUNZwHzwJlDzyK1gToR4eKf92LaOC0o+EWg51/q1vhgVjV18UshAQ/AmPhVCS8fBmWOPW6CwNBIrc+1BngFfJGLfN29/+9iTYu6Z57Z2B0FWxJovMS9V3itxsIDQt6e4/d8r+yEc+0v1AWo4AeE/WB6rrOlc8fo4777yzsddxMAhNncZMAtdFcrCy7xRDD56F0nD9KMaKPpxmnVbbuOOLYQbKyz1jbZGm55rl57MmSqKQ7atwGVH+jFGGgDCIcA1QKbc7ZQ3PoTFghA18Tx9FA8G19mjeAo2HwT2EpXkKNHPAQHAPxoEwbTQQAFQZLMYwSwMh1TxjWNxoo40CT0yK1jsDAVKfkVDWDj300MAPkMKDkEK4KfrMBkIKqU63T5sXMNy8NK5XngHEWnWtiYo5fhci3+ltFKXcJCsypUAoY6fJqkwmSoILG48Ad7aTopj1KChvCsb3pCrqp6lRUgCRrmccOPUaYxvjoqnvUT8H3KREyzwIvAuU7yw9CHUGgvUBcwanYE8nO4qcEVFmIFinjAqyjc/nWiEG35cqa74YZ8MGQqStN7cMR+tklgYCg9PzjgOwx2eDQbdM72UMwqhvyJjXO/WIXeEn6HPLBkKfZ+d/xjZvREnqzduc64p82ejVCznppJNmPgHkSfFFZkPZTFIQAb/8ncJwUozVUZ0YKRCZDRQ3tzRQmt+UOCXDiGB0MCKcPj2fPigXm7i+IltiPK1SLLIK3Ne1jJRIoOSU6//GFhkVjZtSo5SMV3+UtHtFhQjPMc207T5hEMqqrpJJfD8i1TzFLosDViEq/nhNETyuP3PB2Iuerui9IVN/N3fF7wyDzxkermO86WNaQNqmlyIVBkEabTSGm8Ywzue98yB4gQBVylokNJnmySTeJ2MQxlk+s/nOvGEQUF0rPjUvTa0O5FtV753nEFpwCsKx0dTEW4ubeNP1TZ/HOgX6jHFmHAEMBsqaKxkSnpJgAHBLU/ROiPF0SSEbl5OkUyul7UBAsTMchCEiCA6yXt9SFykv99Q3ZeL73NPi5JSN++iHwUDBRYAco8V1FB4DAJpefxShvnzfvykqzzKtPe2+++4L9OVlWBLPYjxdeDaa5nipf259mJNxshgY7nAIXYS/e2cgvPe97w3pVmWNpc/NOI6bpmkBqgToZU8Vy2m6f93nTjNy6xEkqfYIpHj//fcHN7Y43VJv82YgzBtIkdJXAKwOQKUmBjcnsrKm5hTr2nHz3Yf7j3FrmyslDeFOUXsvooHAKKCwKVvhAUof+M2/AeIYCPaOGIv2WSz+xvCJ9R0odspanrxrKX1eCMqct4B73qnNSRagzjvIU6Fvn/ub02JkVHRv3wGwoyDsXQwE+4x+9VN0mTfJtunzOjIh2TVOm23CJk33yZ+PJoFJ0ugjjqbM24FFlGHPqE3RemcgvO997wuFisqal86Lm8JASCHcafUpXgZBLhalvDEDAWAMi6INaJJm4TpZ2CRtbjEXO6YHxf/7bfOx6ccfJ5Hi/+NpiaKJLrxJxha/O28GQh2XxzTkMc0+zLkYPQVXhe2xRhQGk2JLaTY1IQt8CdMyEHgHoNHjydfapNBtmE5m3P6usYajgcCYsGlGDIJroxKP7Iaexd8YBJQmDwJvhLVun4keBPewCTM6IgmSe8ZCaWUGQmRjZIQwEHgTeBfIhIGgfDmFbczTNBDIpoqtMBsITSs33eeTkL0xkKtArwuHQeDyqyJrEW9k+aeIG01CZJFuWf2/nilJcdSvf/3rASEvJa2usE78JgCVmKwf3/fbCcdvpyKLz8nGAqQg/HCJxh/GWPx3rHuvT0aFn+K/KZtY094mZUMU4+Xq9WPu/ESLt61bdd4MhFmsh2ndw8kbvwEK86r5MK8YPRmmbdK0rIsmcqK246esgR6tpUigBo1vTIxjIYTifhCLJdmQKW7GAGUdDQSHDKGGiFOI1xnzsIFgzfqbMURjJ+IavDO+S2b65yHw71gICkhTdggvR5SrFDv7TEoDAc01HFVZiIHxEHkA2so/XzcdCVhH5mQcFkhZCg6HZXoRLYCQknWfovXOg1AH8JrETdMkvL5jEGxG0W1r85WSFitPRuBP3PhwwtvMuZ/EUp2mLCCnK5sZ/nqbbVsF3SS7us+NyYbuBAVDYrN3wuZa5SbebLPNAjMfABcgV9zYipv+vBkINmnPNQ9NRc3rrrtu8OlPf7pyuOZq5513DhUy27SU7+nw/b0XXLDDXkWGqvekbI0bH2XJOHa6H9XTET1txXsyIvy9+Df3MTZjcZ9ZvG91IMVZzkubdbJI10wCUmQIP/TQQyPVpZmWbHtnIABMVSGlgTWcnKeJ+o2CxKTIQusrh76Xm7UoBKOAkw3d6cTJRZEnJ8DoLt5kk02Ci5eLNYYBZonYrVucEXVsg/YD5X333XcHTIUTl1ObORDrZszYcOfNQJgnDMLll18e1gkPQVUDsFOngRHdpplL8zeq4m3Td76mXgLmirelzBgRhrHHjVpCOst8cgkwFLVxUvTt8fbCMnCpA1j0/E4+yv/dQ+8MhK6IkiaptpViYsr6jJShuLkpVkpfVcctttgi5J1TpnUkMrMa5zj3iSdBMV6AUadwz8hgsKExeDz3PLQ6NtC+jV/11FNPPbWWt4GbXgnr0047rdXwUxAltbpxvqhWArMmSsrTkV4Cn/zkJwMeTRgiReudgVBXCQ+JktNz4CusUgAAIABJREFUijSdPrrfYugAQEvIwGlPqpdshl122aVVPDjFoplln2LkSmPfeuutAYy23377DTbeeONgDKXAoszy2bq+l/UVyY/qZOmddDJtquIYn0eIC8BvFi71rmXYt/szAoQPy/ZIHkdZF/NE4tU3+Y47HrgTczIOSRVwsDIDZfOGtZX3z56YovXOQEjxkG36VMrWSVWcvy9NvP7MM88MoKZ99913sN1224U41CJuvDw8TrJXXnllCEmQxVFHHdXLzc5GPA+pZNyeshOEcOoMhBUrVgQMi9BVbv2WQJ+IkvotqdmObhIMgvTZhx9+uBSDEItatQEPj/PEvTMQuJerNiIbmVNMCg9CX0CKTnVSr6SviOGiv5USlU/L/295U2zy9s8777wAnnv/+98fDIW+yGheMAg2l5NPPjnQl9fJ7rjjjgvGGAR/mwZLAnBaLMnrexEHEz1j/havGWbdG/5/8TtFFr26foe/43t1/VaNpYz9b9jjWPx/ZAiMfxu33zbjHX5Ge4dsibI9UoaYeHX0vg3PwzjyKvtOk7yanqtpfkdZR5M+Y9NY2q5hhwZzMg7+w/snvFdGF57a8907A6ErDAJXtvh9HZtcm81x3GtMtBf4hBNOCLndH/vYx0LWQW7VEiAzhsK5554bjAQYhRTG46hzIK7fJgV11H6nfb1sEhkMy5Ytq+0a9wYDum1JWSBF84AMiHJUkAeSHxobl4CULycqpx7YGe3BBx8MFLmMYYYx/Ik0XNktwhWwKbJgjCGSmcnSAcylEBEaCW1II7SR8ni4Jy+c/vAb+I0XAbALtgUtMiMJnwGlue6664axOK3p1/sH8Oe+7s8rFNMk9aM/3/GseBNkezCicDR4h+0pRTIzz8hAkZbmu7Ff1/ue56Xg43jJ7pFHHgmZEFF2+oyU0GQXn9G15FI3RzKaGG9RXkCL0j25vYXv3Ie8jBEBm7FHecUxUnTCGAwNMjVnxsjDpw/yimPk7ZQx5TPXaHF+rQnyMrfm2LyZP/Pg3r5jLHBXcR7wOEjVNteeAYcEuZM/mWq+U1xrntdzG5d+9Gvd6Hf4GYF1I+229FmyjM+oX/IBFqTko+ywG8rG0r773e/+2TMamzHGtTbt91d/wPXWATmnaL0zEFhKVWAoYDz5oCmyGFIId5Q+vUCUHI6Dt7zlLWFj7cuJeJTnmPW1NijpamJxNjtguq5bHZdH12Mr3h+nhk1QuKauwbwwxNq2eKopuz6eruNnwyc0fy+7pq7Ptt9p6jflWIyx+AxNY2nzTMN9xO9UzdOs7l93nzbP1XbdDN8nhYzbjqXNvdu+P8PXMYwYLmVZQQtHlDSuECf9HkuZ4fGqV71q0q5G+j5r/aabbgonTspNvCm38STwla98ZaD8KTBnpOUdr6fJvlUk1pmsp7TfPuaYY4JRWrfm4F+ETOAQcssSyBKYvQTqMAgyhni12jCcjjPy3nkQWIVVJ+c6nvFxHr74na4wCPgLcBooxtHWhTvpsy7l73PjHnvssaF8cVeU3EIeRx99dK/F7D3jYkWLzO1f1WxAjGf8G7llCWQJzF4CmSipIHOgvLPOOqt0FsR6uOJTbPzSCMWT1DyYVWPwCCdA5ovDpW6UgtgqA2wSY0QM1xyUxfvdQyxVHLgLohz350nAo1BV0yO1nOcBpCimbq2Lx9atBZ4tse2mMERqmeb+swQWVQLeVbqpLHsNvgImYpz0yTby7J0HwcnLCayscbUAL6UwENoIa5rXUGSf+9znwsQeeOCB0+y6si/3hFpH0QwMOm474IADQjnjCDAr9gMERJkoJBW588e9z7jf4+LHE3HJJZfUno7H7b/pe/NAtQyYh2QFZXdVs17wTsjDbpvB0CSb/HmWQJbAaBIAuhT+LvOsLxwGASFLVd1rhEFiy0uBBwAiVuwI4ltK2CxalYFA5tj0IH6B/Sh2Xhyo7TvvvDMoCIYFV5cFyaBBpQszIQUHyt3zQMNDN3PzYxOEUtcvJC/wpeedVfvyl78c0OpHHHHErG45V/cB9oUiZ0hVNR6ubbbZJgCDl8I7N1cTlAebJfB/JbDBBhuEOihlKZILZyB0tSpwLJiAWblSKWUeESlf4/BzjyOnMgPBaRvPvuJC0nEoDOlGqI15c4zz7LPPHlC4TpxczjEExDg49NBDw//POeecwVvf+tZgXOCqELc+/fTTB9tvv30INzAehIdmpWic4qUAdRFmwJ2eqrraOPNe9h3ptLxAUsaqmrWh0iN8TG5ZAlkC3UigDqTIuyDUmyq9u3chBi5PdMpljSKjiFIoVDgAebuzMhBMrImnSOs26WkuyTIDwd+c+BkA8rJZqtIFd99990BvLB9YOAKBlfRTYQWsk6g/5Qjja6D0MT7yQFioDAUeBPEx6XEqOTI69D8rA8EY3Y8SnHXrOwaBZ2DHHXccfPWrX60N15m/z372s3PB6TDrOc73yxKYlQQUKKSXyvQezy2sVyq8V+8MhK6IkpyWtFSCHl5MFPPBBx88eM973hPqt8+ilRkI//Vf/xWUPg8KkihkJxTrXnvtFTIB/Fs63F133RXCBU7GFqwwAw5waXIISDDtMSyEh5Rv1t9uu+32jBLaaaedApHIrAwERibkfRlOIrWsyemjH/1o6tuM3b/URXODlrduvTMQEQnBIeSWJZAl0D8JqH6sWNPC1GJwkq3akJzMxMhTeBC6mHpofy56sfxZAC+jgYAgB55Ak0VBmVPqPACU/w033BCMgWggULTS4XgQGAOuURdB3Yobb7wxfHbGGWcETwFmtMsuuyzUL1cIyOIFLIW1uOeeewJAMmXzjJD5QiGeq4vGqu/zGuUV4vHBGVHVyFHoiPE6y8yeLuYr3zNLoM8SwOsibFtGEJgxCDOaOUAsdJyzLkgjkwHNKIWc+nRt0xfa8BObRee+Qh1IoqRBOlVKfYMd4I4GZiMb33Ota/yddwH1qOt4YBgCrnvuc58bAIqu169r9MG7kLqSHEAkdxwjJRV5SNOS9Kypn7NpDHWf8wwA/CrUVGcgvOtd7woA1Vmk4E7yPPm7WQJLWQJ1GAS01kLj49R4aCOz3oUYxD2B5coaBUTZpFCkXRElSQs86aSTgkJmJEzCT9BmwpfyNTjqgSyBI9Fyd0VVbT65/vranDqkqtaloTImAUx5i/rsDemrjPO4sgSmJYEddtgheENTcR3UjbN3BsJ73/veAIwqazY0xUxSuOMV49BvqqIXdZPASIC25xqnWLjpc2svAd6M22+/PWRbiP1vuOGGnRkHRt13kCLPgfUmZbiqSRHlQbjiiitmhstpP+P5yiyBxZGAkKWDY9mBZ/Xq1QHsnip02zsDAU3u8uXLS2cf4AzQLYWB0Ifldt9994WMAQoGiGypPue0ZO2UK02Ux0CWhFidEEfXDVizz255a0t2SZ23StYKzEgXWSBdz1++f5ZAnyQQK1iWec4XDoMgvl21cUHcc3emcB0LbbivsqZdNpUJgccABGUGiKcvxeqVk8rYfF100UUDRhWDCo/DrDJQJh17199vU46aF49BLlSTW5ZAlkB3EhBWt8/BGgw36flKjseS09MeZe88CNN+wLb9yZ4wAfLDu25OxqxGClBGwa677jp45zvfGRgXUxhHXT9v2/sDQuJsQKEs4+Kwww4LTH+pjMa24xq+btWqVWHO+thgCgAot95669rhHXLIIYHyvA8emT7KMY8pS2BWEqgDKaYsYOj5emcgoOSVyljWZBig/k3hekcaA2WP5KdPjdcEIyBUPpAK9zDwWCzesZQNBoYSowA+xLxD38NnIMxC9dzX1lcMAnlKTZVWW5fh4TpEWd6J3LIEsgS6lYBMBcD9Mg+pQk70YQqd2EsDoUuiJMo2RYbENJYXIKN4+9vf/vaAPpdKh2OAsYC8aCkZClIVUSXfdNNNwTjwYiBlEnJxou3rHMV5plgZcn1rwlfIsH73u9/Vhq2QI8EC8dTkliWQJdBfCSwcUdIDDzwQUOhlzca78847J+GdnjWT4rhLjkGgNLUQhFM1kqJ/+qd/CtwDinqIRynPi5sA7TFl2kfjwSmV0eMHqO/hhx8OWRx+fLbRRhsFEie/zTvDoA/hn3HnrQ/f++UvfxnqaeDeqGvotq0pLJ+5ZQlkCXQrAWy1DAF7+nDDU+KgmIqNt3chhq6m4itf+Uogm3BS7XOLBkJxjBQqDgBFgihYCHT/V+MB+dE666wTDAfsiUITDIZoNBT/Pc3nNqbij1iZMSFXMsbHHnts8Itf/CLcUpVH4SMsjX6GXwQ5wPNkICC+6hrsWjaXDEuuyjr6aXMmiyh6pqa5JnJfWQJZAqNLoA6DgI0XiD0VV0nvDARFdqpK0KLzVSQoBZlQV0RJoy6XMgNh2FiIipmr2OncD5IpFLvAff4uzx0okxHxile8IhgP8uIpYgra7+KPv1mI3NS+62f43xar/n/84x8HYwDnv1CIstHPe97zQtwb2pbRAnApFdA9isZKmTzmzUBokyUw6rxP43r4nhNPPLGW5dHaOfzww0MmTd9DOdOQSe4jS6DvEpBRpLZMKpxB3fP3zkDoCoMgvs8lT5H1uTUZCG3HLp2UoSBUEX+L/VPoKJL9Lv7fv4UDLFIo+OEf1MoMCB4KhsZznvOc8JsRMqmimTcDAVkTVsw+NfOtwBZDuC4d1BzLDlm5cmWfhp/HkiWQJVAiAdl3quoqspei9c5AEFNxyilr2267baB+XWRegGkZCCkWU6o+581AYGB1Ye3XyZ83R+igiQKaB+i8884LNRhyyxLIEuheAkLHuBAcYIfbwhEldTUdwJFOxV2UBx7lmREnIVFapMZAEOJQMnoeGsBr30ibVNPENvmOd7yjVoQAikJHVWG+eZB/HmOWwFKSQB0GAbMwXFEq5tbeeRD+5V/+JcSsy5rTDUFM6rIu63teMAgKd0j/W6QGlwLk2MfUwbJ5UOdAiew+tRNOOCHEMWOZ76qxfexjHwsYhL6H2vok2zyWLIGUElBuHcBY+HbWrXcGglx3Ls6yhiQH0C6F+xYJDyKiWZd7HnXC8SAIsyxSk8opM2CfffaZi8fuI1ES2alV0WRc77vvvoH/YJHDeHOxyPIgF0YCcEE8kmXp6kiUAM1TGQ+9MxCcvJzAytqrX/3qwfe///0kBsK8rDYMd9ddd928DHcq40Sv/IMf/GBw0EEHTaW/1J088sgjATjUlwYTodIlL0JdY4R5/9oYEn15tjyOLIGlLgEhPyDwMgNh4TAIwFQsorImXS9VPYJ///d/D6ervnPPiyGLyS9S4zXiRTjiiCMW6bGn9qyolYGcqgjI4o2UzH766adD3Y/csgSyBPohAV5tIQY8PcONt33jjTcerLfeekkG2zsPQpKnbNGp8rdHH330ANeCk+oFF1wwkK621lprDe66666QCojVDwDttttuG/BmiNV+/etfD65vJzSnXJkWUvyQAWk2ZQx2MA7qPECRy2vddNNNB9dcc02gT958880Hai6gF8ZJACAGNEkhnnbaaWFxvOtd7wp1CHAISG1BfMSYcn//luN+4YUXBoKbiy++eADLoV4BowddMZAfZsIf/ehHA1anVLZLL710IGdfXPruu+8e/OEPfwiMXFIcY7/vfe97B0ikMFiuWLFi8JOf/CRU+IMT4c3RLOCf/vSnIXdeCOScc84JJZg9O/yAVErXMMI8o2fYY489AqHTAQccEGR+xx13DPbff/9ABfzQQw8FzIHvO9X+4z/+Y5Ah7gUFhDyHU6466TG9Jz4joivzIBPGfJLxMcccE+Tq3p7NPHpWnhj/XrZsWegv9vvUU0+FOZGiCUGsYSt7/PHHwzybb7I+5ZRTguzNDyufvHGjM2Yo5D4069WcCqFVYXviOK0LMqsy0PvwPHkMWQKLJoGmYk3k0RQ6HFdmvTMQKACbVFmjQFQ4TBEfpaApIIoUxiHyAIj9UBQUFoWsseSknCAGoqSMh+dBrIjiMVlxk/Ud34VvwHZFkXD5InsSN7KB+w6CGvdxP/+PnAPG4x7upV+0mxR77DeOJfbrHu7lnpSVZizcU/7vftxVMjaMw/fcUz/G4Bq/h58x9hufUX9R4cR+yYAsIn8CGeknjqX4jIwFuflRdsVnNN44Ft/VD+ODsWJeouxcE+ck8i0MP2OcV7JzTfEZyV9f5t11xTnRT9kzDq+P+IxxLEXZjftSTvN75PPBD34wGI1NlNsMKcZYblkCWQL9kYADKqBiGUGgvdbfU5AHkkDvDISuiJL6sxzqR8K7wUBYpEbpOq1XVflcJFmM+qz33HNP8OA0pS0yJE4++eRKgPCo983XZwlkCaSXgKwjnmlhhhStdwYCty8gXlkjDAjxVNZSCgFPu08ueaWfF63VEWgtmixGeV7hmxi6qfseICisR8YfjCLdfG2WQHoJ8J46GJZl7y0cSDG9uOf3DsIDhxxyyADobNGaEESqgiRLWZZwLIBMZSxsxeeGi0HCBR+SW5ZAlkB/JFCHQcANJFQqrJyi9c6DAAimoE9ZA6QTi+kbS12KiSnrU1xcqtr5558/q1smuQ9ljw0SyHGNNdYI4EAEWFzhikoBCGrwEatXrx4gh3K9cta/+tWvAghRg3lYf/31A7CxKb6e5EF63imAp9LOwLZ1TQhHaWdUzH3P4um5yPPwsgSmLgE1VLzHZe+md1dLtf/1zkCwUVUpwJe+9KWhTn0KoqSpz2qCDiH5gcg+/elPJ+h9Nl0COR588MHBG7DnnnuGLIEvfOELg/vuuy9kSHzqU596hudBOWixc7wCMhqchFetWhUyGmSL+M2bIizVl6yB2Uix+S42DgWjdtxxx5CpUdeAYo888sggy0U1vpslmq/IEuhGAjzHQNZlRgBWXXsfL0OK1jsDQXpaVaEYSoIXYVENBKmTWBQB9ua1MQgYBo899ljAklBkUiHXXnvtkJrZxkB4/vOfH1IXfVfKJ9DmFVdcEdIPeRi23nrrwVlnnbXQWBWy2WabbQY33HBDY9aPuTAvWBRzyxLIEuiXBIQR8P+UGe8Zg9Cvuep0NNzsCu7I9JjXxuLFlCkvX6ERyp0yU4hJeehRDAQy4F0A3ARgZSQAcOJgkA6aKi43D7LnaeNZAeptajwNDC7yzy1LIEugXxKowyA4MOKCSYUd6p0HoV9T06/R4MgHSKnK8ujXaMtHgxwJzwXUvNQ6Bg8SKcoJ1gBxE+NBg0c49NBDB9/5znf+LMQQPQiuQVol7MI9ftxxx4VCVtJ+EF0tajydwXX88ccHQGtTnXhcGIivpEMucnbQPLw7eYyLKYE6A2HhMAgUhFNkWcNU9+1vf7vRZboUl5GFcOaZZwZGwr4XlKqT/z//8z+H8WNnBEYFRMRSuPfeewd2RzUMGATYKGEt4AywFhYxCIiUeFGQG6GedvrVkDL5PkPjk5/85GDNNdcMf0MKtUgNmRR58iA0KX2hBcaVdMjcsgSyBPonASUGHIrK2BLtpzylCNxStN55EOpAii9+8YsDkG0RMQgMhN/97ndB4c3786Mi3muvvQbmEwDHv7E7HnvssSFEwEjEekix33jjjSH+hi5YKh6XGrZN3gFMjowKADvrQpqe2uiYEe+8887Qr6wPWRKL1HhnUFfzIjShmwFEySeVi3KR5J6fNUsghQSwyXqPc7GmP0mXyxlvflnDt//6178+Ge90islt02ek6eVyl/YXF0PRfRT/Pdxf8e9xATUphTZjSn2NbAb00QyB4fGiYEYhyjIehWOcu5xxoE95/2Lr6mUwRBapYUREeNQUXrB2PvCBD4T6EvOwZhZpDvOzZglECahvA4xdhqnCLiukmsqr3DsPwqItC9wGCjFRmLwDEOUU26677jrYbbfdAthuyy23DEA+yg4PhMpd+PVjeh8uAI2HQdzZdaMo1qUqcwW2YBsWSfkxroA2bShNKYvqYVhrMj4WSUZLdb3n51qaEqjDIAjRShlvCiWOK5neGQiAePLky5pa9eLSS4lRz2lPLF0M2CatKqINHvjOKbCNgcCz8tznPjecusXqueUVQWIocM8D8c17WGLcBb5o31OF8+c//3kobNXUVPa0duA4cssSyBLopwRiNd0u9F7vDIRFK9a02WabhZi6ssEPP/xwqFbo5McrAGg2ioFgeYvDi+VD/zMMeCiUjha/78spUWgBZgDvAZIPLIoa40h4qej9kAPcNkRQRyjSz1d/uqPiZYK7MO/YJZvaSSedFIzIl7/85U2X5s+zBLIEeigB2VrwWW94wxuSjK53BoLCFPjjy9q73/3uQDnZhSWVRPp/6nTTTTcNynudddYJDJIQq2SATvioo44Ksnjb294WQgyUPsS/a4shhuhBMEbMeah1ZTxgIhSfQoBDEffBQPjxj38cCI08A2TuV7/61fCMDEMxc1TbRW+H0+1VV13VSvwUHpm1UY6tOpyzi+B34AnwTDQ1rknrCphz0bI8mmSTP88S6JME8N/Y98v0XiZK6tNMJRgLFL4THOVGgf/6178O1qD0M0peSh+yGwYCZe+65z3vef/LQJAWCO0KnyDEgD73la98ZSAPojCkDkbF26WhIAWR0scvbhyAmbwGsBdqMKBWFl659tprg8GAWVPKIk+CqoRAnJ5HFsM3vvGNAaNx++23DzKCz2BNI1/CtSC3n4VNES5CE37jkSKDpia8gG9C2C63LIEsgf5KoA6D8NRTT4VsLsDsFK13HoQ6l7JN7dWvfvWSAuChBkZ8JDuD4qfU/O3+++8PKH8Mg8IG3O9c6BTnE0888WcGAsXILe8aKX9O6JQEZQvVz5PAsIB3cGJPBWhps0CFTtD/xrACw4dSw4RIkV9++eUDNTcAND0ndK60vbXWWisofjLhaXE9dO/NN98cjABkPwiXGAqMK+Eays9zk1lTNcM2Y+/zNXAssRQ4/ElTI5dly5aFzSW3LIEsgf5KwP5/zTXXdMIM2zsDAbiKy72sOT0Ou6D7O63tRkZBcvd6Lidq+ej+hjGR0ucJEG7gSfD83MGQ6hDo/iZzgeHgu8gyYmogRUqxMgYoZVkSjIeVK1d2qiyRXeEyiGEAXg/4C+DUPfbYY8AI5Epj9Birv61YsWKw8847B2NJe+ihh0LYhNLHmaA6JBnwJnz84x8PXhjhGNgFvBoyQpoQ/e1mq79X3X777cFA5JFq8hDx2gDAMtSWulz6O2N5ZFkC7SRgf7OPl73XqObtcw6XKVrvDASnvqoYKmY8ruiMyB99KWDcYnDIdmhSIKP33v4bvBvCIGiRjYOXAG6Cx4QrjbeDocMYAq7kVbjyyitDeMH/GU9IgBgBwiYXXXRRKODFyJLax7NAATJAAD6FZSD7X/e617Uf5BxeKVX2nHPOCYZlUyNHRhbjKbcsgSyBfkvA3oZILhMl/WmenIyrNjmn5a4VXL+XUv9HB0i33377Be8H9zZlBXUvROD/WP28DP7Nk8S78P3vfz/gDBgNTsmUPgwDfgjf+9a3vhXi6cCdDAxVDBkOPpMiJGyTKkbXB4mrWSHMQo5tGnZJnrq22SFt+szXZAlkCaSRgNR1HkI8OcNN2JWHWDXcFK13HgQnxKoTburCFCkEPE6fZayJS0kmno8HAD4CtqDYcDn8/ve/D5TJwgayHShA31GhkGHBSNT8jcEAsxBxFVInXfPb3/42YDlgO9rE5MeZpz58hwxkbshqaUOX7HpeHHiNLrEofZBdHkOWwDxIANicx6+LQ07vDAQxZACqsuZkyF28lDd8zw1IKO1PZoKwgPj7KaecUhpa4UaH5nfNUmoUGbe5bAU8EbmVS4BHRnlr6b9tQkeMLKmNVanEWc5ZAlkC/ZIADJqDVBnQ2iELZitV6n/vDIRFI0oqW4oQq9ziqloCJOLLd2r+xCc+Eaob+ky8Xixfjiw+brTLDAqFkCgK7vVUFb5m8fowECDzvRRLPQNhEnnKTIHPwHPR1ABCZX4IRVg/uWUJZAnMtwSkgAvLtkltHudJe2cgOA1X5a2LMUOnL3WFwUC47777Ag+ChgjJaVpKH64A8XexdSx4lKhYPTIhoDMuddakstjcUksRpS70gEsBeHGpr4W6l1p4RVonros28wzfQ26ySHJ4YZztMn8nS2D2EgC8lpJcRmjmM5isjTfeOMnAemcgJHnKOet02EBAS4x2mWv43nvvDWyLyiJj1+IqVqDJps+owMP/3e9+NygN7uelmvHBGJLtksq1Ng9LBmMm74EYZZvGK8OL0MaYaNNfviZLIEsgvQTqiJIUpOMpTsWG2jsDwclXDnxZo/RwzS/1U2PRQLCpQ6oyDoDR5K9jF8SbANUaDQSywcgoTZS7GWgNy9ZSNRAg8eEyUr0Y6V/7ye4gbVUICrWyNYLTAAOlJrsD+RbuC8RTw8XP/M06amr6VctDVlE2KpqklT/PEkgjAV5Ce11ZyDg1cL93BkLGIAwCa5ZwCncwj4D8fmkusAcMASDOY445JhhSXEzYBm36fl9//fWBavmLX/zi4Mknn3wG8Z9m6XbXKzArYwiIcdGaTeH4448Pih8dtXLNgK1kAtTKsyAUxUjkeeJd0ih5+JSbbrppgPKaNyEWuPI9n/m/v/u/+8C5CPvBwPis2M+iyT0/b5ZA3yRAV8j0Gs4Gm9Y4e2cg2NzUqC9rTkby3VNmMQACouoV84eF4NIX4495+UgrWHTS6VyrjoATvnE5ubP0nNyBxzSKW3Pq5/JHEPT3f//3YdO9+OKLn/m8+Lxy+RkDmtObTRo1MUYtBgA+iK233jpcw8VskciFNSbkQQAr7qUQlPENN5z9GLiwEcp+wLhIyfBIoDH2jLANVTS8mA3vuuuuUFpatUmGyGmnnfZnzytmJhQCQMkF7oRLFtxljBrxcFUnoXAvvPDCwH3gNCw8gjHRCRdd8vLly5/pVwokpee7z372s4P84TJWrVoVvCcAO08//XSI18XTsy+7n1RJmA1riJfqvPOsChwzAAAgAElEQVTOC6BOgD2sk+bUaVkf+jI35gjBEoNMmOcjH/nIM2OhPHkxeLTIfpbNs1hznv8///M/g3zhVBS/0qSQoiS3DmFSpIEij1LYBQcFr5PnPuigg8I6IPtI5Wo9kAODgLFOZgwR4Szfdz/hHfOQW5ZAlkB6CShwhwOmzIuXizWll/8zd0BrTPlBhb7sZS8L9JWUro1WrJulRvHYoCnr17zmNcHtQ6FT2k6zjIRInaxj1MKa71BwctXls1JkvAPx8xk+ZuAT8Ky4Bl7wghcEhUABCt0gJqL8GUnIdMoa40Psy3N4HkoeRXLxeX2fMoky4hLHS0Be/iY7Q/oOeSpO5d5eBGMxJmPzb3+L/brWd3yXIQGRrzFEKDmnaYaNe1PgUbbYGhkBjCVGAZ4FAL/inMZ+9aEvc2OOUFezzoefMZ7indRnmWLqOfAY8CQxHtUuYch65riBSH21DjFO4nFnPLhOfQukU8IPvC8MKYYtI5iXCtmK7/JE2HhQVDMiGEoMZvLWX6x5kcMOs3xr870WVQJ1GATvuD04Vcn23nkQonuzbDFEd2ibfO9xFhNFz3ULHb/IjYEQy00Py4FijGRWqeahjey5zZ2YN9poozaXJ7nGSZ0xMSsCE3IXerIZYJbUGHooyKW/Rs8aA4jHyfgoeCEnXhc8ImipeT0YNqiZGQXeKwaZvuBceAu8h+7H2wX/wlDmZUGJHZkqs4GQZFnlTrME/kwCDABe3lntM8Wb985A4Lrk7i5rTp5coqmAd065wglc0l02J2KhBC7eLpoTOqVRJmcnWO5/aZZdZhAA5PHixAJOXchp1vfkURGCk/4KI6BR5MIGaJOd/DWhG5/7P08CY8+agmnx/vAkWFvCYcIt6pswihkY5l24SGaMcJjwgvCQkJn3wueMBl6ZVAViZi3XfL8sgT5LgOEei/ANj5NXVmjY5yla7wyEo48+upI5T6zVZpfKQEgh4HH6FNPnxuXm7aJRAk6PZdkiDIQ999wzMFp2aSCsXr06KD3u9q4aI0VRqFQ86MXnEl5BmCX+LwwSm3kS7gFa5QHj1REKO+OMM4KRoBCWeRIiwbgIl6IMOIOAt4CXQUhMNU3hH6EEYRoxT3gUXgMGozxr3gtZI55XX9mD0NXKy/ddJAkI1TLec7GmP826jawKmc7Nyc0ST09LdZGIJzu1KWXcRXOqlEapfPJwc2JlJIh/dxliwPng5Ku8cVfNiZoyjliIlOOQlcKDABdStv4ZChS5ORkmQSoafN4vYQceIN/hhWEIRmVvfhkj/hbv4/s+d63v6H+pv4Mp5zL3nSUwigSAoIX5yoo1ZZDiKJKc8FpxXG7XlStXTtjTZF+H3qekeVO6aE0gxS7GNHzPRx99NIApZVF01SD/AR832GCDpEPgNRP68jPKqZ0ngMKPXBE8BbISeBu6xG4kFVbuPEtgiUmgDqToHbcnpOIG6l2I4Qtf+ELlqTA1ex4DQSobd2uXDRCMFwGtdBdNJURxL6lyww3KXZqktM1Ui7LNM/NwOAXHdNI235nHa7gXUWtLS5Td0bY56cMQ+C4vR25ZAlkC8ykB3mTA4LKQLq8eA2GUg8MoUuidgdAlUZJNlTu1S8Vn8upc/KNMboprhRe41KXHdYlBkFaJV6ErnAbZUt5ezFR1DZz+YSzwguBjGKXZOISI8CV0GQoaZcz52iyBLIHRJLBwtRjqaGDF5BHvpNqQR5ua6V8tt12OupQWJ2SnPzUXIMpnGfOVMw/vgWRnuFGKSgtzU3dhSPHuYAE0PmtFSIjrXWx+1uNBdUxGgIDTbowDIEHPBGcxyvz7Lg9PFyRO05ZD7i9LYNElgKMEMLyMIDBjEGa4OqQ5XnDBBc+wAs7w1uFW5557bshf98NAkP8KrU8JzvIU2GcMAsppxD/SGxkIfnO/M6RmKSPzJdTiZM9gmXYDSmQoKkg16nMheEKEJBNmFMNi2s+Q+8sSyBKYXAJ1GASEbs961rMCaDxF612IAQ4ANWxZA9bChZBq0+uaKEm6GgplPBBc6E7LWOxS5bhWLSiKCYNhWQqhEAwWQos21Tw0LXTxOFgRaYYYIFE0R5rhpu9O83Nof8p7mvE/YS7saFdffXWggx7HW4YnQTojKuxRjYtpyif3lSWQJTC5BHgopSXPWg8Yee8MBK5iLuOyBjFOcabiQZBG5oTKNdtVU5fACRkBBopftQFmvclHFr0yxQeDsMcee4Q0zK4wCDgYFCfCYqjxIHRlrEx7nWA6FGqi5OPzjXIP3gOZHTwQ0zRcRhlDvjZLIEtgehKAJ3JQKNMDPMwOa1WH6klH0TsDAfKa67asQWM/8MADyQyESYU5je9TwEhq8D3EOgTT6HeUPqTO8BSUKSjjg4246qqrOjMQZFKoZAkrAdApFNNFQxwk00Ptjkkbz4F6HXANF1100ViyZdghUxKv3GyzzSYdUv5+lkCWQA8kwLOscF7ZIWjhMAiRpKVsXigup9ZUJ2rFlGzSXRRQKj4vLwKWwFg9cNZr1ClWOEda6XCLhDxVFu2sxsqLAKGPiyDVemh6lmkRJVHswkkPPfRQMBDGdSXyrsEsCE0sFY9K0xzkz7MElroE0KUjhiurxSD0oNida1K03nkQUjxk2z5hEFDLcvGmaAAlNnGeAQaAH8BIDHixCFJMtXR/LmLKL/5QyvjvgRhx73MtWRgqT07TndwVSNGzkwkZqTjp37wEfkcWvygnSpWXo2iokBPUv1LFUUa8MWTk97SzHFSUVB1S3+M2hZWAUBmlPDOTzKMaGbG89rjjyd/LEsgS6JcE6kCK9kMt1SGpdwZCLApTNkX44L/5zW8mCzFQRk5wsgkmaZQXb4QTodO4crpY7CgtPPqQ76rnxXLLbRUX7woSI+P045SPUCmWO8bot8UWWwSWPOx5TpHjLBwufAq5jNoTVS82PifeSTAIZCRlUvnhb33rW0FOKg4++9nPDkBU6YPiagwhP23BevpVejvKiLGBkpnxZ7wKDW255ZYhRIHSe1wZTbI+fNc4gUFhTPxMegJg1N18882hr+w9mHR28vezBPojAQdLuqLs8PCv//qvYa9PhcvrnYEwz0RJTrTKEIshs+yU1IUmX3fddcMERmU0jtIuW67F0zSFDtwoJs+IEo5BlLP33ntPVWFMSpRERsaHS4HRtMkmmwQ5UdyKBZHRtJU2ZRx/GFQMNtkhjB2ZGk7e4wACKXgGzSgeBHNmDBQ57ITqpZOWcTXX+DOkNUp5yi1LIEtgMSSwcERJ3LZV3ParVq0Kee9tT9yjLpFYqGaUk7EN38kXRbS4+FZbbRUq4qVClbZ9JlX6cANgPHRiVtehrfLgmZBFse222/6v2zFEnPj12dYdTkaMAYQf1157bTCYGC+TnprbyqLqOoh/47GujAm5EK9JWwNuGIPgOXlfpCgyzKLR4e+8P0JL55xzThgOMO40wJX6tvas3a7Kg086D/n7WQJZAtUSwGnyiU98Ihyghpu/0zlvetObkoiwdx6EJE/ZslNK0aaPLKlNiznrGB5POOGEwW677TbV03qbMTRdA99w0003BW4F46T0m1zQ08YgOGnHUsW77rrrWKf1puec5HPKW4hDeOuII44YHHDAAY0ycj/rRCqqLAan+OXLlwcPEjkzZMn5iSeeGFx33XWB24DR6DMhlLZGSNNz4Q0x5uuvv751GKapz/x5lkCWQH8kUIdB4NHFsDjKoXaUJ+udgeA0R4mUNfiAZcuWJdsIRyVKcnKjWOThcxNPa9MfZQLbXBu9HNzZa6+9dsiTrxurmJfTdVk2B9wAV/bBBx/cypNzyy23hHACZQqD0WcZCX8wEqKyb/KQxHLJUo0YYYyvl7/85YG8iWFAebPuGY68JcIRTcZZm/mM1zD+9M34W3PNNXsr21GeKV+bJZAl8OcSkJWkcF8qnEGdvHtnIHSJQeAehp5vU/1OvN/GzEhIZb1N+0Wh3OMJ+W1ve9tY3Y+CQRBrR3zldFsGeBxrAIm/JIQiq4Ahtd9++9UqXUBUxhIDgZWviJWMEoYAZkeA1GkaBMVHF1LgsbBpkHGq+yQWd+4+SyBLYAIJ2H/WW2+9sNekaL0zEIC3uOvL2nbbbReUTVnRihTCqerTyc2J7c477wyKYZ4atsidd9454AiqGkwFY6mMvhiWgCcC22VTZoFsB7F2spqnxpACmvzOd75TCyA844wzgiEBaLly5crAXoj2GegytcLG1wHPsGLFinkSbR5rlkCWwIgSkOnFACjD3i0cUdKIspvq5SoEovDlzqlrUg2lEj711FPJFcFUH/D/doYqmUKrKvAxLQyCIkaAm02u+hTPOGmfQlnApnVllgGEpGMyuDRhmYsvvjgYXwCibUGho46VAScMB/QpbJNblkCWwNKVQB0GAb4rpsunkEDvPAiUNFrJsgZE+KIXvSiZUm6LQWAYoLIVY059Ukwx6U644lpl5Zzdz8lZDB3OYLhxbVOECJua8AQyAx555JG5lNG+++472H///WtLOeOfkIM8nKYoN1lIJcXaEAKRbcEowXmRW5ZAlsDSloBUeRinVBUb66TXOwPhyCOPDKC2sia+++STTyYDa7Qt9wzEB3QmHXDeQgyUl9CBctKvfOUrS+XMCNDKFBwMgtMrUp4m7IX5EoaZRjrfLLcA4RVsjLwf06izMM2xf/zjHw/zIhuiyUCb5n1zX1kCWQLdSECWVWTVHR7BwpV7lvOJT76sKYwjHtMFmrM4Hp4GqXA4853m5KCmOC1OcznCTeCYAMBzuhU/rzIQLEhGQpkBwEBALiQU02QgKF0N6X/MMccMtt9++0bMwjSfd5y+jJXH4/jjjw/Ygl122aXWQJC+KGth/fXXH+d2I3/nK1/5yuD+++8fnH766dk4GFl6+QtZAvMpAYRuOBDKDgQLh0EAoqtilnPCd/pNdXKiRLnPhTHqGgMBAE+xoJNOOinUBIAk51UoI7PoclmKV6MaBv7kogKicwpliFUZCEIMKIoPOeSQ/zV0hoP6AWoQNM2DqoJk9NGPfjSEY4499tgAWOzCVVY3B15AIRV1DBh6wH9cepHjoOq70yrW1GZ9YH9UvAtIF0V0blkCWQKLIQElBqSLl2WCCRUDSQNVp2i9CzGkeMi2fbYt1hQNBJMWOQbkz1Mq8tKBHIHHeBhmDdCjwJ3y1SPgJTBG2R8MBOl3lLoTfZ2BMC2QIgMBU2FkUsRjgWUQN8BRRx0VaiwwFlIxY9bNO8OJjPAzGCPQ6fnnnx+MU0ZCkQSpqp9ZeRCisWZeus7gafsu5euyBLIEpiOBOpCi/T4W85vO3f68l94ZCEiHKLCyhjMf+j7VJgkE6bSL26CNB4HyLTYnURkO99xzT6iLEMF8Tur4+iloJ28gzEmNhz/84Q8DgE61wv387Gc/G/z0pz8NhZug5wEEgRFf8IIXhBNn8bTfZCDwEHgW7vPhJvf/tNNOC16IpjTHaCAU+/B9ipmXgozIPFZEhFUoymhS44GhBHNBPuaCFwPdsUJO5I/vAsaAjNyrKKM2BkKKF3K4T14zZbd5NcrmYxZjyPfIEsgS6E4Cq1evDl6Csv3WfurvTXvxuKPvnYHQJVFSLH7UhCcoehCqBF8s30xJSUd59NFHQ4ybopJrHwl1KMhYvli4Qqgjli7mgfBjTBQ3hcEwEP9H3asWePyJ4Zcmi7LJQKhbTKMQJZUZCMN9k1P0ejz88MPPyEimiMXvRE+By5qIpbDJCE7C/3kfyMdvMiJrMiIrf+PJYSxxwZGTlKBiCe2qZ21jIDB04GFShUwAcmUr3Hbbbdk4GHeHy9/LEljCEli4Yk3Ab9z0Zc2pFYAslbXUdh21MRDq+opKkWIsGhK+E+t7F79fVGj+HasdNhkyVWNoMhAgY526y8B3aIjhCnAENIUG2hgIdQZWlE+ZnIa/VyWjJmNpEgPBeuSFiDwIbddPm+sYksJCPGZ9w7W0GX++JksgS2A6EnBYkXJeBs5fOJDidEQ6Xi/c8xgCbfx1bVIDYbzRTe9bTQbCtDEI0xv57Hpq40Hg9ld4qazq5bgj5R0BRES2JJQzLxTV4z5v/l6WQJZAvQTqMAjCpTyYQqYpWu9CDLgFqtjrKC4ERamAf+OAFFNMSuo+mwwE2ABeBLUFhpvwh1AJ70KTB2MSD0JqGTT138ZAaOpjlM9jSWioZABKGQtNWSKj9J+vzRLIEphPCRx00EGB2K4seyl6nFPtFb0zEACyoMnLmpi7YkqpeBDE14Hnttlmm4X2INRhMUYhShrXQFDvQbor/EA0QhgmQhqpXoThCZ+lgUDeUlG5C3fffffAM9FkfM3nVpdHnSWQJTCqBOoyFWTOSa9PRdjXOwMBr0CVi3/DDTcM5ZVTGQhtJ26phxgwCVLIZeA72Q3vfve7Q2GiJqKkUQ0E98UnwVMUyyaznHfaaacBkixET9HlzoCQHaK0chVvRpxPClhKIrBiW1bHNgaCcJSXc9zKmMbHGPr0pz8dMiukgcpwmZUR1Ha95+uyBLIEupOATC+HpTLPecYgzHBeKL8HHngg5OnXtaVuIHSFQaAolYhW8MgJmrforW99a8gAwUeO14FBsPfeewfCLFTIwiCAk9dcc00A8zmB8zS4DuCVoSGV8R3veMeAgSmNtU2abBsDYVyipJiNcccddwyk9SLdwtqYW5ZAlkCWwLAE6jAI9kCVHqtI7yaVZu88CJM+0CTfzxiE/5FeVwaCVEQcFG984xvDOChS7nb1OWRNCP3AoKii+LWvfS2kLSIR4qlQH4KBB/0vROVaID/GBiODMmZkyIJp8ny4dxsDQRoiL4s0zLZN6qYxoU1GYOW52rBStu0/X5clkCWwtCRQZyAsHAZBERqu1rIGGPftb387WYhBFoM6EFX3j2Na6h4EJ3IhhjJQDCWMglmp4SZFO2qIgfv/xhtvDBTHse23336Dww47LPygG1ZE6c1vfnMwEoQexOB4BzBZGrfUwDPPPDMYBJdcckkgjsKNcO655w722muvRu9QvG8bA6HNNiQrwbisGSySPFS8HsaSqhx0m3Hla7IEsgTmQwL2MB7TMlySz2QwpKJf750HoQ6kiOQGE17GIEy2sJuyGOqsUiBF7nAsktM2EBgevAc8BhojhbEg5U+YwG+ndQYCI26HHXYIngTU1k7lYvdeGCRKvCC8ERgmsVvibpi2geAexgOHEIGd0fNBTrwEXIBiiDJzGDl41VNl4Uy2KvK3swSyBPoogTqQ4sJhEKTXVVHKSr97/etfnwzh3dZdM6oHoag8igtwmMTnv//7v4PyiAokfm9csp+qxd5kIIj5i+E7mQ83J2JGmqJLTUj7UT0IXPbooVFqU6jKfjMCFFESY9tiiy1CmGD58uWDb3zjG8F4+OEPfxiqaapwaFwMlyuvvDJcd9ZZZwWPgpRBypxhCTfQZNh45jYeBH0xQHgCMD9icAQ65DGAd9h3332DnKznJlKpPm5MeUxZAlkC3UuAx5HHtozrwN4IJO3gkaL1zoOQ4iHb9jlpLYaq++hXcST0ylziTuDQ+JTQX/zFXzzztQ9+8IOhjHSszMVAUNSIohF7n1ZrMhC6wiB4Xgbi7bffHtIchZS23HLLYIjEuhfqTXhhyI3iRVst7AGQ+Jd/+ZcBj0C2yoLLeBG2gEfgWUBZzPiYFkjxS1/6UqC9ZrTKpIg/cAnZSzCt1Zr7yRJYbAnUYRAcSBx4UrEL985AQC1bVmbYEqFkId3bnADHWVI8A0BsTqB1bVQPQuwLfbEYulM4txEX9GWXXRZQ+fvvv38oh7zeeusNLrzwwmAokIO0PwYCt7qTs1Q/biVubYh/BsTaa68dEP5t41BNBoKTMAXtHsNNKqKS0eTUdCoe1YMwypy9//3vH3z+858P42yj8Efpu60HYdQ+8/VZAlkCWQKjSkCKNrxVmd5r6/Ue9Z7x+t4ZCF0Wa+LiF69GyJTaQLj//vsDmI77mxEghg59j6WQAv7ABz4Qfm6++eZgIIhla9L48HI7ZTMquJiEXox92bJlrdYBA8FPW06AYqfTLtbUasAlF/E0MIgUvErR2oQYeC4YSV1jYlI8f+4zSyBLoP8SEIZV6VFGV4rWOwPBqfCII44ofVYgL8Q5qTwIbQU8DQ8CZP2KFSsG4u7f/OY3gzdBnIk3QUzdZ/fdd19QPgwEfxeP576+8847Q7YFb4s0P8WCXNM2F7bJQFClEN1vmQEhTQ9A8JRTTunUg9B2rsa9joGAnKmOE4PXhvfGvOSWJZAlkCWQQgIOiVK1y/TewoEUUwi4bZ+8BxSzU31qDwLlIi7Oi0BhQ+IzEKD1uZOA7ihpLnTKX8hB6p64OwNF+eNf//rXgWKTFSksIg2wTWsyELrAIMBmwBbAG8AXSFuEyWgTy+d1YVhWUXSTCVccLMiLXvSiVn22MRDGJUpqM0f5miyBLIEsARKowyDAZGFfTVXUrXceBJu4dMay9vjjjwfkehN6ftxlNUsMAqV+ww03hLQ+qXpOoeL799xzT/AIqOgHVHfqqacGA+Ghhx4KngboePn0q1evDl6FrbfeOqD3gVRQ/7ZpTQYCnIM+3Xe4wU9A7q+xxhqN8zAKBgH/AVbBiy66KKQ3MojgTbwcGBKFE9ARw3AwGrAsMp6wiMkgIE9GghcGWJCn5YknngiGAU+AayF9eWrauOPaGAi8QKz6XI65zarL12QJZAmMIwG64aqrrkpWsbFuTL0zEMTjqxTdK17xiuBSTxXz/f3vfx8oe+EgUngQABMBAPFqU7RSCaUwyqX3b0qXQpO6R6lh2ONFcKKmFIUjeB022GCDoDDFwBWXYj1Sem3Bek0GgnEaR9npHQZhjz32CMZNU6hnVANBWqK5h8xV72HVqlUh04N7jSEEtMmzIMTCW0A+DCP0yTw/eA7gMHyuFDMDi3VN3sbC4AGu1EdTa2MgNPWRP88SyBLIEphUAvBl9rmyGi2YY3lFESmlaL0zEGQqiK+XNUpT+loqA6GtgMfFILTtP/V1TQYCoiFGQpkBwEDAj0B5T9tAYACss846wSiSvsircPnllwfjYNtttw2gTPTJUhWFY2AueA2khQpHwE5YH3AS+uFl0aQ58orgUUC2xGhoam0MBBgQOI1ppqA2jSt/niWQJbBYEnBgksJdZiAsHAaBciirImhJPP3000l56/EUOMkj6UnhQejLsm4yENBZc8+rEzDcGA5/+MMfghu/qergqB4EXgB8BhrFL8zhHgwESp6HAEBSaIUHg2fAfBkPo4UV7dk22mijgOyVAqrhKjjxxBMDCdM0DYSMQejLis7jyBJYuhIQVpa1VoYzUFUXX0yTzhpXOr3zIHBtVyme1DmfbTEIcBJi5DAB89hQGXO1C9mUtTqQYpwD32syEKRkyuFt03gLYA6EGXgwKHTATZ4EzITCGsCbwgYUP28DngbP4jvSRI8++uiQdcCLIBMEtkMaohgezAK8B4+EzIOmJtTBC8GoqGrYHBkpqV7OpjHmz7MEsgSWvgR4SmHQmsrap5BE7wwEp7KqGLGTpJNj21j7qAKj+PEKOL3WNSdSYEmguSY3+6hjmMX13PUUchXRkTACbwpA4HCDe0BSBAPQxN614447BgOhzXzJREAEBYDqeh4DBgYgIFwBICB+ikiixYDgOVDcS0YHZc3jgWSKpQ28KBuFQSMsse666wYjgsHh/03twAMPDIRUVUZU0/fz51kCWQJZAtOQQMSkle3X9mM6KJUe6p2B0CVREvc5BH2TQqN0uLkVlqrLk5/G4ph2H0AtiJi4psZpoxAlCQdQ1NIXJ2llxUr8TaurU1EGtqzzUMUxApIKZ3Dr1eFdAGaFw4CEcssSyBLIEpi1BNSakRrPY5qi9c5AkOsPtV7WVOdzgmyi+B1XUJQHpdIm9x6ydPvttw8VA2UfNLnbxx3TtL7n2WA4IPmB6172spdVdi32L1uiDHznuaVgOt03yQmeBEW0+4mTzYOMeCyUmBbuaApFZAzCtFZn7idLIEugSgK82mj4i3V74rX2IPoyF2uawfpBPITASIpcU6Nwf/CDHwTWR1wFKmql4mdoGkubzxle3PKAgGLrdcp6WkRJZCR1VNbBQQcdFH732UhQ20L4RIhLxkPTWOEU4CDMfW5ZAlkCWQIpJFBHlGR/leFQZjxMYyy98yAgClKqt6wBmHHtp/IgACl+6EMfGlxxxRWtZcvlTqk4WeNwUGzJ+JqUS+sbjHlh9IaI7TN4hE24/HEHNDWuc8ZSWfjEc3K9b7fddo0ehHgfIEN4gMcee2xw3HHHhfmtyuttGts0P48ykrGBwtv8k1VbyuppjiX3lSWQJZAlUCYBOCvU9gyB4ZYauN87A6FLDIL8eUpMmtyoDXIeQM73pdzttttuoZAQN/ysjIWo8LjJ8RSgX8YdcfjhhwevwTQ8HKNgEIZlKCURU6JUQyWvGXuR+njWMgLuQe9sPJg71fngphtFRsiujHuU74y6rvL1WQJZAlkCVRJA7KfcfFnl3WlIrXcGAlY8LvuytuWWWw5uvfXWRhDhNAQzTh8UtLg7Jj/5/E7ir3nNawa77rprODWXZQWMc5/h7ygjjVFRxgADZc011wwgOxgCRsqoCozydOovq5ToM54S2IumLIayZyMjlNKMBDJ68MEHw4mdjIz3xS9+cRKDyrwofqUqJp4H2QlwFMIDsiBGlZFn420wv7JCcssSyBLIEkghASnawgxlmK+FI0pKIeC2fUqbo9yd/qfRKEIufjmsSjJj+qMgUSszFvxQTk7R0vgg5sWSInJeqqEf/fBuAA4qKAVsyCiAtgeq1AcrEhAQq+CktQGmhUFoI0OcB2TDUOCFEdqQSUJGwiGezQ++gb/+67/+Mxl5YcimKCPyiTIiJzLSH2MHXwEZ4UOoIuNqM+Z4zSc+8Ykgd7UzcssSyBLIEkghgToMAn2FzbUOdD7JmHrnQeC2rXI4e9YAABm4SURBVELHUyYpXfZtiZImETiFRrk70XLXCwcofsQ4QanphO43QyIWKfJbbr9KjhQdRemHAi2LS00yPt9FUQywF5kIi/3FMIYTd6qwAJwD5R5lpNASGZFVUUbWg5oUfsiI0veikAv5+D95+TxFY7Ax6LogMEnxPLnPLIEsgf5JgEcYVXwX+0zvDASc+pjxyhp3rjz+VLUYnDaB1aSVLHJz4maolcmZUSMbQVXEVOQciyz7/OxZAlkCWQJFCTg8OvCUhUERvzk8TsMjWib13hkIuPSV/S1rYtVSC1MZCHlZ/o8EGAdCF2UYAwYCfAMa40U3EG655ZaAmRBmyC1LIEsgSyCFBHid6bxcrOlP0uVCroqhczG3KRKUYpIWqU8gvscffzyUXB5uQgyMBBZtqhDDvMg6EyXNy0zlcWYJzK8EpM6r+1NWrCmDFGc4r9w18k0x/y1ymyVIcZ7lLMVINsQGG2wwz4+Rx54lkCXQYwnUgRRlm8HlpeIG6l2IQfqcnPSyhrXw3HPPTebaZiAg9Lnkkkt6vFzSD022hbgXcMxw4+7CNnnSSSclW5TpnzDfIUsgSyBLYD4koLCeQoVlId2FMxC6JEoapRbDfCyt6Y9yEqKk6Y+m2x6lV7Lex+GD6Hbk+e5ZAlkCS0ECC1eLAc2xgkJl7YQTTgglePOGnHZpK2OtpHUZ+I5SvOCCCwJZUiq3Vtqnm17vqKvJSFnr3LIEsgSyBFJI4LLLLguss2VVhjMGIYXEK/qU5kj5nXbaaTO8a/9ulTEI7eZExUfkSzvssEO7L+SrsgSyBLIERpRAHQbh5z//+eBZz3rW4qQ5wgG89KUvLRUh8p7Xvva1Y9HitpmTWRAltRlH19dgNVTyeZ999vlfQ5EC+dRTTwV65HHoibt+tmneH1GTTI6mstfTvGfuK0sgS2CxJLDTTjuFAoIyx2bdegdS5LpWRresQYyrb5CKBwEwT6XCPffcc9bz0Kv74UCAxyhTfDAIe+yxx+CGG25IBhbtlTDyYLIEsgSyBDqUAGbZquq3vL08DAtDtawcMNdtWVOR8IEHHkhmILRdA5Snk3RskXa4C14AytxPcSzGMzzGWHWwzRghYz1fGY0zA+HAAw8cXHXVVTMzEDyLWhR4MLjTjMtz+Hux3GmbZ2s7x22u+/znPx+qZb7lLW9pc3m+JksgSyBLYGQJoOb/m7/5m1KP7cJhELhtq8BvdZbUyFIv+QIl9MMf/jAU86lrQHxrrbXWILqYldrk9Xjzm988jWGM1IfKl6effnr4jjQYYJYzzzwzGA3GqJ6BhvHv5JNPHhx00EGNoYG77747MFa+5z3v+V9joZDjHM1CIbsfb8UhhxwSnsU9pcLuv//+g0svvTTIncEAzbv55pvPlLwpEyWNtFTzxVkCWQJjSMA+fv/995fWYnBQW3fddRen3PMY8pvaV2AQPvShD4V4T1371a9+FQhyPvOZzwRMBG4GpYRVI8RC+Na3vjUoa6WpodwZHWussUao7AjU5m/qHfjcqXijjTYKJ1ElkMWZfvrTnwaF/pKXvGRwxx13DJS55kLCQXD99dcPfv/73w+22267gAPAR2AclKiiRocffnj47Oyzzw6uJ5wOihcpTayqZJsQTZ9AirImGGy8R6onLl++fHDttdcGuahcyYJW6ho+hfwnrWQ5ymKC1VAMytzmliWQJZAlkEICdSDFogc1xb17h0FwynUyK2sbb7xxoJxMhUHgGXAar6oFEccUDQRKaosttgigPUqfYfGOd7wjnHB5FTbZZJNgFFBwTrnPf/7zg7FAkX3pS18arFixIig+lbqUKOaBUPubYcBYUQZadUfuJd/bdtttBw8//HD4+xNPPBEU41e/+tVwikZuJA1GLYtVq1aF8smIjo488shgdCiupJ+bb765MT2RIcJbU0btaTyMEIbHLGoxGAcD6Sc/+Um4L3mTK3wEY8dYGQnGZT5yCmyKbSL3mSWQJdCVBGQq0AllmDDp6CrK+knRemcgdE2UJPbelN8/bCA48TMQbrrppqCs1ItAv6ugEYPG/1WJlC/P80BZMxgU+2FcoOyVvbH99tuHUz+PBMOBEqYgGR0MgrXXXntw9dVXh37UAAcWZCwVDQTVMPXHQOCV4E2weO65556g8O+9997SfNq2i2vWREksZPImE14ScuCFUQedZwQXwSc/+cnBhhtuGOSd6kUpkw/DzhiyB6Ht6snXZQlkCUxTAgtHlESxVWEAKADKMVVambi9+HrTyTgaCEIEm266afAYCE38+te/Dkr//e9/fzjlH3DAAYOjjjoqKGaK3bVCBV/+8pdDWEBMnfIXJnBCZiBwm3Oj80AIJwhB7LLLLgETINZEBm9729sGSl+TBZc6A4H3g1yEK3gMfFcIQnls1ud1110XyjS77oUvfGHtGnUvBgvjYrgxWIRRxPtTzUPxnkIMZLvzzjsHTwKQ6mabbRY8J7fddtsABkPoZPfddw/eF6GZWbWMQZiVpPN9sgQWVwK8wg5BZeFTfweSftOb3pREQL3zICR5ypadUvw2fWRJdS0aCE7oXNoU6rJly0J4Aj7g5S9/+UAmAM+CsMKwgYAZCxmT06463gwNvAO77bZbpYGgP4tAKEHoYPXq1SElk1vdfVX8YqCohunvPBFOtn4zeChPhoEQRRkjV/F5+4RBgNUAvOSJYSCQKUIrHgSGpLDTb37zm4Dp+N73vjdTDELOYmj5YuXLsgSyBMaWQB0GgUfXft50qB335r0zEJwMKcqyxlo69thjk8WZ2xIliXtTUNzfUPW8Ak78jAV/c9qNilrKIQOAAocBoND9m/eAy3z99dcfOCVbBAwPxgTvAAOAAqT4uLJ5C4AQfUfay1ZbbRXCEFzujAvNQgGa5L3wPWPkEdF4FXgn2pRpFvN6+umnSz05xsrAkVXQFIoZd1EWv0eejCNyA0RkcMFivOAFLwjGAmPIy0HmAIOzyKyI40sNEJqG/HIfWQJZAvMtgfPPPz/st6mwd3XS6Z2B0CUGgeKnbMtqELRZYhQGDII0Q/gBhs4sFVabMU56zawxCJOON+X3pcUKszR5ZFKOIfedJZAlsLgSAHZ38IPLStF6ZyAAnX34wx8ufVac9zwMfd2QGQi8EE7v4v/zahzwbjCWnNaHG8+IcArQ4KJnDCh7DTiaazGk2Jpyn1kCWQIkIHTKACjz2C4cUVKXSwJ+4PLLLx/st99+gbGPwhfz16DVTZC0EkC9v/qrvwo/jAHf85lrNCmLvqsPxoxTN8XKRSSjARgy9vvc5z43nELjd4QAgFG48oUUKGGhCS1+x//9nSJ3ioVliCmJ4vPCGvploMR+fe461/te7Lf4jFz0/q7+OPc92uuqZiyew/N4LmmGfjyv59aMpSi7OJYou/iMZOfe8RmNyTMKHUTZ1T2jcIjsE3gO2SGMG7TZRdm5txafEfhT6ML1vicUI3RjLswj2cV+h2VnXMaHl0GYB1d6blkCWQJZAikkUIdBANAGzBZyTdF650GgbKOyGH5gMXrx9VRFgiiNj3/84yGFUM49BXbKKaeE+0kfNAniQTIOZBJA+QMGnnXWWYPnPe95g+OPPz4MGZcD5XPooYcGbMLXv/71gCkQusBk6DOZC9qJJ54YlI3vuJ9Yulx/VqNYv+d93/veF8bgWoqQ4oZ7QBiEoEnmwl577RX6g9FgYOiPgvSdmCop9RJ3gjRL6ZaYEinGOJYPfOADYbEB3zkZ1zFDAlkyejyPa7/xjW+EDA74Cc8dx+K3Mt3m1H08u2wNZFK4HS6++OIgO5kfDAXjZnQJNfHCyMZAIAW3IQuj7BlZ0YwemQyRe4LrzbMcffTRQdnLhND8H4hU5gn8hsySXXfdNRhSKL4ZN+i+GQEAq4w0BiM3nuwNHizrw/gYQEXDJcULmvvMEsgSWGwJyNpyaHOQmXXrnYFAaVHCZU2VR2j8LsAas56YfL8sgSyBLIEsgSwBh8JY72dYGgDlvLhlpHbTkFzvDAQnSbTAZU1aIRbCbCBMY+pzH1kCWQJZAlkCfZeA0C2vcBmmbeEwCFy6LKKyxqULODev4L++L8Q8viyBLIEsgSyBfkkA14vwbZmXAEOvsKoQaIrWOw9CiofMfWYJZAlkCWQJZAnMowTqQIqA4g7MqQ7NvTMQFEpCLVnWgNRWrlzZ2zTHeVx8ecxZAlkCWQJZAv2VwN133x0YY8vSygHFAapTpZz3zkDokiipv0skjyxLIEsgSyBLIEvgzyXwD//wDyGjjgGRovXOQFCqWNpZWUtNtZxCwLnPLIEsgSyBLIEsgXEl8LnPfW7wrne9qxScv3AgxXGFmL+XJZAlkCWQJZAlsNQkUIdBUJ0XPwKCvRStdx4EBXkQ75Q1xYeQCM2izHAKYec+swSyBLIEsgSyBEaRgEJNqO0x0A631AXjemcg1BElveQlLwnFlDIPwijLK1+bJZAlkCWQJTCvEqjLVMCwiK0X62yK1jsDAR0vuuOytuGGGw4gOrOBkGIp5D6zBLIEsgSyBPomASUGXvjCF5Z6zjMGoW+zlceTJZAlkCWQJZAlMCMJ1GEQbrjhhlD/ZmE8CDOSeb5NlkCWQJZAlkCWQO8lUGcgLBwG4cMf/vDgU5/6VOmkqYb49re/PVT8E2Y488wzB7/5zW8Ge++9d6hoeM8994Rqe9wxqhpqrlWx8KMf/WggWLrwwgsHjz/++GDzzTcf7LLLLqEyo+qFyv4KbwBAKuOrsuOBBx44WHfddQestG9+85sDxaLUivCZaxBUqJaIJ/uCCy4IhaS23nrrUOVRpUKkTqoDukbjDlKGGBGUioIqDj7yyCOhyuPBBx88gEj9zGc+E0gvyAEo5eyzzw5/N1Zjvv/++wdXX311qIAYKxTGCogf+chHwne++MUvhmqQcmP33HPP8H0EVJ7ftcZt/Cpn7rvvvoM3vvGNg1tvvXVw2223hQqIKlcap1APebgP+uth2cGDkB0EraqXmrxcdNkqTq6xxhqDa665JlScfO1rXxuqPKqaqPql4iP6RR9qbL/4xS+C3Mjv4YcfHnz5y18OZZdVgtQ8m6qUKmaqDHnFFVcMHnzwwcH6668fqjwqzWw9qAhpLJ7ROvL3uD6AXMXsVOVUsVEFSHLQPDOZXnLJJYPHHnts8KY3vSlUyPzlL38Zxld8RlUerQEVP9daa63B1772tVCtU62QI444IpQEVxlSkRXzqFonkNHPfvazwVZbbTXYcccdw/yYJ89ifXjRVchUqtoaU8VT1c177703lJRWNVPpa3NCdq71jO6Dgny33XYLlSnjOxCriyJS8YzGYt2Z37ju0LPuv//+YU6WL18e1rF+tbg+rEvrM64PJ5UjjzwyjIV8Vec0j8qLf/aznw1lwo3DeH7wgx+Eap3eAetOLJXscMvDGlkfKp3edddd4RT07ne/O8zxqaeeGpjh4jOaV1VTVTrdcsstBw888MDgqquuCve0HoyBXPw+6qijQqXSuD5iv/EZvef2Au2MM84IJdS9A9aRd9z6UCmVrFRXNV5zYr1YN1LO7Bn2G+tKRdAVK1aEdWz/MG7p2N6BWM01yk4VUM+txTm3J3jfvedcyfEdePTRR0M1V+uDfO1h5oTscMWsueaaz7xbcU6sdc+kwqh+Ne+a998+YD+I1VytL2veuiAP62TZsmVh3cW9TPXXffbZJ+C+FNCzt3hG75j7KI9+wAEHhD3yjjvuGNx0001BdqrPaq415/EZo+xUct1hhx2eqeZqb/GeaObRe0l29ozrrrsuVFE1pyqxuqd1Z/+3TsguvltxfSiBbP7R8ps3zVqyZj2zdyDuZfEd8G5av2RnbuyV1p13K+4fqspKwx/WL2Ro3yMXVWJ/9KMfBTA9XRX1i3dLv66JVWK9095tFWuFzqPs7MvWkDH4jnF7n8uqGHsvZDGUARjDg0/YeodBqAMpUuwUlheCsGxGNgUTZpHZmG0EBMvq0rzANl+bt+/Y8L1kNm0L6I9//GNQTj7zAnvBTaqSwxYS4dtETJpFaVPzmZcmfseYVNXSF6Vm4zKpXngLWL8aA8KLbrFbiF5cLwPlA4BpQ/JM+vWM+rVw/d1YjdnGwyiiHKJb6cknnwwvovtYgO7r/mRCNr6vnzhev43fc9gQbG42Fy9flJ3PyIE8yNJzDMvOpkJ27mnDKj4jA8hmbKzGbAEzsMyXZ9SM33fjM5Ib+TFOLPyyZzQWf/e564zdM1AsTz31VBivsXhG4/d3GzslZQ7NZXxGc0EOmnn192HZUQ7GV3zGKDvP47msOWvPJuAld0/PaN3F8epDXzZ8L7t5N/9xfbjW+jCP1oe1ZnNiiMT1EcdbfEbPTKZxfcR3gIzc2+ZFDvqP/cZ1Z21b476vn7JnjO9AXB/m1Nwai36N133ILr4DZE3mw++AMZCdMZGTvoZlpz9y0OI8xmckN/IrvgPu7TvGot+47uL6KK47/Xin7AVaXB/xHYjrw7tJVlF2fg8/Y3y37CXeC7KL73ncP+L6GJZd3JeKz2i9eE/jO1BcH96TYdlZa/HdinNi3bl38Rljv/EdsJ6sq7iXxXXnGb0D/h7nMb5b8T3Xb9wjydL94vqwd3jO2G/Z3hv7je/AsOyMxfitrSi7+A7EOSk+o7F4z+O7FddH1f5RfMa4l8V3wN5tfJPqF/sheRX1i36tD/NYpl/iOxBlF58x6gHfrWoLh0EgYJtHblkCWQJZAlkCWQJZAtUSWDgmxbwYsgSyBLIEsgSyBLIEmiWwcLUYxCzRSuaWJZAlkCWQJZAlkCVQLYGFAynWFWvKCyVLIEsgSyBLIEsgS+B/JAD4CXwKbJmi9Q6kCBEMHZ5blkCWQJZAlkCWQJZAtQQWDqTIZQJVrUFiQ3JCdUIqQ5hCfUOjQtlDhLpGc43v+tx1kLB+fN81xX4hrn3XffwdStRPXb9xLO7rutivcbm3/vSrDfcbxxKvafOMxX7bPqN7Q0Jr8Rmj7No8Y5Rd1TO27XdYDlXzGJ8x9ls3j0X5Vj1jXB9tZDf8jGXro052Tc84vD7KnjHOyfD6qJvHqmcsrufhd6Bs3Q2vj7J3q+oZm9ZHcR7L1l3sd3geY7/Dz1hcd/HdavOMTeuu7J1tes9HeQesqbgvDfcbn7HNvjTp/jE8j232yDZ7r37rnnGUvbf4jHG/G9YDo+y903rG4b03ymVYv5S9s230y6TPKBtD1pCMkxStdx4EqWBy6wlOLqy0NzmtshvkjG6//fYhJUt+vRQmOdma70gNkrsuXUdeqZxfaU9yeS3kc845J/yWo2+i5bxLMdlss80Gm2yyScjLlZdN2IcddlgwMPRrTPrQ1y233BJy2GO/0obkvkpRkTut4T+QTrftttsO3vCGN4S8/ttvvz2koskr1y/XkH4V4pCec+WVV4Y0m9e97nWDnXbaKfzb36QzCbvYUNzH/eSYS9XyfJ5TqpF8dk0+dfEZ5bxLa+OGwqMghUxusdS56KmR9wzsIldaKo6xGnPsV1oZz44NQS6yF1+OtlQyef3ypRXZkkNuvsybJj9Z+pB8X2lW+BukXclNlyMspRDfgRQm/AHm5KKLLgrpiLgCFO3CdSDHWvpXxKZ4RkaAsfhO7Nc4jIfs5MlL/yI74/WM0u6UEsddgBPhu9/9bhiX8UmNMtf68x3zefnll4cUNnn9b37zm0PKrJxlKW5RdnKnyU4+uHQ5edKucw/3kqaF70C/vuNZrQ8pYTgf1ltvvYGcd7ny0r9wAWjWKkPU+vYd/B7SWbkSt9lmmyB7sjNO47UhekbPIR9cDjluBhwUcd15P1zjWuvb+xNlJ68fx4D5GX63zjvvvJAabI1ZE/LdcUVIM9tjjz1Ceqx3iZxjv5deeml4t+SD45SI68NmFmWH88Om7//Szbx73kG8C/LkY7+MDPwGxm0degfsA/YDPBHy0+P6MMfmkfK3XtwPn4T0yig77wPZebf0q8nzJ5/4nsd3wF4iD9494aO8W57RHmFepRrGd0saNk4M68N6tkatD0aC9967EfeP+A64p/ea7OxLnlGOvnfAPBuzdWq9xnfLevOM+sfVYv+I6y7uH/Yfc+Id0K8W18fuu+8eUkjj+oh7Gdm5tznxjGQX9w9cKfgLrEFr0XxJSTeGuJdZH9Kqva/e27g+7OXkUHxGsvQOxP0jvgPSA+0fvuMZyU6/3i18NLg1jN0zWB/68X7YCzSylOob34HhPbKoX7xr3jlrwV5kr7ZnS7W89tprn9Ev5txYyMdakAI7LDv3xjmh0QPWbNQD9l1rxNg9g/VBvuQc9QsuDtl78d3yb3+zDsyJZxzWLzgzcFCkbL0zEFI+bO47SyBLIEsgSyBLIEugnQSygdBOTvmqLIEsgSyBLIEsgYWSQDYQFmq688NmCWQJZAlkCWQJtJNANhDaySlflSWQJZAlkCWQJbBQEsgGwkJNd37YLIEsgSyBLIEsgXYSyAZCOznlq7IEsgSyBLIEsgQWSgLZQFio6c4PmyWQJZAlkCWQJdBOAtlAaCenfFWWQJZAlkCWQJbAQkkgGwgLNd35YbMEsgSyBLIEsgTaSSAbCO3klK/KEsgSyBLIEsgSWCgJZANhoaY7P2yWQJZAlkCWQJZAOwlkA6GdnPJVWQJZAlkCWQJZAgslgWwgLNR054fNEsgSyBLIEsgSaCeBbCC0k1O+KksgSyBLIEsgS2ChJJANhIWa7vywWQJZAlkCWQJZAu0kkA2EdnLKV2UJZAlkCWQJZAkslARGMhD++Mc/Dv6///N/FkpA+WGzBLIEsgSyBLIEFlEC/z9qquEyy7peXAAAAABJRU5ErkJggg==;" vertex="1" parent="1">
          <mxGeometry x="-520" y="54" width="520" height="446" as="geometry" />
        </mxCell>
      </root>
    </mxGraphModel>
  </diagram>
</mxfile>
